<svg width="266" height="140" viewBox="0 0 266 140" fill="none" xmlns="http://www.w3.org/2000/svg">
<g clip-path="url(#clip0_535_51067)">
<g clip-path="url(#clip1_535_51067)">
<path d="M0.408482 139.294C0.233599 139.24 0.0616928 139.186 -0.103516 139.132L-0.103516 149.238C0.2336 149.411 0.595273 149.582 0.980016 149.751C0.751551 146.293 0.56104 142.803 0.408482 139.294Z" fill="#171619"/>
<path d="M38.1089 131.064C40.3414 131.133 42.6395 131.199 44.9941 131.26C45.0685 135.637 45.1809 139.994 45.3312 144.31C42.984 144.187 40.6942 144.057 38.4668 143.92C38.3068 139.667 38.1893 135.375 38.1089 131.064Z" fill="#171619"/>
<path d="M25.5254 130.608C27.4781 130.691 29.5075 130.77 31.6069 130.847C31.6902 135.085 31.816 139.306 31.9842 143.489C29.89 143.338 27.8651 143.181 25.9183 143.017C25.7427 138.91 25.6132 134.768 25.5254 130.608Z" fill="#171619"/>
<path d="M14.7883 130.07C16.4077 130.167 18.1148 130.26 19.9076 130.349C19.9954 134.423 20.1286 138.481 20.3072 142.504C18.5167 142.327 16.808 142.142 15.1887 141.951C15.0116 138.016 14.8761 134.05 14.7883 130.07Z" fill="#171619"/>
<path d="M6.19824 129.447C7.43508 129.558 8.77237 129.665 10.2049 129.769C10.2942 133.65 10.4259 137.517 10.6031 141.355C9.16679 141.15 7.82503 140.938 6.58522 140.719C6.41331 136.984 6.28382 133.223 6.19824 129.447Z" fill="#171619"/>
<path d="M0.0678706 128.744C0.867868 128.868 1.7847 128.989 2.80721 129.106C2.88907 132.767 3.01112 136.417 3.17484 140.042C2.14414 139.81 1.22061 139.571 0.41094 139.324C0.258382 135.815 0.143777 132.284 0.0678706 128.744Z" fill="#171619"/>
<path d="M44.8828 118.129C47.2396 118.129 49.6553 118.129 52.1222 118.128C52.1222 122.585 52.1572 127.04 52.2257 131.476C49.7624 131.421 47.3505 131.361 44.9937 131.299C44.9193 126.923 44.8828 122.525 44.8828 118.129Z" fill="#171619"/>
<path d="M31.481 118.129C33.5825 118.129 35.7541 118.129 37.9888 118.129C37.9888 122.46 38.029 126.79 38.1087 131.102C35.8761 131.033 33.7061 130.96 31.6067 130.883C31.5226 126.644 31.481 122.387 31.481 118.129Z" fill="#171619"/>
<path d="M19.7759 118.13C21.5672 118.13 23.4433 118.13 25.396 118.13C25.396 122.307 25.4399 126.485 25.5277 130.645C23.575 130.562 21.7004 130.475 19.9076 130.385C19.8198 126.311 19.7744 122.221 19.7759 118.13Z" fill="#171619"/>
<path d="M10.0732 118.131C11.5058 118.131 13.0358 118.131 14.6552 118.13C14.6552 122.127 14.6991 126.124 14.7884 130.105C13.169 130.007 11.639 129.907 10.2065 129.804C10.1171 125.922 10.0732 122.026 10.0732 118.131Z" fill="#171619"/>
<path d="M2.68481 118.132C3.70658 118.132 4.83774 118.132 6.07085 118.132C6.07085 121.919 6.11401 125.707 6.20034 129.481C4.96351 129.371 3.83235 129.257 2.80686 129.138C2.725 125.478 2.68481 121.804 2.68481 118.132Z" fill="#171619"/>
<path d="M-0.0447256 118.132C-0.0640743 118.132 -0.0826789 118.132 -0.103516 118.132L-0.103516 128.747C-0.0469577 128.757 0.0103445 128.766 0.0698792 128.775C-0.00677193 125.234 -0.0447254 121.684 -0.0447256 118.132Z" fill="#171619"/>
<path d="M38.1088 105.194C40.3414 105.124 42.6394 105.059 44.994 104.996C44.9196 109.373 44.8831 113.77 44.8831 118.167C42.5248 118.167 40.2253 118.167 37.989 118.166C37.989 113.836 38.0292 109.505 38.1088 105.194Z" fill="#171619"/>
<path d="M25.528 105.651C27.4785 105.568 29.5079 105.489 31.6072 105.412C31.5231 109.651 31.4814 113.909 31.4814 118.167C29.3799 118.167 27.349 118.167 25.3962 118.167C25.3962 113.989 25.4401 109.811 25.528 105.651Z" fill="#171619"/>
<path d="M14.7882 106.191C16.4076 106.095 18.1162 106.001 19.9075 105.911C19.8197 109.985 19.7743 114.075 19.7758 118.166C17.983 118.166 16.2744 118.166 14.655 118.165C14.655 114.169 14.6989 110.173 14.7882 106.191Z" fill="#171619"/>
<path d="M6.20053 106.815C7.43513 106.704 8.77243 106.597 10.2065 106.493C10.1172 110.373 10.0733 114.269 10.0733 118.165C8.64071 118.165 7.3049 118.164 6.07104 118.164C6.07104 114.377 6.11421 110.589 6.20053 106.815Z" fill="#171619"/>
<path d="M0.069682 107.521C0.867447 107.396 1.78428 107.276 2.80679 107.157C2.72493 110.819 2.68474 114.491 2.68474 118.165C1.66372 118.164 0.751355 118.164 -0.0449219 118.164C-0.044922 114.613 -0.00696886 111.062 0.069682 107.521Z" fill="#171619"/>
<path d="M45.3313 91.9864C47.6762 91.8628 50.0806 91.7468 52.5342 91.6374C52.3973 96.0094 52.2946 100.424 52.2261 104.859C49.7629 104.914 47.3487 104.973 44.9941 105.036C45.0686 100.658 45.1809 96.3019 45.3313 91.9864Z" fill="#171619"/>
<path d="M31.9842 92.8058C34.0776 92.6555 36.2402 92.5118 38.4668 92.3749C38.3068 96.6279 38.1892 100.92 38.1089 105.231C35.8741 105.301 33.7063 105.373 31.6069 105.449C31.6903 101.21 31.816 96.9888 31.9842 92.8058Z" fill="#171619"/>
<path d="M20.3071 93.7905C22.0961 93.6134 23.9692 93.4423 25.9182 93.2778C25.7426 97.3849 25.6131 101.527 25.5253 105.687C23.5748 105.77 21.7002 105.857 19.9075 105.947C19.9953 101.872 20.1285 97.8151 20.3071 93.7905Z" fill="#171619"/>
<path d="M10.6032 94.9399C12.0395 94.7353 13.5695 94.5366 15.1889 94.3453C15.0118 98.2798 14.8763 102.245 14.7885 106.226C13.1692 106.323 11.6391 106.423 10.2051 106.527C10.2944 102.645 10.4261 98.7784 10.6032 94.9399Z" fill="#171619"/>
<path d="M3.17476 96.2529C4.20768 96.02 5.3448 95.7945 6.58535 95.5757C6.41344 99.3115 6.28396 103.073 6.19837 106.847C4.96377 106.958 3.83261 107.072 2.80713 107.189C2.88899 103.528 3.01103 99.8786 3.17476 96.2529Z" fill="#171619"/>
<path d="M0.0676466 107.552C0.143553 104.011 0.258157 100.481 0.410715 96.9715C0.233599 97.0251 0.0639254 97.0794 -0.103516 97.133L-0.103516 107.579C-0.0469577 107.57 0.0103445 107.561 0.0676466 107.552Z" fill="#171619"/>
<path d="M39.0651 79.7902C41.2813 79.5886 43.5578 79.3981 45.8893 79.2165C45.6646 83.4315 45.4778 87.7076 45.3297 92.0239C42.9825 92.1467 40.6919 92.2762 38.4653 92.4131C38.6253 88.1593 38.8255 83.945 39.0651 79.7902Z" fill="#171619"/>
<path d="M26.5682 81.1165C28.5112 80.8747 30.5265 80.644 32.6132 80.423C32.3594 84.513 32.1495 88.6596 31.9821 92.8434C29.8887 92.9937 27.8653 93.1507 25.9163 93.3145C26.0897 89.2073 26.307 85.1351 26.5682 81.1165Z" fill="#171619"/>
<path d="M15.857 82.6845C17.4763 82.4025 19.1835 82.1316 20.9703 81.8712C20.7039 85.8116 20.4828 89.8019 20.3057 93.8265C18.5152 94.0043 16.8081 94.1881 15.1887 94.3794C15.3658 90.4449 15.5883 86.5417 15.857 82.6845Z" fill="#171619"/>
<path d="M7.22892 84.4938C8.47692 84.1723 9.82389 83.8605 11.2639 83.5591C10.999 87.3254 10.7779 91.1356 10.6008 94.9741C9.16455 95.1787 7.82353 95.3908 6.58521 95.6089C6.75637 91.8738 6.96995 88.1641 7.22892 84.4938Z" fill="#171619"/>
<path d="M0.980224 86.5447C1.80701 86.183 2.74468 85.831 3.78877 85.4894C3.54245 89.0563 3.33929 92.6589 3.17482 96.2853C2.14264 96.5175 1.21836 96.7564 0.408691 97.002C0.561249 93.4924 0.75176 90.0029 0.980224 86.5447Z" fill="#171619"/>
<path d="M46.6721 66.8109C48.985 66.5765 51.353 66.3532 53.7686 66.1456C53.4947 70.2669 53.2529 74.473 53.0467 78.7402C50.6103 78.9024 48.2215 79.0721 45.8877 79.2529C46.1124 75.0386 46.3729 70.8838 46.6721 66.8109Z" fill="#171619"/>
<path d="M33.491 68.3732C35.5635 68.0852 37.703 67.8128 39.9014 67.5523C39.5814 71.5717 39.303 75.6699 39.0634 79.8269C36.8472 80.0264 34.6951 80.2385 32.6106 80.4595C32.8621 76.3687 33.1553 72.3337 33.491 68.3732Z" fill="#171619"/>
<path d="M21.9005 70.2476C23.6835 69.9083 25.5447 69.5831 27.4781 69.2705C27.1313 73.1663 26.827 77.1328 26.5658 81.1522C24.6242 81.3925 22.7555 81.6441 20.9688 81.9053C21.2352 77.9633 21.5455 74.0727 21.9005 70.2476Z" fill="#171619"/>
<path d="M12.1882 72.4347C13.6357 72.044 15.1716 71.6667 16.7925 71.3028C16.4345 75.0505 16.122 78.8608 15.8556 82.7186C14.234 82.9984 12.7024 83.2909 11.2625 83.5923C11.5266 79.8245 11.8355 76.1021 12.1882 72.4347Z" fill="#171619"/>
<path d="M4.64591 74.9345C5.70711 74.4924 6.86879 74.0616 8.12794 73.6463C7.78339 77.2243 7.48423 80.8552 7.22525 84.5263C5.97725 84.8478 4.82823 85.1789 3.78638 85.5205C4.03196 81.9529 4.31772 78.4203 4.64591 74.9345Z" fill="#171619"/>
<path d="M0.978527 86.5752C1.20699 83.1169 1.47192 79.6892 1.77629 76.3025C1.07527 76.6887 0.448668 77.0853 -0.103516 77.4909L-0.103516 87.0864C0.2336 86.9138 0.593784 86.7434 0.978527 86.5752Z" fill="#171619"/>
<path d="M40.9763 55.7799C43.156 55.4659 45.39 55.169 47.6784 54.8869C47.3048 58.779 46.9699 62.7723 46.6708 66.8452C44.3556 67.0796 42.0985 67.3274 39.8979 67.5879C40.2179 63.5663 40.5781 59.6244 40.9763 55.7799Z" fill="#171619"/>
<path d="M28.6504 57.8477C30.5741 57.4727 32.5655 57.1125 34.6225 56.7672C34.202 60.5603 33.8247 64.4471 33.4891 68.4077C31.4165 68.6935 29.4102 68.9926 27.4768 69.3052C27.8236 65.4094 28.2158 61.5835 28.6504 57.8477Z" fill="#171619"/>
<path d="M17.9929 60.2915C19.616 59.8517 21.3172 59.429 23.0965 59.0227C22.653 62.6982 22.2526 66.4571 21.8984 70.2822C20.1153 70.6193 18.4104 70.972 16.7888 71.3359C17.1453 67.5867 17.5471 63.9001 17.9929 60.2915Z" fill="#171619"/>
<path d="M9.28445 63.1108C10.5592 62.61 11.9248 62.124 13.3789 61.6537C12.9369 65.1916 12.5388 68.7994 12.186 72.4667C10.7401 72.8574 9.38343 73.2615 8.12427 73.6768C8.46957 70.0987 8.85431 66.5728 9.28445 63.1108Z" fill="#171619"/>
<path d="M2.80163 66.3059C3.68126 65.7425 4.66432 65.1933 5.74637 64.662C5.3393 68.0421 4.96944 71.4802 4.642 74.9667C3.58228 75.4087 2.62452 75.8642 1.77466 76.333C2.07903 72.9455 2.42061 69.6004 2.80163 66.3059Z" fill="#171619"/>
<path d="M0.481413 68.0455C0.277506 68.2278 0.0810417 68.4146 -0.103516 68.6014L-0.103516 73.9111C0.0788094 71.9413 0.273785 69.9848 0.481413 68.0455Z" fill="#171619"/>
<path d="M48.9091 43.5689C51.1662 43.2451 53.474 42.9423 55.8248 42.6543C55.4133 46.3581 55.0338 50.1891 54.6907 54.1229C52.3041 54.3729 49.9644 54.6393 47.676 54.9214C48.0496 51.0293 48.4611 47.2377 48.9091 43.5689Z" fill="#171619"/>
<path d="M36.0033 45.7159C38.0402 45.3215 40.138 44.9464 42.2902 44.5878C41.8124 48.2194 41.3719 51.9686 40.9737 55.813C38.7948 56.1271 36.6738 56.4552 34.6184 56.7998C35.0374 53.0067 35.5003 49.3051 36.0033 45.7159Z" fill="#171619"/>
<path d="M24.5556 48.2935C26.3275 47.8284 28.1716 47.3804 30.0826 46.9503C29.5602 50.4933 29.0802 54.1436 28.6464 57.8794C26.7241 58.2552 24.8704 58.6474 23.0925 59.0552C23.5368 55.3782 24.0242 51.7852 24.5556 48.2935Z" fill="#171619"/>
<path d="M14.8321 51.3017C16.2937 50.7644 17.8401 50.2442 19.4617 49.7434C18.9259 53.1823 18.4369 56.7142 17.9889 60.322C16.3674 60.7603 14.8284 61.2157 13.375 61.6846C13.817 58.1467 14.3023 54.6811 14.8321 51.3017Z" fill="#171619"/>
<path d="M7.09333 54.738C8.2044 54.1285 9.40626 53.5376 10.6982 52.9661C10.1839 56.2829 9.71137 59.6801 9.28049 63.1413C8.00645 63.6421 6.82692 64.1586 5.74487 64.6899C6.15269 61.3106 6.60366 57.9901 7.09333 54.738Z" fill="#171619"/>
<path d="M1.61115 58.6055C2.32185 57.9253 3.13896 57.2622 4.05356 56.6185C3.59812 59.7977 3.17915 63.0408 2.79812 66.3346C1.91924 66.8987 1.1438 67.4776 0.479248 68.0737C0.822317 64.8693 1.19962 61.711 1.61115 58.6055Z" fill="#171619"/>
<path d="M43.8437 34.0921C45.9661 33.7 48.1414 33.3264 50.3627 32.9744C49.8388 36.3805 49.3529 39.9295 48.9056 43.5991C46.6478 43.9228 44.4398 44.2622 42.2869 44.6201C42.7654 40.987 43.2856 37.4722 43.8437 34.0921Z" fill="#171619"/>
<path d="M31.7729 36.6874C33.6683 36.2148 35.6226 35.7631 37.6363 35.3307C37.0499 38.6803 36.5029 42.1571 35.9999 45.7478C33.9638 46.1407 31.988 46.5523 30.0769 46.9824C30.5993 43.4394 31.1649 40.0005 31.7729 36.6874Z" fill="#171619"/>
<path d="M21.1994 39.7527C22.8225 39.2021 24.5199 38.6729 26.2837 38.1617C25.6608 41.4391 25.0855 44.8318 24.5519 48.3243C22.78 48.7909 21.0811 49.2723 19.458 49.7739C19.9931 46.3351 20.5721 42.9899 21.1994 39.7527Z" fill="#171619"/>
<path d="M12.369 43.2902C13.6817 42.6614 15.0763 42.0519 16.5506 41.461C15.9314 44.6565 15.3561 47.9503 14.8263 51.3296C13.3655 51.8669 11.9843 52.4214 10.6946 52.9951C11.2088 49.6761 11.7669 46.4374 12.369 43.2902Z" fill="#171619"/>
<path d="M5.53396 47.2986C6.49396 46.5901 7.54549 45.9025 8.68632 45.2357C8.1133 48.333 7.58196 51.5151 7.09005 54.7664C5.98122 55.3744 4.96615 56.001 4.04932 56.6455C4.50699 53.4634 5.00187 50.3452 5.53396 47.2986Z" fill="#171619"/>
<path d="M2.94243 49.4794C2.17666 50.2266 1.50764 50.9923 0.944295 51.7774C0.570715 54.4252 0.221693 57.1132 -0.103516 59.8362L-0.103516 60.5767C0.372762 59.9121 0.944295 59.2647 1.60736 58.6321C2.01666 55.5244 2.46243 52.471 2.94243 49.4794Z" fill="#171619"/>
<path d="M39.5206 25.7256C41.5075 25.2665 43.5481 24.8282 45.6363 24.4129C44.9978 27.499 44.3979 30.7437 43.8398 34.123C41.7174 34.5159 39.6463 34.929 37.6326 35.3613C38.2197 32.0125 38.8501 28.7947 39.5206 25.7256Z" fill="#171619"/>
<path d="M28.2745 28.7242C30.0315 28.1831 31.8488 27.6615 33.7256 27.1621C33.0283 30.2125 32.3764 33.4014 31.7669 36.7159C29.873 37.1885 28.0423 37.6804 26.2786 38.1909C26.8992 34.912 27.5645 31.7515 28.2745 28.7242Z" fill="#171619"/>
<path d="M18.5321 32.2237C20.0175 31.5985 21.5744 30.995 23.2012 30.4116C22.4867 33.4144 21.8162 36.5444 21.1933 39.7808C19.5681 40.3315 18.0172 40.9016 16.5444 41.4902C17.1621 38.2955 17.8252 35.2011 18.5321 32.2237Z" fill="#171619"/>
<path d="M10.523 36.2224C11.7003 35.5139 12.9602 34.8263 14.2975 34.161C13.6099 37.1124 12.9654 40.1702 12.3634 43.3174C11.0506 43.9462 9.82199 44.5937 8.68115 45.2627C9.25417 42.1624 9.86813 39.1448 10.523 36.2224Z" fill="#171619"/>
<path d="M4.48017 40.722C5.31068 39.9295 6.23272 39.16 7.24258 38.4091C6.63309 41.301 6.06305 44.277 5.53021 47.3252C4.5717 48.0321 3.70473 48.76 2.93896 49.5049C3.41896 46.514 3.93171 43.5819 4.48017 40.722Z" fill="#171619"/>
<path d="M0.940574 51.8048C1.3536 48.8705 1.79564 45.9861 2.2682 43.1589C1.62597 43.9917 1.07899 44.8452 0.635458 45.7219C0.377971 47.6039 0.132391 49.509 -0.103516 51.4313L-0.103516 53.5098C0.191181 52.9308 0.537971 52.363 0.940574 51.8048Z" fill="#171619"/>
<path d="M47.667 15.6603C49.715 15.2339 51.8083 14.8283 53.9404 14.4428C53.2677 17.2038 52.6314 20.147 52.0353 23.2525C49.8541 23.6275 47.7183 24.022 45.6301 24.4395C46.2686 21.3511 46.9488 18.4175 47.667 15.6603Z" fill="#171619"/>
<path d="M35.9374 18.48C37.7927 17.9673 39.7 17.4761 41.6565 17.0058C40.9004 19.76 40.1875 22.681 39.5147 25.7522C37.5277 26.2091 35.5944 26.6891 33.7175 27.1885C34.4148 24.1381 35.1545 21.2291 35.9374 18.48Z" fill="#171619"/>
<path d="M25.4703 21.8127C27.0971 21.2143 28.7871 20.6369 30.5322 20.0809C29.7337 22.8255 28.9776 25.7219 28.2692 28.7507C26.5122 29.2917 24.8206 29.8536 23.1938 30.437C23.9083 27.4327 24.6666 24.552 25.4703 21.8127Z" fill="#171619"/>
<path d="M16.4799 25.6547C17.844 24.973 19.2788 24.31 20.7783 23.67C19.9836 26.4056 19.2334 29.2685 18.5264 32.2482C17.0403 32.8733 15.6271 33.5192 14.2891 34.186C14.9774 31.2331 15.7067 28.3851 16.4799 25.6547Z" fill="#171619"/>
<path d="M9.17815 30.0119C10.2408 29.2439 11.3861 28.4953 12.6051 27.7697C11.8684 30.4934 11.1726 33.325 10.5177 36.2474C9.34038 36.9559 8.24494 37.6852 7.23657 38.4346C7.84457 35.5419 8.49201 32.7304 9.17815 30.0119Z" fill="#171619"/>
<path d="M3.77138 34.8812C4.50068 34.0276 5.32002 33.1956 6.22272 32.3837C5.60579 35.0948 5.02458 37.8855 4.47612 40.7469C3.64561 41.5379 2.90589 42.3513 2.2644 43.1841C2.73696 40.3569 3.23928 37.5863 3.77138 34.8812Z" fill="#171619"/>
<path d="M1.8455 37.5081C1.29257 38.4056 0.833411 39.3239 0.471738 40.2653C0.273785 42.0156 0.0810418 43.7816 -0.103516 45.5617L-0.103516 47.4683C0.0981582 46.8856 0.343739 46.3103 0.631738 45.744C1.01276 42.9533 1.41685 40.2058 1.8455 37.5081Z" fill="#171619"/>
<path d="M44.0439 9.2863C45.9662 8.82118 47.9315 8.3769 49.9364 7.95421C49.1379 10.343 48.3795 12.9268 47.6614 15.6855C45.6112 16.112 43.6071 16.5599 41.6506 17.0303C42.4052 14.2753 43.2037 11.6885 44.0439 9.2863Z" fill="#171619"/>
<path d="M33.0541 12.3325C34.7903 11.7818 36.5749 11.2541 38.4078 10.7459C37.5371 13.1615 36.7125 15.752 35.9289 18.5032C34.0737 19.0152 32.2713 19.5511 30.5247 20.1055C31.3247 17.3602 32.1663 14.7637 33.0541 12.3325Z" fill="#171619"/>
<path d="M23.2891 15.8874C24.8035 15.2511 26.3774 14.6379 28.0079 14.047C27.1142 16.4931 26.2665 19.0933 25.4628 21.8349C23.836 22.4332 22.2718 23.0524 20.7708 23.6924C21.567 20.9568 22.405 18.3506 23.2891 15.8874Z" fill="#171619"/>
<path d="M14.9314 19.947C16.1965 19.2289 17.5279 18.5316 18.9225 17.8536C18.0637 20.3362 17.2466 22.9498 16.4749 25.6795C15.1108 26.3634 13.8174 27.0689 12.5977 27.7944C13.3351 25.07 14.1121 22.4505 14.9314 19.947Z" fill="#171619"/>
<path d="M8.17151 24.5176C9.15458 23.7132 10.2121 22.9303 11.3402 22.1683C10.5782 24.6925 9.8556 27.318 9.17021 30.0365C8.10528 30.806 7.11998 31.5948 6.21729 32.4067C6.83421 29.6957 7.48612 27.0628 8.17151 24.5176Z" fill="#171619"/>
<path d="M3.19622 29.5947C3.86673 28.7054 4.6191 27.8385 5.44961 26.9923C4.85873 29.5605 4.29687 32.2009 3.76552 34.906C3.03399 35.7596 2.39176 36.6362 1.84106 37.5337C2.26823 34.836 2.72143 32.1875 3.19622 29.5947Z" fill="#171619"/>
<path d="M1.43769 32.3224C0.93462 33.2541 0.519366 34.2045 0.195646 35.1786C0.0922044 36.6677 -0.00677182 38.1613 -0.103516 39.6631L-0.103516 42.1055C0.0482978 41.4915 0.238809 40.8858 0.469506 40.2874C0.774621 37.5979 1.09611 34.942 1.43769 32.3224Z" fill="#171619"/>
<path d="M52.4448 1.40842C54.4012 1.00656 56.3919 0.623307 58.4116 0.261634C57.5908 2.21437 56.8057 4.38962 56.0585 6.76952C53.9785 7.15054 51.9343 7.5524 49.9302 7.9751C50.7287 5.58404 51.5666 3.38944 52.4448 1.40842Z" fill="#171619"/>
<path d="M41.1397 4.06818C42.9481 3.58372 44.7959 3.12083 46.6802 2.6773C45.7559 4.68883 44.8755 6.90501 44.0353 9.30723C42.1131 9.77384 40.2333 10.2598 38.4004 10.7681C39.2689 8.35096 40.1835 6.11245 41.1397 4.06818Z" fill="#171619"/>
<path d="M30.8105 7.20799C32.4433 6.64538 34.1214 6.10064 35.8434 5.57673C34.8663 7.65896 33.9346 9.92277 33.0468 12.3533C31.3114 12.904 29.6295 13.4755 28.0005 14.0679C28.892 11.6203 29.8289 9.32965 30.8105 7.20799Z" fill="#171619"/>
<path d="M21.6201 10.8328C23.0475 10.189 24.5292 9.56393 26.0629 8.9604C25.0918 11.1223 24.1638 13.4426 23.2819 15.9081C21.7653 16.5429 20.3096 17.1978 18.915 17.8765C19.7723 15.3916 20.6758 13.0408 21.6201 10.8328Z" fill="#171619"/>
<path d="M13.7308 14.9408C14.9274 14.2167 16.1866 13.512 17.503 12.8259C16.6018 15.0837 15.7431 17.4666 14.9237 19.97C13.6586 20.6904 12.4605 21.4294 11.3323 22.1914C12.0943 19.6694 12.8928 17.2478 13.7308 14.9408Z" fill="#171619"/>
<path d="M7.30332 19.5316C8.24471 18.7257 9.25234 17.9413 10.3247 17.1755C9.5701 19.5376 8.85048 21.9934 8.16434 24.54C7.1835 25.3444 6.27486 26.169 5.4436 27.0151C6.03449 24.447 6.65365 21.9495 7.30332 19.5316Z" fill="#171619"/>
<path d="M2.50422 24.6069C3.15984 23.7214 3.88914 22.8544 4.69137 22.0082C4.16747 24.4849 3.66812 27.0248 3.19184 29.6175C2.52357 30.5053 1.93492 31.4162 1.43408 32.3457C1.77269 29.7277 2.13138 27.1468 2.50422 24.6069Z" fill="#171619"/>
<path d="M0.193414 35.2012C0.37425 32.5571 0.564761 29.9302 0.764946 27.3255C0.442715 27.9164 0.153228 28.5162 -0.103516 29.1242L-0.103516 36.1865C-0.0142136 35.8569 0.0847629 35.5272 0.193414 35.2012Z" fill="#171619"/>
<path d="M52.4373 1.42794C52.6866 0.863852 52.9381 0.31911 53.1956 -0.208516L48.1106 -0.208516C47.621 0.705342 47.141 1.67352 46.6721 2.69678C48.5586 2.2525 50.4809 1.8298 52.4373 1.42794Z" fill="#171619"/>
<path d="M35.834 5.59619C37.5583 5.07229 39.3242 4.56922 41.1326 4.0855C41.8544 2.54057 42.6016 1.10728 43.3726 -0.208442L39.3458 -0.208441C39.197 -0.166767 39.0466 -0.126581 38.8978 -0.0849068C37.8329 1.61406 36.8118 3.51397 35.834 5.59619Z" fill="#171619"/>
<path d="M29.1014 2.97642C30.6545 2.42944 32.2493 1.90182 33.8813 1.39131C32.8111 3.15502 31.7841 5.10627 30.8033 7.22645C29.1721 7.79054 27.587 8.37547 26.0554 8.979C27.0273 6.81492 28.0424 4.80934 29.1014 2.97642Z" fill="#171619"/>
<path d="M20.3193 6.47647C21.6908 5.85507 23.11 5.25526 24.5753 4.67182C23.5446 6.57916 22.5578 8.64427 21.6127 10.8523C20.1839 11.496 18.8101 12.1613 17.4937 12.8467C18.3949 10.5896 19.3363 8.46344 20.3193 6.47647Z" fill="#171619"/>
<path d="M12.6817 10.4123C13.8515 9.71873 15.0742 9.04376 16.349 8.38887C15.4344 10.4599 14.56 12.6545 13.7235 14.9615C12.5254 15.6856 11.3898 16.432 10.3174 17.1963C11.072 14.8357 11.8586 12.5704 12.6817 10.4123Z" fill="#171619"/>
<path d="M6.32598 14.7859C7.27035 14.0201 8.275 13.2737 9.33546 12.5437C8.627 14.7956 7.94682 17.1353 7.29714 19.5524C6.35798 20.3583 5.4858 21.1851 4.68506 22.0312C5.20896 19.5524 5.75594 17.1368 6.32598 14.7859Z" fill="#171619"/>
<path d="M1.38781 19.5965C2.08511 18.7585 2.84715 17.9392 3.67245 17.1369C3.26464 19.5913 2.87394 22.0887 2.50036 24.6279C1.84548 25.5157 1.26428 26.4206 0.762695 27.3486C0.961392 24.7425 1.17051 22.1587 1.38781 19.5965Z" fill="#171619"/>
<path d="M33.8721 1.40625C35.5063 0.89574 37.1792 0.404579 38.8879 -0.0702107C38.9169 -0.117838 38.9474 -0.163234 38.9757 -0.208629L34.899 -0.208629C34.5523 0.310811 34.2107 0.850345 33.8721 1.40625Z" fill="#171619"/>
<path d="M24.5676 4.6875C26.0307 4.10406 27.5414 3.54071 29.0923 2.99374C29.7471 1.85811 30.4199 0.791698 31.1097 -0.208485L27.5466 -0.208485C26.5166 1.28063 25.5239 2.91709 24.5676 4.6875Z" fill="#171619"/>
<path d="M19.1948 2.5748C20.5514 2.02411 21.946 1.48681 23.3808 0.964388C22.3159 2.65815 21.2926 4.5067 20.3095 6.49367C18.938 7.11283 17.6141 7.7506 16.3416 8.40771C17.2539 6.3374 18.2042 4.38838 19.1948 2.5748Z" fill="#171619"/>
<path d="M11.5438 6.07219C12.7345 5.45899 13.9691 4.86066 15.2438 4.27722C14.3538 6.21657 13.4965 8.27051 12.6742 10.4309C11.5058 11.1245 10.3895 11.8352 9.33057 12.5645C10.0375 10.3111 10.7765 8.14475 11.5438 6.07219Z" fill="#171619"/>
<path d="M4.94127 9.93616C5.94889 9.26118 7.00414 8.60258 8.10554 7.95812C7.48638 10.1698 6.89177 12.456 6.32247 14.8068C5.37736 15.5733 4.49104 16.3562 3.66797 17.1577C4.07578 14.7041 4.50071 12.296 4.94127 9.93616Z" fill="#171619"/>
<path d="M1.38634 19.6196C1.6029 17.0589 1.82987 14.5197 2.06578 12.0066C1.3082 12.5952 0.58411 13.1958 -0.103516 13.8053L-0.103516 21.5835C0.355646 20.9189 0.850528 20.2633 1.38634 19.6196Z" fill="#171619"/>
<path d="M26.777 -0.208481L24.1403 -0.208481C23.8814 0.179983 23.6239 0.5744 23.3708 0.97998C24.4834 0.5744 25.619 0.17775 26.777 -0.208481Z" fill="#171619"/>
<path d="M19.1855 2.59174C19.7146 1.61835 20.2556 0.684398 20.8085 -0.208622L17.4798 -0.208622C16.7088 1.21426 15.9617 2.71528 15.2361 4.29443C16.5124 3.71174 17.8288 3.14393 19.1855 2.59174Z" fill="#171619"/>
<path d="M10.0256 1.55895C11.2966 1.08119 12.5975 0.613841 13.9295 0.159145C13.1028 2.03746 12.3042 4.01699 11.5362 6.08954C10.3478 6.70498 9.201 7.33382 8.09961 7.97754C8.71877 5.76359 9.361 3.62258 10.0256 1.55895Z" fill="#171619"/>
<path d="M2.79822 4.56513C3.93533 4.04123 5.10891 3.52849 6.313 3.02765C5.83821 5.2855 5.37905 7.59768 4.937 9.95675C3.93161 10.6325 2.9731 11.3223 2.06445 12.0293C2.30036 9.5147 2.54445 7.02615 2.79822 4.56513Z" fill="#171619"/>
<path d="M15.0555 -0.208682L14.0911 -0.208682C14.036 -0.0814269 13.9787 0.0465729 13.9214 0.173828C14.2972 0.0465728 14.6745 -0.0814269 15.0555 -0.208682Z" fill="#171619"/>
<path d="M10.0196 1.57609C10.2146 0.974044 10.4103 0.380185 10.609 -0.208464L7.01382 -0.208464C6.77569 0.863905 6.53903 1.94967 6.30908 3.04883C7.51317 2.54576 8.75149 2.05609 10.0196 1.57609Z" fill="#171619"/>
<path d="M-0.103516 5.98828C0.837133 5.512 1.80308 5.0454 2.79582 4.58847C2.96327 2.97657 3.13294 1.37806 3.30633 -0.208537L-0.103516 -0.208537L-0.103516 5.98828Z" fill="#171619"/>
</g>
<rect x="0.5" y="0.5" width="49" height="139" stroke="black"/>
<g clip-path="url(#clip2_535_51067)">
<path d="M89.8413 131.934C92.6112 131.961 95.4078 131.985 98.2238 132.006C98.2521 136.63 98.296 141.232 98.3533 145.787C95.5507 145.746 92.7674 145.698 90.011 145.643C89.9343 141.112 89.8778 136.534 89.8413 131.934Z" fill="#171619"/>
<path d="M73.5732 131.727C76.2158 131.768 78.8964 131.806 81.6112 131.841C81.6566 136.41 81.725 140.957 81.8188 145.459C79.1174 145.391 76.448 145.315 73.8173 145.233C73.7087 140.768 73.6268 136.259 73.5732 131.727Z" fill="#171619"/>
<path d="M58.2261 131.437C60.6893 131.492 63.2062 131.543 65.7647 131.591C65.8272 136.079 65.9187 140.544 66.0445 144.966C63.4934 144.871 60.99 144.768 58.5342 144.658C58.3972 140.286 58.2945 135.872 58.2261 131.437Z" fill="#171619"/>
<path d="M98.1821 118.127C101.003 118.127 103.842 118.127 106.694 118.127C106.694 122.792 106.703 127.458 106.722 132.099C103.876 132.085 101.041 132.068 98.2238 132.047C98.1955 127.423 98.1821 122.775 98.1821 118.127Z" fill="#171619"/>
<path d="M81.5427 118.128C84.259 118.128 87.008 118.128 89.7838 118.128C89.7838 122.751 89.8032 127.374 89.8411 131.974C87.069 131.947 84.3237 131.915 81.6112 131.881C81.565 127.311 81.5427 122.719 81.5427 118.128Z" fill="#171619"/>
<path d="M65.6731 118.128C68.2353 118.128 70.8452 118.128 73.4915 118.128C73.4915 122.682 73.5183 127.235 73.5734 131.767C70.9293 131.725 68.3246 131.68 65.7661 131.631C65.7036 127.144 65.6731 122.636 65.6731 118.128Z" fill="#171619"/>
<path d="M50.8828 118.129C53.2396 118.129 55.6553 118.129 58.1222 118.128C58.1222 122.585 58.1572 127.04 58.2257 131.476C55.7624 131.421 53.3505 131.361 50.9937 131.299C50.9193 126.923 50.8828 122.525 50.8828 118.129Z" fill="#171619"/>
<path d="M89.8412 104.322C92.6111 104.294 95.4077 104.27 98.2237 104.249C98.1954 108.873 98.182 113.521 98.182 118.168C95.3601 118.168 92.5597 118.168 89.7839 118.168C89.7839 113.545 89.8033 108.921 89.8412 104.322Z" fill="#171619"/>
<path d="M73.5736 104.529C76.2162 104.488 78.8982 104.45 81.6115 104.415C81.5653 108.984 81.543 113.576 81.543 118.168C78.8238 118.168 76.138 118.168 73.4917 118.168C73.4917 113.614 73.5185 109.061 73.5736 104.529Z" fill="#171619"/>
<path d="M58.226 104.82C60.6907 104.764 63.2061 104.712 65.7661 104.664C65.7036 109.15 65.673 113.659 65.673 118.167C63.1086 118.167 60.5903 118.167 58.1226 118.167C58.1226 113.711 58.1575 109.255 58.226 104.82Z" fill="#171619"/>
<path d="M98.3531 90.5088C101.156 90.4678 103.975 90.4328 106.81 90.4061C106.772 94.9776 106.742 99.596 106.722 104.237C103.876 104.251 101.04 104.269 98.2236 104.29C98.2519 99.6644 98.2958 95.0632 98.3531 90.5088Z" fill="#171619"/>
<path d="M81.819 90.8373C84.5203 90.7688 87.2522 90.707 90.0109 90.6527C89.9343 95.184 89.8777 99.7615 89.8413 104.362C87.0692 104.39 84.3239 104.421 81.6113 104.455C81.6567 99.8858 81.7252 95.3388 81.819 90.8373Z" fill="#171619"/>
<path d="M66.0445 91.3291C68.5918 91.2339 71.186 91.1446 73.8175 91.0627C73.7088 95.5278 73.6269 100.038 73.5734 104.569C70.9293 104.611 68.3246 104.655 65.7646 104.704C65.8272 100.217 65.9187 95.7518 66.0445 91.3291Z" fill="#171619"/>
<path d="M51.3313 91.9864C53.6762 91.8628 56.0806 91.7468 58.5342 91.6374C58.3973 96.0094 58.2946 100.424 58.2261 104.859C55.7629 104.914 53.3487 104.973 50.9941 105.036C51.0686 100.658 51.1809 96.3019 51.3313 91.9864Z" fill="#171619"/>
<path d="M90.2906 77.2564C93.0262 77.1768 95.7871 77.1061 98.5667 77.0451C98.4811 81.4841 98.4081 85.9931 98.3508 90.5483C95.5505 90.5892 92.7672 90.6376 90.0085 90.6919C90.0852 86.1598 90.1782 81.6746 90.2906 77.2564Z" fill="#171619"/>
<path d="M74.223 77.8586C76.835 77.7387 79.4851 77.6279 82.1634 77.5274C82.0265 81.9166 81.9104 86.3743 81.8188 90.8766C79.1175 90.945 76.4481 91.0202 73.8174 91.1021C73.9238 86.6362 74.0607 82.2158 74.223 77.8586Z" fill="#171619"/>
<path d="M59.0489 78.7047C61.4869 78.5424 63.9754 78.3921 66.5071 78.2515C66.3203 82.5662 66.1663 86.9457 66.042 91.3677C63.4932 91.4637 60.9883 91.5664 58.5339 91.6758C58.6716 87.303 58.8428 82.9718 59.0489 78.7047Z" fill="#171619"/>
<path d="M98.8658 63.9975C101.613 63.9194 104.377 63.8546 107.155 63.8033C107.076 68.0935 107.01 72.479 106.953 76.9351C104.143 76.9746 101.344 77.0244 98.5645 77.0854C98.65 72.6442 98.7512 68.2743 98.8658 63.9975Z" fill="#171619"/>
<path d="M82.6493 64.6216C85.2993 64.4921 87.9799 64.3745 90.685 64.2711C90.5347 68.5293 90.4029 72.8768 90.2906 77.2943C87.5549 77.3746 84.8439 77.4662 82.1633 77.5674C82.3025 73.176 82.4625 68.8552 82.6493 64.6216Z" fill="#171619"/>
<path d="M67.1548 65.5595C69.6605 65.3787 72.2093 65.209 74.7924 65.0528C74.5758 69.2537 74.3853 73.5417 74.2231 77.8989C71.611 78.0187 69.0354 78.1482 66.5051 78.2896C66.6904 73.974 66.9077 69.724 67.1548 65.5595Z" fill="#171619"/>
<path d="M52.6721 66.8109C54.985 66.5765 57.353 66.3532 59.7686 66.1456C59.4947 70.2669 59.2529 74.473 59.0467 78.7402C56.6103 78.9024 54.2215 79.0721 51.8877 79.2529C52.1124 75.0386 52.3729 70.8838 52.6721 66.8109Z" fill="#171619"/>
<path d="M91.1896 51.8329C93.8553 51.7071 96.5433 51.597 99.2484 51.5032C99.1078 55.5724 98.9783 59.7584 98.8637 64.0352C96.1169 64.1134 93.3887 64.2049 90.6829 64.3076C90.8339 60.0494 91.0036 55.8835 91.1896 51.8329Z" fill="#171619"/>
<path d="M75.5245 52.7724C78.0749 52.5841 80.6587 52.4122 83.27 52.2559C83.04 56.2857 82.8324 60.427 82.6471 64.6607C79.9956 64.7902 77.3761 64.9331 74.7908 65.0894C75.0081 60.8884 75.2537 56.7753 75.5245 52.7724Z" fill="#171619"/>
<path d="M60.6943 54.0884C63.0817 53.8369 65.5144 53.6024 67.9873 53.3837C67.6785 57.3539 67.4009 61.4327 67.1531 65.5972C64.646 65.778 62.1827 65.9745 59.7671 66.1821C60.0409 62.0594 60.3498 58.0207 60.6943 54.0884Z" fill="#171619"/>
<path d="M99.7194 39.7011C102.375 39.5924 105.045 39.5031 107.728 39.4324C107.614 43.256 107.507 47.2225 107.412 51.3029C104.676 51.3662 101.953 51.4443 99.2483 51.5396C99.3912 47.4681 99.5475 43.515 99.7194 39.7011Z" fill="#171619"/>
<path d="M84.0306 40.561C86.5988 40.3816 89.1937 40.2194 91.8088 40.0765C91.5826 43.877 91.3764 47.8153 91.1882 51.8673C88.5247 51.9931 85.8821 52.1345 83.2686 52.29C83.4993 48.261 83.7545 44.3422 84.0306 40.561Z" fill="#171619"/>
<path d="M69.0069 41.8481C71.4411 41.5988 73.914 41.3659 76.4197 41.1508C76.0937 44.9119 75.7946 48.804 75.5222 52.8062C72.9734 52.9953 70.458 53.1992 67.9858 53.418C68.2939 49.4455 68.6355 45.5825 69.0069 41.8481Z" fill="#171619"/>
<path d="M54.9091 43.5689C57.1662 43.2451 59.474 42.9423 61.8248 42.6543C61.4133 46.3581 61.0338 50.1891 60.6907 54.1229C58.3041 54.3729 55.9644 54.6393 53.676 54.9214C54.0496 51.0293 54.4611 47.2377 54.9091 43.5689Z" fill="#171619"/>
<path d="M92.5404 29.1411C95.0996 28.9848 97.679 28.8479 100.273 28.7296C100.074 32.2428 99.8885 35.9191 99.7173 39.7331C97.0613 39.8417 94.4232 39.9675 91.8074 40.1104C92.0321 36.3083 92.2762 32.6447 92.5404 29.1411Z" fill="#171619"/>
<path d="M77.4772 30.3207C79.9323 30.0841 82.4186 29.869 84.9295 29.6726C84.6057 33.1628 84.3066 36.8108 84.0282 40.5927C81.4623 40.7721 78.9231 40.97 76.4175 41.1836C76.7434 37.4225 77.0962 33.7953 77.4772 30.3207Z" fill="#171619"/>
<path d="M63.1621 31.972C65.4705 31.658 67.8214 31.3625 70.211 31.0864C69.7764 34.5417 69.3745 38.1465 69.0032 41.8823C66.5682 42.1324 64.1734 42.4003 61.8203 42.686C62.2341 38.983 62.6798 35.4035 63.1621 31.972Z" fill="#171619"/>
<path d="M49.8437 34.0921C51.9661 33.7 54.1414 33.3264 56.3627 32.9744C55.8388 36.3805 55.3529 39.9295 54.9056 43.5991C52.6478 43.9228 50.4398 44.2622 48.2869 44.6201C48.7654 40.987 49.2856 37.4722 49.8437 34.0921Z" fill="#171619"/>
<path d="M100.914 18.7257C103.442 18.5999 105.981 18.4972 108.532 18.4139C108.378 21.5856 108.235 24.9426 108.1 28.4648C105.478 28.543 102.868 28.6419 100.271 28.7603C100.472 25.2455 100.685 21.8922 100.914 18.7257Z" fill="#171619"/>
<path d="M85.9676 19.7259C88.416 19.5167 90.8904 19.3299 93.3826 19.164C93.0813 22.3245 92.8 25.6682 92.5365 29.1718C89.978 29.3295 87.4403 29.5067 84.928 29.7031C85.2517 26.2114 85.5985 22.879 85.9676 19.7259Z" fill="#171619"/>
<path d="M71.5996 21.2255C73.9312 20.9338 76.2992 20.6636 78.6962 20.4143C78.2616 23.5578 77.8538 26.8761 77.4727 30.3507C75.0177 30.5873 72.5939 30.8426 70.2073 31.1172C70.6396 27.6627 71.104 24.3578 71.5996 21.2255Z" fill="#171619"/>
<path d="M58.039 23.2258C60.218 22.8508 62.4416 22.4965 64.7032 22.1631C64.154 25.2813 63.6382 28.5676 63.1582 32.0005C60.8468 32.3153 58.58 32.6502 56.3586 33.0029C56.8803 29.5946 57.4407 26.3291 58.039 23.2258Z" fill="#171619"/>
<path d="M94.3391 10.2786C96.757 10.1074 99.1912 9.95858 101.64 9.82909C101.382 12.6034 101.14 15.5861 100.912 18.7548C98.386 18.8784 95.8729 19.025 93.3806 19.1909C93.6798 16.0281 93.9998 13.0507 94.3391 10.2786Z" fill="#171619"/>
<path d="M80.079 11.5593C82.4091 11.3041 84.7644 11.0674 87.1436 10.8539C86.7261 13.6259 86.3339 16.5997 85.964 19.7528C83.5142 19.9627 81.0889 20.1911 78.6926 20.4404C79.1265 17.297 79.5901 14.3292 80.079 11.5593Z" fill="#171619"/>
<path d="M66.45 13.3533C68.658 13.0124 70.9002 12.6924 73.173 12.3933C72.6148 15.1594 72.0895 18.1198 71.5938 21.252C69.2601 21.5438 66.9605 21.8556 64.6997 22.189C65.2482 19.0708 65.8331 16.1179 66.45 13.3533Z" fill="#171619"/>
<path d="M53.667 15.6603C55.715 15.2339 57.8083 14.8283 59.9404 14.4428C59.2677 17.2038 58.6314 20.147 58.0353 23.2525C55.8541 23.6275 53.7183 24.022 51.6301 24.4395C52.2686 21.3511 52.9488 18.4175 53.667 15.6603Z" fill="#171619"/>
<path d="M102.451 2.178C104.811 2.05224 107.185 1.94582 109.566 1.86173C109.374 4.194 109.191 6.75771 109.018 9.53352C106.549 9.61984 104.086 9.72626 101.637 9.85352C101.895 7.07994 102.166 4.514 102.451 2.178Z" fill="#171619"/>
<path d="M88.4564 3.19372C90.7559 2.98237 93.0725 2.79186 95.4063 2.62368C95.0305 4.96116 94.6748 7.52934 94.3354 10.3037C91.9176 10.4726 89.5176 10.6653 87.1399 10.8789C87.5551 8.10682 87.995 5.53864 88.4564 3.19372Z" fill="#171619"/>
<path d="M74.9317 4.71792C77.136 4.42025 79.3693 4.14639 81.6249 3.89262C81.0794 6.24201 80.5637 8.81391 80.0755 11.5838C77.744 11.8412 75.4407 12.1173 73.168 12.4165C73.7239 9.65037 74.3125 7.07624 74.9317 4.71792Z" fill="#171619"/>
<path d="M62.0644 6.74884C64.1452 6.36782 66.2579 6.00764 68.4049 5.67052C67.7172 8.03628 67.0638 10.6119 66.4462 13.378C64.2382 13.7196 62.0667 14.0835 59.9346 14.4683C60.6073 11.7059 61.318 9.12651 62.0644 6.74884Z" fill="#171619"/>
<path d="M50.0439 9.2863C51.9662 8.82118 53.9315 8.3769 55.9364 7.95421C55.1379 10.343 54.3795 12.9268 53.6614 15.6855C51.6112 16.112 49.6071 16.5599 47.6506 17.0303C48.4052 14.2753 49.2037 11.6885 50.0439 9.2863Z" fill="#171619"/>
<path d="M102.449 2.19879C102.55 1.36679 102.653 0.564561 102.759 -0.208646L95.8912 -0.208646C95.726 0.700003 95.5623 1.65033 95.4038 2.64307C97.7376 2.47563 100.087 2.32679 102.449 2.19879Z" fill="#171619"/>
<path d="M88.4525 3.21479C88.6884 2.01442 88.9325 0.871351 89.1818 -0.20846L82.6627 -0.208459C82.3048 1.07749 81.9558 2.45274 81.6187 3.91357C83.8743 3.65832 86.153 3.42613 88.4525 3.21479Z" fill="#171619"/>
<path d="M74.9264 4.73913C75.3908 2.965 75.8753 1.31365 76.3739 -0.208203L70.3482 -0.208203C69.6703 1.57635 69.0206 3.54844 68.3977 5.68945C70.5447 5.35234 72.7222 5.03457 74.9264 4.73913Z" fill="#171619"/>
<path d="M58.4448 1.40842C60.4012 1.00656 62.3919 0.623307 64.4116 0.261634C63.5908 2.21437 62.8057 4.38962 62.0585 6.76952C59.9785 7.15054 57.9343 7.5524 55.9302 7.9751C56.7287 5.58404 57.5666 3.38944 58.4448 1.40842Z" fill="#171619"/>
<path d="M67.2121 -0.208632L64.6134 -0.208632C64.5434 -0.0471439 64.475 0.115088 64.4058 0.278809C65.3338 0.111367 66.2714 -0.0508649 67.2121 -0.208632Z" fill="#171619"/>
<path d="M58.4373 1.42794C58.6866 0.863852 58.9381 0.31911 59.1956 -0.208516L54.1106 -0.208516C53.621 0.705342 53.141 1.67352 52.6721 2.69678C54.5586 2.2525 56.4809 1.8298 58.4373 1.42794Z" fill="#171619"/>
</g>
<rect x="54.5" y="0.5" width="49" height="139" stroke="black"/>
<g clip-path="url(#clip3_535_51067)">
<path d="M147.102 132.058C149.95 132.044 152.785 132.027 155.601 132.006C155.572 136.631 155.53 141.233 155.473 145.787C152.671 145.828 149.849 145.862 147.016 145.89C147.054 141.318 147.083 136.7 147.102 132.058Z" fill="#171619"/>
<path d="M129.912 132.099C132.787 132.099 135.66 132.096 138.527 132.089C138.517 136.741 138.502 141.369 138.483 145.951C135.631 145.964 132.772 145.971 129.912 145.971C129.912 141.386 129.912 136.754 129.912 132.099Z" fill="#171619"/>
<path d="M112.722 132.058C115.57 132.071 118.432 132.082 121.299 132.089C121.309 136.741 121.322 141.369 121.343 145.951C118.489 145.937 115.643 145.917 112.81 145.889C112.772 141.318 112.742 136.699 112.722 132.058Z" fill="#171619"/>
<path d="M155.644 118.127C158.464 118.127 161.265 118.127 164.04 118.128C164.04 122.751 164.023 127.373 163.985 131.974C161.213 132.001 158.417 132.026 155.601 132.047C155.629 127.423 155.644 122.775 155.644 118.127Z" fill="#171619"/>
<path d="M138.54 118.127C141.414 118.127 144.279 118.127 147.13 118.127C147.13 122.792 147.121 127.457 147.102 132.099C144.254 132.112 141.394 132.123 138.527 132.129C138.537 127.478 138.54 122.803 138.54 118.127Z" fill="#171619"/>
<path d="M121.284 118.127C124.156 118.127 127.035 118.127 129.912 118.127C129.912 122.806 129.912 127.485 129.912 132.141C127.039 132.141 124.166 132.137 121.299 132.129C121.289 127.478 121.284 122.803 121.284 118.127Z" fill="#171619"/>
<path d="M104.182 118.127C107.003 118.127 109.842 118.127 112.694 118.127C112.694 122.792 112.703 127.458 112.722 132.099C109.876 132.085 107.041 132.068 104.224 132.047C104.196 127.423 104.182 122.775 104.182 118.127Z" fill="#171619"/>
<path d="M147.102 104.197C149.95 104.211 152.784 104.228 155.6 104.249C155.629 108.873 155.644 113.521 155.644 118.168C152.823 118.168 149.984 118.168 147.13 118.168C147.13 113.503 147.12 108.838 147.102 104.197Z" fill="#171619"/>
<path d="M129.912 104.155C132.787 104.155 135.66 104.159 138.527 104.165C138.537 108.817 138.54 113.493 138.54 118.168C135.669 118.168 132.791 118.168 129.912 118.168C129.912 113.489 129.912 108.811 129.912 104.155Z" fill="#171619"/>
<path d="M112.722 104.197C115.57 104.183 118.432 104.173 121.299 104.165C121.289 108.817 121.284 113.493 121.284 118.168C118.413 118.168 115.548 118.168 112.694 118.168C112.694 113.503 112.703 108.838 112.722 104.197Z" fill="#171619"/>
<path d="M155.473 90.5088C158.275 90.5498 161.059 90.5974 163.816 90.6525C163.892 95.1838 163.947 99.7613 163.986 104.362C161.214 104.334 158.417 104.31 155.601 104.29C155.573 99.6645 155.53 95.0632 155.473 90.5088Z" fill="#171619"/>
<path d="M138.483 90.3446C141.335 90.358 144.183 90.3789 147.016 90.4064C147.054 94.9779 147.083 99.5963 147.102 104.238C144.254 104.224 141.394 104.213 138.527 104.207C138.517 99.5546 138.502 94.9258 138.483 90.3446Z" fill="#171619"/>
<path d="M121.343 90.3446C124.195 90.3312 127.055 90.3245 129.912 90.3245C129.912 94.9087 129.912 99.5405 129.912 104.196C127.039 104.196 124.166 104.2 121.299 104.207C121.309 99.5547 121.322 94.9258 121.343 90.3446Z" fill="#171619"/>
<path d="M104.353 90.5088C107.156 90.4678 109.975 90.4328 112.81 90.4061C112.772 94.9776 112.742 99.596 112.722 104.237C109.876 104.251 107.04 104.269 104.224 104.29C104.252 99.6644 104.296 95.0632 104.353 90.5088Z" fill="#171619"/>
<path d="M146.873 76.8948C149.683 76.935 152.48 76.9841 155.259 77.0451C155.345 81.4842 155.416 85.9932 155.472 90.5483C152.67 90.5074 149.851 90.4732 147.016 90.4464C146.977 85.8741 146.93 81.3487 146.873 76.8948Z" fill="#171619"/>
<path d="M129.912 76.7751C132.747 76.7751 135.582 76.7841 138.411 76.8034C138.44 81.2693 138.465 85.8028 138.483 90.3848C135.631 90.3714 132.772 90.3647 129.912 90.3647C129.912 85.779 129.912 81.2425 129.912 76.7751Z" fill="#171619"/>
<path d="M112.953 76.8947C115.763 76.8545 118.586 76.824 121.415 76.8032C121.385 81.269 121.362 85.8026 121.341 90.3845C118.489 90.3987 115.643 90.4188 112.81 90.4463C112.848 85.874 112.896 81.3486 112.953 76.8947Z" fill="#171619"/>
<path d="M154.961 63.9974C157.707 64.0755 160.436 64.1663 163.141 64.2712C163.292 68.5294 163.423 72.877 163.535 77.2944C160.8 77.2148 158.039 77.1441 155.26 77.0853C155.174 72.644 155.075 68.2742 154.961 63.9974Z" fill="#171619"/>
<path d="M138.31 63.6849C141.105 63.7117 143.894 63.7496 146.671 63.8032C146.748 68.0934 146.816 72.4789 146.874 76.9351C144.064 76.8926 141.24 76.8644 138.411 76.8435C138.383 72.3799 138.348 67.9848 138.31 63.6849Z" fill="#171619"/>
<path d="M121.516 63.6846C124.311 63.66 127.112 63.6467 129.912 63.6467C129.912 67.948 129.912 72.3454 129.912 76.8127C127.078 76.8127 124.242 76.8239 121.414 76.8433C121.444 72.3796 121.476 67.9845 121.516 63.6846Z" fill="#171619"/>
<path d="M104.866 63.9975C107.613 63.9194 110.377 63.8546 113.155 63.8033C113.076 68.0935 113.01 72.479 112.953 76.9351C110.143 76.9746 107.344 77.0244 104.564 77.0854C104.65 72.6442 104.751 68.2743 104.866 63.9975Z" fill="#171619"/>
<path d="M146.412 51.2687C149.148 51.3297 151.871 51.4101 154.576 51.5031C154.719 55.5723 154.848 59.7583 154.961 64.0352C152.215 63.957 149.449 63.8923 146.671 63.8387C146.595 59.5485 146.51 55.3498 146.412 51.2687Z" fill="#171619"/>
<path d="M129.912 51.081C132.671 51.081 135.427 51.0958 138.18 51.1286C138.228 55.2171 138.272 59.4233 138.31 63.7231C135.515 63.6964 132.715 63.683 129.912 63.6852C129.912 59.3816 129.912 55.171 129.912 51.081Z" fill="#171619"/>
<path d="M113.412 51.2689C116.148 51.2063 118.893 51.1587 121.646 51.1282C121.597 55.2168 121.554 59.4229 121.514 63.7228C118.72 63.7496 115.93 63.7875 113.153 63.8389C113.231 59.5486 113.317 55.35 113.412 51.2689Z" fill="#171619"/>
<path d="M154.107 39.7013C156.761 39.8077 159.4 39.9335 162.017 40.0763C162.242 43.8769 162.449 47.8151 162.636 51.8672C159.971 51.7437 157.283 51.6328 154.578 51.5397C154.435 47.4683 154.278 43.5152 154.107 39.7013Z" fill="#171619"/>
<path d="M138.022 39.2705C140.72 39.307 143.414 39.3606 146.098 39.4327C146.212 43.2564 146.317 47.2229 146.415 51.3032C143.679 51.2422 140.934 51.1946 138.18 51.1626C138.133 47.074 138.08 43.1023 138.022 39.2705Z" fill="#171619"/>
<path d="M121.804 39.2705C124.503 39.2363 127.208 39.2177 129.912 39.2177C129.912 43.0503 129.912 47.0249 129.912 51.1165C127.155 51.1165 124.397 51.1321 121.644 51.1626C121.693 47.0741 121.747 43.1023 121.804 39.2705Z" fill="#171619"/>
<path d="M105.719 39.7011C108.375 39.5924 111.045 39.5031 113.728 39.4324C113.614 43.256 113.507 47.2225 113.412 51.3029C110.676 51.3662 107.953 51.4443 105.248 51.5396C105.391 47.4681 105.547 43.515 105.719 39.7011Z" fill="#171619"/>
<path d="M145.725 28.434C148.346 28.5121 150.956 28.6111 153.55 28.7294C153.751 32.2427 153.937 35.919 154.109 39.7329C151.453 39.6265 148.78 39.5372 146.098 39.4665C145.984 35.6414 145.858 31.9547 145.725 28.434Z" fill="#171619"/>
<path d="M129.912 28.1985C132.555 28.1985 135.197 28.2171 137.833 28.2573C137.903 31.784 137.965 35.4736 138.022 39.3047C135.323 39.269 132.617 39.2519 129.912 39.2519C129.912 35.4186 129.912 31.7267 129.912 28.1985Z" fill="#171619"/>
<path d="M114.102 28.4343C116.723 28.3561 119.354 28.2973 121.992 28.2572C121.924 31.7838 121.861 35.4735 121.804 39.3046C119.104 39.341 116.41 39.3946 113.728 39.4668C113.842 35.6417 113.966 31.955 114.102 28.4343Z" fill="#171619"/>
<path d="M152.91 18.7258C155.437 18.8515 157.949 18.9967 160.441 19.1641C160.742 22.3246 161.024 25.6683 161.287 29.1719C158.729 29.0156 156.149 28.8787 153.552 28.7603C153.354 25.2456 153.139 21.8923 152.91 18.7258Z" fill="#171619"/>
<path d="M137.618 18.2271C140.183 18.2665 142.743 18.3298 145.294 18.4139C145.446 21.5856 145.591 24.9426 145.725 28.4648C143.103 28.3867 140.472 28.3279 137.833 28.2877C137.767 24.761 137.695 21.3988 137.618 18.2271Z" fill="#171619"/>
<path d="M122.208 18.227C124.772 18.1846 127.342 18.1637 129.912 18.1637C129.912 21.3377 129.912 24.7006 129.912 28.2288C127.269 28.2288 124.628 28.2496 121.99 28.2876C122.059 24.7609 122.132 21.4009 122.208 18.227Z" fill="#171619"/>
<path d="M106.914 18.7257C109.442 18.5999 111.981 18.4972 114.532 18.4139C114.378 21.5856 114.235 24.9426 114.1 28.4648C111.478 28.543 108.868 28.6419 106.271 28.7603C106.472 25.2455 106.685 21.8922 106.914 18.7257Z" fill="#171619"/>
<path d="M144.804 9.50914C147.275 9.59472 149.736 9.70189 152.185 9.82914C152.442 12.6035 152.685 15.5861 152.912 18.7549C150.386 18.6291 147.844 18.5242 145.293 18.4423C145.142 15.2684 144.977 12.2827 144.804 9.50914Z" fill="#171619"/>
<path d="M129.912 9.254C132.4 9.254 134.889 9.27484 137.373 9.31726C137.458 12.0923 137.54 15.0802 137.618 18.2534C135.052 18.2117 132.482 18.1909 129.912 18.1909C129.912 15.0147 129.912 12.0276 129.912 9.254Z" fill="#171619"/>
<path d="M115.019 9.5092C117.491 9.42362 119.969 9.36036 122.454 9.3172C122.366 12.0923 122.284 15.0802 122.208 18.2534C119.642 18.2958 117.081 18.3583 114.531 18.4424C114.685 15.2684 114.848 12.2828 115.019 9.5092Z" fill="#171619"/>
<path d="M151.375 2.17797C153.736 2.30597 156.084 2.45406 158.418 2.62373C158.794 4.96122 159.152 7.52939 159.489 10.3037C157.071 10.1318 154.637 9.98148 152.188 9.85348C151.931 7.07991 151.659 4.51396 151.375 2.17797Z" fill="#171619"/>
<path d="M137.098 1.6709C139.491 1.71332 141.878 1.77583 144.259 1.86141C144.452 4.19368 144.635 6.7574 144.806 9.5332C142.335 9.44762 139.857 9.38288 137.373 9.3412C137.287 6.5654 137.195 4.00094 137.098 1.6709Z" fill="#171619"/>
<path d="M122.728 1.67101C125.121 1.62933 127.518 1.6085 129.912 1.6085C129.912 3.9363 129.912 6.50076 129.912 9.27656C127.425 9.27656 124.936 9.29889 122.454 9.34131C122.54 6.5655 122.631 4.00105 122.728 1.67101Z" fill="#171619"/>
<path d="M108.451 2.178C110.811 2.05224 113.185 1.94582 115.566 1.86173C115.374 4.194 115.191 6.75771 115.018 9.53352C112.549 9.61984 110.086 9.72626 107.637 9.85352C107.895 7.07994 108.166 4.514 108.451 2.178Z" fill="#171619"/>
<path d="M165.374 3.21484C165.136 2.01448 164.894 0.871409 164.644 -0.208401L157.932 -0.208401C158.1 0.700247 158.262 1.65057 158.422 2.64331C160.756 2.81298 163.074 3.0035 165.374 3.21484Z" fill="#171619"/>
<path d="M151.377 2.19873C151.276 1.36673 151.171 0.564503 151.066 -0.208704L144.081 -0.208704C144.142 0.465526 144.203 1.16283 144.262 1.88245C146.643 1.96655 149.015 2.07296 151.377 2.19873Z" fill="#171619"/>
<path d="M137.098 1.69189C137.071 1.0385 137.045 0.405945 137.016 -0.208751L129.912 -0.208751C129.912 0.38734 129.912 0.999059 129.912 1.62715C132.309 1.62715 134.706 1.64873 137.098 1.69189Z" fill="#171619"/>
<path d="M122.726 1.69181C122.755 1.03842 122.782 0.405863 122.808 -0.208832L115.744 -0.208832C115.683 0.465398 115.624 1.1627 115.565 1.88232C117.944 1.79674 120.333 1.73423 122.726 1.69181Z" fill="#171619"/>
<path d="M108.449 2.19879C108.55 1.36679 108.653 0.564561 108.759 -0.208646L101.891 -0.208646C101.726 0.700003 101.562 1.65033 101.404 2.64307C103.738 2.47563 106.087 2.32679 108.449 2.19879Z" fill="#171619"/>
</g>
<rect x="108.5" y="0.5" width="49" height="139" stroke="black"/>
<g clip-path="url(#clip4_535_51067)">
<path d="M201.985 131.934C204.755 131.907 207.502 131.875 210.215 131.841C210.169 136.41 210.099 140.957 210.008 145.459C207.306 145.527 204.574 145.589 201.816 145.644C201.892 141.112 201.947 136.535 201.985 131.934Z" fill="#171619"/>
<path d="M185.102 132.058C187.95 132.044 190.785 132.027 193.601 132.006C193.572 136.631 193.53 141.233 193.473 145.787C190.671 145.828 187.849 145.862 185.016 145.89C185.054 141.318 185.083 136.7 185.102 132.058Z" fill="#171619"/>
<path d="M167.912 132.099C170.787 132.099 173.66 132.096 176.527 132.089C176.517 136.741 176.502 141.369 176.483 145.951C173.631 145.964 170.772 145.971 167.912 145.971C167.912 141.386 167.912 136.754 167.912 132.099Z" fill="#171619"/>
<path d="M210.284 118.128C213.002 118.128 215.687 118.128 218.334 118.128C218.334 122.681 218.306 127.235 218.253 131.766C215.608 131.808 212.928 131.846 210.215 131.881C210.261 127.311 210.284 122.719 210.284 118.128Z" fill="#171619"/>
<path d="M193.644 118.127C196.464 118.127 199.265 118.127 202.04 118.128C202.04 122.751 202.023 127.373 201.985 131.974C199.213 132.001 196.417 132.026 193.601 132.047C193.629 127.423 193.644 122.775 193.644 118.127Z" fill="#171619"/>
<path d="M176.54 118.127C179.414 118.127 182.279 118.127 185.13 118.127C185.13 122.792 185.121 127.457 185.102 132.099C182.254 132.112 179.394 132.123 176.527 132.129C176.537 127.478 176.54 122.803 176.54 118.127Z" fill="#171619"/>
<path d="M159.284 118.127C162.156 118.127 165.035 118.127 167.912 118.127C167.912 122.806 167.912 127.485 167.912 132.141C165.039 132.141 162.166 132.137 159.299 132.129C159.289 127.478 159.284 122.803 159.284 118.127Z" fill="#171619"/>
<path d="M201.985 104.322C204.755 104.349 207.5 104.38 210.215 104.415C210.261 108.984 210.284 113.576 210.284 118.168C207.567 118.168 204.816 118.168 202.04 118.168C202.04 113.545 202.023 108.921 201.985 104.322Z" fill="#171619"/>
<path d="M185.102 104.197C187.95 104.211 190.784 104.228 193.6 104.249C193.629 108.873 193.644 113.521 193.644 118.168C190.823 118.168 187.984 118.168 185.13 118.168C185.13 113.503 185.12 108.838 185.102 104.197Z" fill="#171619"/>
<path d="M167.912 104.155C170.787 104.155 173.66 104.159 176.527 104.165C176.537 108.817 176.54 113.493 176.54 118.168C173.669 118.168 170.791 118.168 167.912 118.168C167.912 113.489 167.912 108.811 167.912 104.155Z" fill="#171619"/>
<path d="M210.008 90.8367C212.707 90.9051 215.378 90.9803 218.009 91.0622C218.118 95.5273 218.2 100.037 218.253 104.568C215.611 104.527 212.928 104.489 210.215 104.454C210.169 99.8852 210.099 95.3382 210.008 90.8367Z" fill="#171619"/>
<path d="M193.473 90.5088C196.275 90.5498 199.059 90.5974 201.816 90.6525C201.892 95.1838 201.947 99.7613 201.986 104.362C199.214 104.334 196.417 104.31 193.601 104.29C193.573 99.6645 193.53 95.0632 193.473 90.5088Z" fill="#171619"/>
<path d="M176.483 90.3446C179.335 90.358 182.183 90.3789 185.016 90.4064C185.054 94.9779 185.083 99.5963 185.102 104.238C182.254 104.224 179.394 104.213 176.527 104.207C176.517 99.5546 176.502 94.9258 176.483 90.3446Z" fill="#171619"/>
<path d="M159.343 90.3446C162.195 90.3312 165.055 90.3245 167.912 90.3245C167.912 94.9087 167.912 99.5405 167.912 104.196C165.039 104.196 162.166 104.2 159.299 104.207C159.309 99.5547 159.322 94.9258 159.343 90.3446Z" fill="#171619"/>
<path d="M201.535 77.2564C204.272 77.3368 206.98 77.4283 209.661 77.5273C209.8 81.9165 209.916 86.3742 210.008 90.8765C207.306 90.808 204.574 90.7462 201.817 90.6919C201.741 86.1598 201.648 81.6746 201.535 77.2564Z" fill="#171619"/>
<path d="M184.873 76.8948C187.683 76.935 190.48 76.9841 193.259 77.0451C193.345 81.4842 193.416 85.9932 193.472 90.5483C190.67 90.5074 187.851 90.4732 185.016 90.4464C184.977 85.8741 184.93 81.3487 184.873 76.8948Z" fill="#171619"/>
<path d="M167.912 76.7751C170.747 76.7751 173.582 76.7841 176.411 76.8034C176.44 81.2693 176.465 85.8028 176.483 90.3848C173.631 90.3714 170.772 90.3647 167.912 90.3647C167.912 85.779 167.912 81.2425 167.912 76.7751Z" fill="#171619"/>
<path d="M209.177 64.6219C211.827 64.7537 214.448 64.8965 217.031 65.0528C217.251 69.2537 217.439 73.5417 217.603 77.8989C214.991 77.7769 212.343 77.6667 209.662 77.5678C209.523 73.1763 209.362 68.8556 209.177 64.6219Z" fill="#171619"/>
<path d="M192.961 63.9974C195.707 64.0755 198.436 64.1663 201.141 64.2712C201.292 68.5294 201.423 72.877 201.535 77.2944C198.8 77.2148 196.039 77.1441 193.26 77.0853C193.174 72.644 193.075 68.2742 192.961 63.9974Z" fill="#171619"/>
<path d="M176.31 63.6849C179.105 63.7117 181.894 63.7496 184.671 63.8032C184.748 68.0934 184.816 72.4789 184.874 76.9351C182.064 76.8926 179.24 76.8644 176.411 76.8435C176.383 72.3799 176.348 67.9848 176.31 63.6849Z" fill="#171619"/>
<path d="M159.516 63.6846C162.311 63.66 165.112 63.6467 167.912 63.6467C167.912 67.948 167.912 72.3454 167.912 76.8127C165.078 76.8127 162.242 76.8239 159.414 76.8433C159.444 72.3796 159.476 67.9845 159.516 63.6846Z" fill="#171619"/>
<path d="M200.635 51.8331C203.3 51.9567 205.942 52.0981 208.554 52.2558C208.787 56.2856 208.994 60.427 209.179 64.6606C206.529 64.5289 203.847 64.4128 201.143 64.3079C200.993 60.0497 200.823 55.8837 200.635 51.8331Z" fill="#171619"/>
<path d="M184.412 51.2687C187.148 51.3297 189.871 51.4101 192.576 51.5031C192.719 55.5723 192.848 59.7583 192.961 64.0352C190.215 63.957 187.449 63.8923 184.671 63.8387C184.595 59.5485 184.51 55.3498 184.412 51.2687Z" fill="#171619"/>
<path d="M167.912 51.081C170.671 51.081 173.427 51.0958 176.18 51.1286C176.228 55.2171 176.272 59.4233 176.31 63.7231C173.515 63.6964 170.715 63.683 167.912 63.6852C167.912 59.3816 167.912 55.171 167.912 51.081Z" fill="#171619"/>
<path d="M207.794 40.5606C210.36 40.7392 212.9 40.9357 215.407 41.1507C215.733 44.9119 216.031 48.8039 216.302 52.8062C213.753 52.6194 211.169 52.446 208.556 52.2897C208.325 48.2607 208.072 44.3418 207.794 40.5606Z" fill="#171619"/>
<path d="M192.107 39.7013C194.761 39.8077 197.4 39.9335 200.017 40.0763C200.242 43.8769 200.449 47.8151 200.636 51.8672C197.971 51.7437 195.283 51.6328 192.578 51.5397C192.435 47.4683 192.278 43.5152 192.107 39.7013Z" fill="#171619"/>
<path d="M176.022 39.2705C178.72 39.307 181.414 39.3606 184.098 39.4327C184.212 43.2564 184.317 47.2229 184.415 51.3032C181.679 51.2422 178.934 51.1946 176.18 51.1626C176.133 47.074 176.08 43.1023 176.022 39.2705Z" fill="#171619"/>
<path d="M159.804 39.2705C162.503 39.2363 165.208 39.2177 167.912 39.2177C167.912 43.0503 167.912 47.0249 167.912 51.1165C165.155 51.1165 162.397 51.1321 159.644 51.1626C159.693 47.0741 159.747 43.1023 159.804 39.2705Z" fill="#171619"/>
<path d="M199.285 29.1413C201.844 29.299 204.384 29.4762 206.895 29.6726C207.218 33.1628 207.519 36.8108 207.796 40.5928C205.229 40.4134 202.635 40.2534 200.019 40.1105C199.792 36.3085 199.548 32.6449 199.285 29.1413Z" fill="#171619"/>
<path d="M183.725 28.434C186.346 28.5121 188.956 28.6111 191.55 28.7294C191.751 32.2427 191.937 35.919 192.109 39.7329C189.453 39.6265 186.78 39.5372 184.098 39.4665C183.984 35.6414 183.858 31.9547 183.725 28.434Z" fill="#171619"/>
<path d="M167.912 28.1985C170.555 28.1985 173.197 28.2171 175.833 28.2573C175.903 31.784 175.965 35.4736 176.022 39.3047C173.323 39.269 170.617 39.2519 167.912 39.2519C167.912 35.4186 167.912 31.7267 167.912 28.1985Z" fill="#171619"/>
<path d="M205.858 19.7259C208.308 19.9335 210.733 20.1627 213.13 20.4142C213.564 23.5577 213.972 26.876 214.353 30.3506C211.897 30.1147 209.411 29.8996 206.898 29.7031C206.575 26.2114 206.228 22.879 205.858 19.7259Z" fill="#171619"/>
<path d="M190.91 18.7258C193.437 18.8515 195.949 18.9967 198.441 19.1641C198.742 22.3246 199.024 25.6683 199.287 29.1719C196.729 29.0156 194.149 28.8787 191.552 28.7603C191.354 25.2456 191.139 21.8923 190.91 18.7258Z" fill="#171619"/>
<path d="M175.618 18.2271C178.183 18.2665 180.743 18.3298 183.294 18.4139C183.446 21.5856 183.591 24.9426 183.725 28.4648C181.103 28.3867 178.472 28.3279 175.833 28.2877C175.767 24.761 175.695 21.3988 175.618 18.2271Z" fill="#171619"/>
<path d="M160.208 18.227C162.772 18.1846 165.342 18.1637 167.912 18.1637C167.912 21.3377 167.912 24.7006 167.912 28.2288C165.269 28.2288 162.628 28.2496 159.99 28.2876C160.059 24.7609 160.132 21.4009 160.208 18.227Z" fill="#171619"/>
<path d="M211.747 11.559C214.077 11.8157 216.38 12.094 218.653 12.3932C219.209 15.1593 219.737 18.1197 220.23 21.252C217.897 20.9602 215.53 20.6901 213.134 20.44C212.697 17.2966 212.236 14.3288 211.747 11.559Z" fill="#171619"/>
<path d="M197.487 10.2787C199.904 10.4484 202.305 10.6411 204.683 10.854C205.098 13.6261 205.493 16.5998 205.862 19.7529C203.412 19.5453 200.937 19.3585 198.445 19.1911C198.144 16.0283 197.824 13.0508 197.487 10.2787Z" fill="#171619"/>
<path d="M182.804 9.50914C185.275 9.59472 187.736 9.70189 190.185 9.82914C190.442 12.6035 190.685 15.5861 190.912 18.7549C188.386 18.6291 185.844 18.5242 183.293 18.4423C183.142 15.2684 182.977 12.2827 182.804 9.50914Z" fill="#171619"/>
<path d="M167.912 9.254C170.4 9.254 172.889 9.27484 175.373 9.31726C175.458 12.0923 175.54 15.0802 175.618 18.2534C173.052 18.2117 170.482 18.1909 167.912 18.1909C167.912 15.0147 167.912 12.0276 167.912 9.254Z" fill="#171619"/>
<path d="M203.368 3.19406C205.667 3.40541 207.946 3.63982 210.202 3.89285C210.744 6.24223 211.261 8.81413 211.75 11.584C209.42 11.3287 207.064 11.0921 204.687 10.8792C204.271 8.10716 203.831 5.53898 203.368 3.19406Z" fill="#171619"/>
<path d="M189.375 2.17797C191.736 2.30597 194.084 2.45406 196.418 2.62373C196.794 4.96122 197.152 7.52939 197.489 10.3037C195.071 10.1318 192.637 9.98148 190.188 9.85348C189.931 7.07991 189.659 4.51396 189.375 2.17797Z" fill="#171619"/>
<path d="M175.098 1.6709C177.491 1.71332 179.878 1.77583 182.259 1.86141C182.452 4.19368 182.635 6.7574 182.806 9.5332C180.335 9.44762 177.857 9.38288 175.373 9.3412C175.287 6.5654 175.195 4.00094 175.098 1.6709Z" fill="#171619"/>
<path d="M160.728 1.67101C163.121 1.62933 165.518 1.6085 167.912 1.6085C167.912 3.9363 167.912 6.50076 167.912 9.27656C165.425 9.27656 162.936 9.29889 160.454 9.34131C160.54 6.5655 160.631 4.00105 160.728 1.67101Z" fill="#171619"/>
<path d="M216.9 4.73877C216.434 2.96464 215.951 1.31329 215.45 -0.208564L209.161 -0.208564C209.522 1.07739 209.868 2.45264 210.208 3.91347C212.463 4.16724 214.694 4.4411 216.9 4.73877Z" fill="#171619"/>
<path d="M203.374 3.21484C203.136 2.01448 202.894 0.871409 202.644 -0.208401L195.932 -0.208401C196.1 0.700247 196.262 1.65057 196.422 2.64331C198.756 2.81298 201.074 3.0035 203.374 3.21484Z" fill="#171619"/>
<path d="M189.377 2.19873C189.276 1.36673 189.171 0.564503 189.066 -0.208704L182.081 -0.208704C182.142 0.465526 182.203 1.16283 182.262 1.88245C184.643 1.96655 187.015 2.07296 189.377 2.19873Z" fill="#171619"/>
<path d="M175.098 1.69189C175.071 1.0385 175.045 0.405945 175.016 -0.208751L167.912 -0.208751C167.912 0.38734 167.912 0.999059 167.912 1.62715C170.309 1.62715 172.706 1.64873 175.098 1.69189Z" fill="#171619"/>
</g>
<rect x="162.5" y="0.5" width="49" height="139" stroke="black"/>
<g clip-path="url(#clip5_535_51067)">
<path d="M261.038 130.069C262.657 129.973 264.187 129.872 265.62 129.769C265.532 133.65 265.399 137.517 265.224 141.355C263.787 141.56 262.255 141.759 260.636 141.95C260.815 138.016 260.948 134.05 261.038 130.069Z" fill="#171619"/>
<path d="M250.299 130.608C252.251 130.525 254.126 130.439 255.919 130.349C255.829 134.423 255.695 138.481 255.518 142.504C253.728 142.682 251.857 142.853 249.908 143.017C250.081 138.91 250.212 134.768 250.299 130.608Z" fill="#171619"/>
<path d="M237.717 131.064C239.95 130.995 242.12 130.922 244.219 130.847C244.135 135.085 244.009 139.306 243.842 143.489C241.748 143.64 239.584 143.783 237.357 143.92C237.517 139.667 237.637 135.375 237.717 131.064Z" fill="#171619"/>
<path d="M223.6 131.437C226.064 131.382 228.476 131.323 230.832 131.26C230.756 135.637 230.646 139.994 230.494 144.31C228.147 144.433 225.744 144.549 223.289 144.659C223.427 140.287 223.532 135.872 223.6 131.437Z" fill="#171619"/>
<path d="M208.253 131.726C210.895 131.686 213.501 131.641 216.06 131.592C215.999 136.079 215.906 140.544 215.782 144.966C213.233 145.062 210.64 145.152 208.009 145.233C208.118 140.768 208.2 136.259 208.253 131.726Z" fill="#171619"/>
<path d="M265.751 118.131C267.185 118.131 268.521 118.131 269.753 118.131C269.755 121.919 269.711 125.706 269.626 129.481C268.389 129.592 267.052 129.699 265.619 129.803C265.707 125.922 265.752 122.026 265.751 118.131Z" fill="#171619"/>
<path d="M256.05 118.13C257.843 118.13 259.552 118.13 261.171 118.13C261.171 122.127 261.128 126.123 261.037 130.104C259.418 130.201 257.709 130.295 255.917 130.384C256.006 126.311 256.05 122.22 256.05 118.13Z" fill="#171619"/>
<path d="M244.345 118.129C246.446 118.129 248.476 118.129 250.428 118.129C250.428 122.307 250.386 126.485 250.299 130.644C248.346 130.727 246.317 130.807 244.22 130.883C244.303 126.644 244.345 122.386 244.345 118.129Z" fill="#171619"/>
<path d="M230.942 118.129C233.301 118.129 235.6 118.129 237.837 118.129C237.837 122.46 237.797 126.79 237.717 131.102C235.482 131.171 233.185 131.237 230.83 131.299C230.904 126.923 230.942 122.525 230.942 118.129Z" fill="#171619"/>
<path d="M216.153 118.128C218.716 118.128 221.234 118.128 223.701 118.128C223.701 122.585 223.667 127.04 223.598 131.475C221.135 131.531 218.62 131.582 216.06 131.631C216.123 127.144 216.153 122.636 216.153 118.128Z" fill="#171619"/>
<path d="M261.038 106.191C262.657 106.289 264.185 106.388 265.62 106.493C265.707 110.373 265.753 114.269 265.751 118.165C264.319 118.165 262.791 118.165 261.172 118.165C261.172 114.169 261.128 110.173 261.038 106.191Z" fill="#171619"/>
<path d="M250.299 105.651C252.249 105.734 254.126 105.82 255.917 105.911C256.006 109.984 256.05 114.075 256.05 118.166C254.257 118.166 252.383 118.166 250.428 118.167C250.428 113.989 250.386 109.811 250.299 105.651Z" fill="#171619"/>
<path d="M237.717 105.194C239.95 105.263 242.12 105.336 244.219 105.412C244.303 109.651 244.345 113.909 244.345 118.167C242.244 118.167 240.072 118.167 237.837 118.167C237.837 113.836 237.797 109.505 237.717 105.194Z" fill="#171619"/>
<path d="M223.598 104.82C226.064 104.875 228.476 104.934 230.83 104.996C230.905 109.373 230.942 113.77 230.942 118.167C228.584 118.167 226.169 118.167 223.701 118.167C223.701 113.711 223.667 109.255 223.598 104.82Z" fill="#171619"/>
<path d="M208.252 104.529C210.895 104.571 213.5 104.616 216.06 104.664C216.123 109.151 216.153 113.659 216.153 118.167C213.589 118.167 210.981 118.168 208.334 118.168C208.334 113.614 208.306 109.061 208.252 104.529Z" fill="#171619"/>
<path d="M265.224 94.94C266.658 95.1454 267.999 95.3575 269.239 95.5762C269.413 99.3121 269.541 103.073 269.626 106.848C268.392 106.738 267.054 106.63 265.62 106.527C265.532 102.645 265.399 98.7785 265.224 94.94Z" fill="#171619"/>
<path d="M255.518 93.7908C257.309 93.9694 259.016 94.1539 260.635 94.3452C260.815 98.2797 260.948 102.245 261.037 106.226C259.418 106.129 257.709 106.036 255.919 105.946C255.829 101.873 255.695 97.8153 255.518 93.7908Z" fill="#171619"/>
<path d="M243.842 92.8064C245.935 92.9567 247.959 93.1145 249.908 93.2782C250.081 97.3854 250.212 101.528 250.299 105.687C248.347 105.605 246.319 105.526 244.219 105.449C244.135 101.21 244.009 96.9895 243.842 92.8064Z" fill="#171619"/>
<path d="M230.495 91.9862C232.842 92.109 235.132 92.2392 237.357 92.3754C237.517 96.6284 237.637 100.921 237.717 105.232C235.484 105.163 233.187 105.097 230.832 105.035C230.756 100.658 230.646 96.3017 230.495 91.9862Z" fill="#171619"/>
<path d="M215.782 91.3289C218.331 91.4249 220.836 91.5276 223.29 91.637C223.427 96.0091 223.532 100.424 223.601 104.859C221.135 104.804 218.621 104.752 216.06 104.703C215.999 100.217 215.906 95.7516 215.782 91.3289Z" fill="#171619"/>
<path d="M259.969 82.6847C261.588 82.9667 263.122 83.2577 264.562 83.5591C264.827 87.3254 265.048 91.1356 265.225 94.9741C263.789 94.7695 262.257 94.5708 260.638 94.3795C260.458 90.445 260.236 86.5418 259.969 82.6847Z" fill="#171619"/>
<path d="M249.256 81.1163C251.199 81.3581 253.066 81.6097 254.854 81.8709C255.12 85.8106 255.343 89.8016 255.521 93.8262C253.729 93.6491 251.857 93.4779 249.909 93.3142C249.735 89.207 249.517 85.1349 249.256 81.1163Z" fill="#171619"/>
<path d="M236.761 79.7903C238.975 79.9905 241.129 80.2018 243.214 80.4228C243.465 84.5129 243.674 88.6595 243.842 92.8433C241.748 92.6929 239.586 92.5493 237.359 92.4131C237.199 88.1594 237.001 83.9451 236.761 79.7903Z" fill="#171619"/>
<path d="M222.775 78.7045C225.214 78.8645 227.603 79.0357 229.935 79.2165C230.16 83.4316 230.346 87.7077 230.497 92.0239C228.15 91.9004 225.745 91.7843 223.292 91.6756C223.155 87.3028 222.983 82.9717 222.775 78.7045Z" fill="#171619"/>
<path d="M263.636 72.4349C265.082 72.8256 266.439 73.2289 267.698 73.6464C268.041 77.2244 268.342 80.8553 268.599 84.5264C267.351 84.2049 266.004 83.8938 264.564 83.5924C264.299 79.8246 263.99 76.1022 263.636 72.4349Z" fill="#171619"/>
<path d="M253.924 70.2477C255.707 70.5871 257.413 70.9376 259.033 71.303C259.391 75.0507 259.702 78.8609 259.971 82.7187C258.352 82.4367 256.645 82.1658 254.858 81.9054C254.591 77.9634 254.28 74.0728 253.924 70.2477Z" fill="#171619"/>
<path d="M242.333 68.3732C244.406 68.659 246.412 68.9582 248.346 69.2707C248.694 73.1665 248.999 77.133 249.258 81.1523C247.317 80.9105 245.299 80.6805 243.216 80.4595C242.964 76.3687 242.67 72.3338 242.333 68.3732Z" fill="#171619"/>
<path d="M229.152 66.8109C231.466 67.0453 233.726 67.2909 235.924 67.5521C236.242 71.5714 236.522 75.6696 236.763 79.8267C234.547 79.6242 232.27 79.4337 229.936 79.2529C229.714 75.0386 229.451 70.8838 229.152 66.8109Z" fill="#171619"/>
<path d="M214.671 65.5593C217.176 65.7423 219.641 65.938 222.057 66.1457C222.332 70.267 222.571 74.4731 222.777 78.7402C220.339 78.5802 217.852 78.4299 215.321 78.2893C215.136 73.9737 214.919 69.7237 214.671 65.5593Z" fill="#171619"/>
<path d="M257.832 60.2912C259.452 60.7295 260.994 61.1835 262.448 61.6538C262.89 65.1917 263.286 68.7995 263.64 72.4668C262.194 72.0768 260.656 71.6995 259.037 71.3356C258.679 67.5864 258.279 63.8998 257.832 60.2912Z" fill="#171619"/>
<path d="M247.174 57.8477C249.098 58.2227 250.952 58.6157 252.729 59.0227C253.173 62.6982 253.573 66.4571 253.927 70.2822C252.144 69.9429 250.283 69.6177 248.35 69.3051C248.001 65.4093 247.61 61.5835 247.174 57.8477Z" fill="#171619"/>
<path d="M234.848 55.7799C237.028 56.0925 239.146 56.4221 241.203 56.7667C241.622 60.5598 242.002 64.4467 242.337 68.4072C240.264 68.1215 238.125 67.8469 235.926 67.5879C235.608 63.5663 235.248 59.6244 234.848 55.7799Z" fill="#171619"/>
<path d="M221.131 54.0884C223.518 54.3377 225.857 54.6049 228.146 54.8869C228.519 58.779 228.856 62.7723 229.156 66.8452C226.843 66.6108 224.475 66.3898 222.059 66.1821C221.784 62.0594 221.474 58.0207 221.131 54.0884Z" fill="#171619"/>
<path d="M260.994 51.3016C262.457 51.8389 263.836 52.3934 265.128 52.9664C265.643 56.2832 266.115 59.6804 266.545 63.1416C265.271 62.6408 263.905 62.1548 262.452 61.6845C262.009 58.1466 261.524 54.681 260.994 51.3016Z" fill="#171619"/>
<path d="M251.268 48.2935C253.039 48.7579 254.741 49.2416 256.362 49.7432C256.897 53.1821 257.389 56.714 257.835 60.3218C256.213 59.8842 254.511 59.4608 252.733 59.0552C252.289 55.3782 251.801 51.7852 251.268 48.2935Z" fill="#171619"/>
<path d="M239.821 45.7157C241.859 46.1101 243.835 46.5217 245.744 46.9503C246.265 50.4934 246.744 54.1436 247.178 57.8794C245.255 57.5043 243.263 57.1441 241.207 56.7996C240.787 53.0065 240.325 49.3049 239.821 45.7157Z" fill="#171619"/>
<path d="M226.917 43.5689C229.174 43.8904 231.382 44.2298 233.534 44.5877C234.014 48.2193 234.454 51.9685 234.852 55.813C232.674 55.5004 230.438 55.2035 228.15 54.9215C227.776 51.0294 227.364 47.2378 226.917 43.5689Z" fill="#171619"/>
<path d="M212.819 41.848C215.254 42.0995 217.648 42.3682 219.999 42.6539C220.413 46.3577 220.79 50.1888 221.133 54.1226C218.748 53.871 216.313 53.6366 213.84 53.4178C213.53 49.4454 213.191 45.5823 212.819 41.848Z" fill="#171619"/>
<path d="M263.458 43.2901C264.77 43.9189 265.999 44.5663 267.14 45.2354C267.711 48.3326 268.245 51.5148 268.735 54.7661C267.626 54.1589 266.423 53.568 265.132 52.995C264.618 49.6759 264.057 46.4372 263.458 43.2901Z" fill="#171619"/>
<path d="M254.627 39.7528C256.252 40.3035 257.802 40.8728 259.275 41.4615C259.894 44.657 260.468 47.9507 260.998 51.3301C259.536 50.795 257.989 50.2748 256.368 49.774C255.833 46.3351 255.252 42.99 254.627 39.7528Z" fill="#171619"/>
<path d="M244.051 36.6869C245.947 37.1595 247.778 37.6492 249.542 38.1612C250.163 41.4385 250.741 44.8313 251.274 48.3237C249.502 47.8586 247.658 47.4106 245.749 46.982C245.227 43.4389 244.661 40 244.051 36.6869Z" fill="#171619"/>
<path d="M231.981 34.0922C234.103 34.4866 236.174 34.8981 238.188 35.3305C238.777 38.68 239.322 42.1569 239.826 45.7476C237.79 45.3531 235.692 44.9781 233.539 44.6201C233.059 40.987 232.541 37.4722 231.981 34.0922Z" fill="#171619"/>
<path d="M218.664 31.9725C220.974 32.2865 223.242 32.6199 225.463 32.9749C225.986 36.381 226.472 39.93 226.921 43.5996C224.663 43.2774 222.355 42.9745 220.003 42.6865C219.592 38.9834 219.144 35.4039 218.664 31.9725Z" fill="#171619"/>
<path d="M265.302 36.222C266.479 36.9312 267.576 37.659 268.583 38.4091C269.194 41.301 269.763 44.277 270.296 47.3252C269.336 46.6182 268.285 45.9306 267.143 45.2623C266.572 42.162 265.956 39.1444 265.302 36.222Z" fill="#171619"/>
<path d="M257.294 32.2233C258.78 32.8485 260.194 33.4937 261.529 34.1605C262.217 37.1119 262.861 40.1697 263.463 43.3169C262.15 42.6881 260.754 42.0801 259.281 41.4899C258.664 38.2951 258.001 35.2008 257.294 32.2233Z" fill="#171619"/>
<path d="M247.551 28.7237C249.306 29.2647 251 29.8266 252.624 30.4115C253.339 33.4143 254.008 36.5443 254.633 39.7808C253.009 39.2308 251.312 38.701 249.548 38.1904C248.927 34.9116 248.26 31.751 247.551 28.7237Z" fill="#171619"/>
<path d="M236.303 25.7257C238.29 26.1826 240.224 26.6626 242.101 27.162C242.796 30.2124 243.449 33.4012 244.057 36.7158C242.163 36.2455 240.207 35.7938 238.193 35.3614C237.607 32.0126 236.976 28.7947 236.303 25.7257Z" fill="#171619"/>
<path d="M223.785 23.2255C225.965 23.5991 228.102 23.995 230.19 24.4124C230.828 27.4986 231.429 30.7432 231.987 34.1226C229.864 33.7304 227.689 33.3568 225.468 33.0026C224.945 29.5942 224.383 26.3287 223.785 23.2255Z" fill="#171619"/>
<path d="M210.227 21.2255C212.56 21.5172 214.859 21.8297 217.121 22.1631C217.671 25.2813 218.188 28.5676 218.668 32.0005C216.359 31.6864 214.006 31.3932 211.619 31.1171C211.187 27.6626 210.721 24.3577 210.227 21.2255Z" fill="#171619"/>
<path d="M259.344 25.6548C260.708 26.3388 262.002 27.0435 263.221 27.7698C263.958 30.4935 264.654 33.3251 265.309 36.2476C264.132 35.5406 262.873 34.853 261.535 34.1862C260.849 31.2332 260.118 28.3853 259.344 25.6548Z" fill="#171619"/>
<path d="M250.355 21.8124C251.983 22.4084 253.547 23.0276 255.048 23.6698C255.842 26.4055 256.593 29.2683 257.3 32.248C255.814 31.6252 254.256 31.0194 252.63 30.4367C251.916 27.4324 251.158 24.5517 250.355 21.8124Z" fill="#171619"/>
<path d="M239.889 18.48C241.745 18.9928 243.547 19.5263 245.294 20.0807C246.092 22.8275 246.847 25.7217 247.557 28.7505C245.8 28.2095 243.983 27.6878 242.107 27.1884C241.411 24.138 240.672 21.229 239.889 18.48Z" fill="#171619"/>
<path d="M228.159 15.6606C230.207 16.0877 232.211 16.535 234.168 17.006C234.924 19.7603 235.638 22.6812 236.309 25.7524C234.322 25.2933 232.283 24.8564 230.195 24.4397C229.555 21.3513 228.877 18.4178 228.159 15.6606Z" fill="#171619"/>
<path d="M215.374 13.3533C217.582 13.6941 219.752 14.0581 221.886 14.4428C222.558 17.2037 223.192 20.147 223.791 23.2524C221.611 22.8774 219.388 22.5224 217.127 22.189C216.576 19.0709 215.993 16.118 215.374 13.3533Z" fill="#171619"/>
<path d="M260.895 19.947C262.16 20.6673 263.358 21.4086 264.486 22.1684C265.246 24.6926 265.97 27.3181 266.654 30.0366C265.589 29.2671 264.446 28.52 263.227 27.7944C262.492 25.0699 261.713 22.4504 260.895 19.947Z" fill="#171619"/>
<path d="M252.537 15.8872C254.052 16.5213 255.509 17.1769 256.903 17.8534C257.763 20.336 258.578 22.9495 259.352 25.6792C257.988 24.9953 256.555 24.3345 255.053 23.6922C254.259 20.9566 253.421 18.3505 252.537 15.8872Z" fill="#171619"/>
<path d="M242.769 12.332C244.505 12.8827 246.189 13.4542 247.818 14.0466C248.711 16.4927 249.559 19.0929 250.361 21.8345C248.734 21.2361 247.047 20.6609 245.299 20.105C244.502 17.3597 243.657 14.7632 242.769 12.332Z" fill="#171619"/>
<path d="M231.783 9.2867C233.705 9.7533 235.586 10.2393 237.418 10.746C238.287 13.1617 239.114 15.7522 239.897 18.5034C238.042 17.9907 236.132 17.4995 234.176 17.0307C233.419 14.2757 232.623 11.6889 231.783 9.2867Z" fill="#171619"/>
<path d="M219.761 6.74864C221.84 7.12967 223.884 7.53153 225.888 7.95422C226.689 10.3431 227.446 12.9269 228.165 15.6855C226.117 15.2569 224.023 14.8506 221.891 14.4681C221.219 11.7057 220.508 9.12631 219.761 6.74864Z" fill="#171619"/>
<path d="M262.095 14.9403C263.293 15.6659 264.428 16.4108 265.501 17.1751C266.255 19.5371 266.976 21.993 267.66 24.5396C266.677 23.7358 265.619 22.953 264.492 22.1909C263.731 19.6689 262.933 17.2473 262.095 14.9403Z" fill="#171619"/>
<path d="M254.206 10.8326C255.633 11.4771 257.006 12.1417 258.322 12.8256C259.224 15.0834 260.083 17.4663 260.902 19.9697C259.637 19.2516 258.305 18.5521 256.911 17.8763C256.052 15.3915 255.151 13.0406 254.206 10.8326Z" fill="#171619"/>
<path d="M245.014 7.20795C246.646 7.7713 248.229 8.35623 249.763 8.9605C250.735 11.1224 251.661 13.4427 252.545 15.9082C251.03 15.2742 249.455 14.6602 247.826 14.0678C246.934 11.6202 245.997 9.32962 245.014 7.20795Z" fill="#171619"/>
<path d="M234.686 4.06852C236.492 4.55001 238.26 5.05307 239.982 5.57698C240.958 7.6592 241.891 9.92301 242.779 12.3535C241.043 11.8051 239.258 11.2752 237.426 10.7684C236.555 8.3513 235.643 6.11279 234.686 4.06852Z" fill="#171619"/>
<path d="M223.381 1.40836C225.337 1.81245 227.26 2.23515 229.144 2.6772C230.068 4.68872 230.95 6.9049 231.79 9.30713C229.866 8.84201 227.902 8.39848 225.896 7.97504C225.098 5.58398 224.26 3.38938 223.381 1.40836Z" fill="#171619"/>
<path d="M219.767 6.76953C219.021 4.38963 218.235 2.21438 217.412 0.261644C216.517 0.101645 215.614 -0.0568662 214.707 -0.20868L211.478 -0.20868C212.156 1.57587 212.806 3.54796 213.427 5.68898C215.574 6.02832 217.688 6.38851 219.767 6.76953Z" fill="#171619"/>
<path d="M263.143 10.4122C264.313 11.1035 265.429 11.8157 266.49 12.5435C267.199 14.7954 267.877 17.1351 268.527 19.5522C267.588 18.747 266.579 17.9619 265.509 17.1962C264.755 14.8356 263.966 12.5703 263.143 10.4122Z" fill="#171619"/>
<path d="M255.507 6.47624C256.879 7.0954 258.203 7.73317 259.478 8.38879C260.39 10.4599 261.267 12.6545 262.102 14.9614C260.904 14.2351 259.647 13.5304 258.331 12.8465C257.431 10.5893 256.49 8.46321 255.507 6.47624Z" fill="#171619"/>
<path d="M246.722 2.97635C248.275 3.52333 249.786 4.08891 251.249 4.6716C252.282 6.57895 253.269 8.64406 254.213 10.8521C252.787 10.2083 251.304 9.58322 249.77 8.97894C248.799 6.81485 247.783 4.80928 246.722 2.97635Z" fill="#171619"/>
<path d="M236.929 -0.0850426C238.637 0.389003 240.31 0.880908 241.945 1.39142C243.015 3.15513 244.042 5.10638 245.023 7.22656C243.393 6.66247 241.714 6.11996 239.99 5.59606C239.015 3.51383 237.994 1.61393 236.929 -0.0850426Z" fill="#171619"/>
<path d="M234.694 4.08545C233.972 2.54052 233.225 1.10723 232.454 -0.208491L227.714 -0.208491C228.205 0.705367 228.684 1.67355 229.154 2.6968C231.038 3.1381 232.886 3.60173 234.694 4.08545Z" fill="#171619"/>
<path d="M223.389 1.42773C223.139 0.863643 222.886 0.3189 222.631 -0.208726L217.212 -0.208726C217.281 -0.0472378 217.352 0.114994 217.42 0.278715C219.441 0.640388 221.432 1.02364 223.389 1.42773Z" fill="#171619"/>
<path d="M264.282 6.07216C265.473 6.68536 266.62 7.3142 267.721 7.95792C268.338 10.1696 268.933 12.4558 269.504 14.8066C268.559 14.0409 267.555 13.2922 266.496 12.5644C265.787 10.311 265.05 8.14471 264.282 6.07216Z" fill="#171619"/>
<path d="M256.631 2.57481C257.988 3.12699 259.305 3.6948 260.58 4.2775C261.472 6.21684 262.329 8.27079 263.15 10.4312C261.981 9.73757 260.76 9.06334 259.485 8.40772C258.572 6.3374 257.62 4.38838 256.631 2.57481Z" fill="#171619"/>
<path d="M251.259 4.68752C252.723 5.27245 254.143 5.87449 255.515 6.49365C254.533 4.50668 253.511 2.65813 252.446 0.964367C251.347 0.564741 250.224 0.174044 249.081 -0.208466L248.279 -0.208466C249.31 1.28065 250.302 2.91711 251.259 4.68752Z" fill="#171619"/>
<path d="M241.954 1.40631C243.587 1.91682 245.181 2.44519 246.732 2.99365C246.077 1.85803 245.407 0.791613 244.717 -0.20857L240.925 -0.20857C241.272 0.31087 241.615 0.850403 241.954 1.40631Z" fill="#171619"/>
<path d="M265.799 1.55843C267.069 2.03694 268.307 2.52661 269.512 3.02745C269.988 5.2853 270.447 7.59748 270.888 9.95654C269.881 9.28157 268.826 8.62073 267.726 7.97701C267.107 5.76307 266.466 3.62205 265.799 1.55843Z" fill="#171619"/>
<path d="M264.288 6.08936C263.52 4.0168 262.724 2.03728 261.897 0.158956C261.537 0.0346772 261.175 -0.087369 260.811 -0.208671L258.346 -0.208671C259.115 1.21421 259.864 2.71523 260.588 4.29438C261.864 4.87782 263.099 5.47615 264.288 6.08936Z" fill="#171619"/>
<path d="M256.641 2.5918C256.109 1.6184 255.568 0.684454 255.016 -0.208567L251.685 -0.208567C251.944 0.179897 252.202 0.574315 252.456 0.979895C253.888 1.50157 255.284 2.03887 256.641 2.5918Z" fill="#171619"/>
<path d="M265.804 1.57617C265.612 0.974127 265.414 0.380269 265.215 -0.208381L261.733 -0.208381C261.79 -0.0811252 261.847 0.0468745 261.904 0.17413C263.234 0.631059 264.535 1.09841 265.804 1.57617Z" fill="#171619"/>
</g>
<rect x="216.5" y="0.5" width="49" height="139" stroke="black"/>
</g>
<defs>
<clipPath id="clip0_535_51067">
<rect width="266" height="140" fill="white"/>
</clipPath>
<clipPath id="clip1_535_51067">
<rect width="50" height="140" fill="white"/>
</clipPath>
<clipPath id="clip2_535_51067">
<rect x="54" width="50" height="140" fill="white"/>
</clipPath>
<clipPath id="clip3_535_51067">
<rect x="108" width="50" height="140" fill="white"/>
</clipPath>
<clipPath id="clip4_535_51067">
<rect x="162" width="50" height="140" fill="white"/>
</clipPath>
<clipPath id="clip5_535_51067">
<rect x="216" width="50" height="140" fill="white"/>
</clipPath>
</defs>
</svg>
