<svg width="301" height="100" viewBox="0 0 301 100" fill="none" xmlns="http://www.w3.org/2000/svg">
<g clip-path="url(#clip0_535_55418)">
<mask id="mask0_535_55418" style="mask-type:luminance" maskUnits="userSpaceOnUse" x="22" y="93" width="14" height="4">
<path d="M22.8896 93.939H35.2518V96.0005H22.8896V93.939Z" fill="white"/>
</mask>
<g mask="url(#mask0_535_55418)">
<path d="M31.0493 93.9746C31.3911 94.1451 31.7295 94.3197 32.0732 94.488L33.1098 94.9768C33.7966 95.3143 34.5036 95.6089 35.1994 95.9245L27.9611 110.992C27.1125 110.61 26.2555 110.248 25.42 109.841L24.1612 109.245C23.7435 109.043 23.3309 108.83 22.9155 108.623L31.0493 93.9746Z" fill="black"/>
</g>
<mask id="mask1_535_55418" style="mask-type:luminance" maskUnits="userSpaceOnUse" x="13" y="89" width="15" height="7">
<path d="M13.168 89.3672H27.0904V95.9999H13.168V89.3672Z" fill="white"/>
</mask>
<g mask="url(#mask1_535_55418)">
<path d="M23.1222 89.4155L23.5971 89.7285L24.0824 90.0311L25.0496 90.6382C25.3726 90.8405 25.705 91.0288 26.0304 91.2257C26.3604 91.4177 26.683 91.6199 27.0154 91.806L18.0152 105.987C17.612 105.761 17.2182 105.517 16.8188 105.283C16.4226 105.044 16.0204 104.813 15.6279 104.57L14.4531 103.833L13.8647 103.465L13.2861 103.085L23.1222 89.4155Z" fill="black"/>
</g>
<mask id="mask2_535_55418" style="mask-type:luminance" maskUnits="userSpaceOnUse" x="4" y="83" width="16" height="13">
<path d="M4.28662 83.9961H19.4092V96H4.28662V83.9961Z" fill="white"/>
</mask>
<g mask="url(#mask2_535_55418)">
<path d="M15.7814 84.0249L16.667 84.7369C16.9633 84.9735 17.2526 85.2182 17.5573 85.4454C18.1626 85.9025 18.7528 86.3779 19.3736 86.8167L8.73722 99.9317C7.98709 99.3956 7.26696 98.8229 6.53371 98.2666C6.16521 97.9899 5.81359 97.6939 5.45352 97.4082L4.38037 96.5422L15.7814 84.0249Z" fill="black"/>
</g>
<mask id="mask3_535_55418" style="mask-type:luminance" maskUnits="userSpaceOnUse" x="3" y="92" width="2" height="4">
<path d="M3 92.9102H4.40649V96.0002H3V92.9102Z" fill="white"/>
</mask>
<g mask="url(#mask3_535_55418)">
<path d="M0.240938 92.915C0.90574 93.5458 1.59961 94.1458 2.28504 94.756C2.62447 95.0636 2.97891 95.3573 3.32913 95.6533L4.38165 96.5425L-7.02031 109.061L-8.25756 108.016C-8.66919 107.667 -9.08458 107.322 -9.48543 106.961C-10.2909 106.245 -11.1057 105.536 -11.8882 104.797L0.240938 92.915Z" fill="black"/>
</g>
<mask id="mask4_535_55418" style="mask-type:luminance" maskUnits="userSpaceOnUse" x="3" y="77" width="10" height="17">
<path d="M3 77.8252H12.4479V93.0245H3V77.8252Z" fill="white"/>
</mask>
<g mask="url(#mask4_535_55418)">
<path d="M9.13526 77.8682C9.66457 78.4052 10.1831 78.9516 10.7307 79.4712L11.5394 80.2631L12.3702 81.0336L0.240598 92.9152L-0.765044 91.9796L-1.74818 91.0207C-2.41064 90.3886 -3.04169 89.727 -3.68164 89.0757L9.13526 77.8682Z" fill="black"/>
</g>
<mask id="mask5_535_55418" style="mask-type:luminance" maskUnits="userSpaceOnUse" x="3" y="70" width="4" height="16">
<path d="M3 70.9683H6.2068V85.139H3V70.9683Z" fill="white"/>
</mask>
<g mask="url(#mask5_535_55418)">
<path d="M3.26493 71.0356C3.49418 71.3316 3.71782 71.632 3.94942 71.9258L4.65501 72.8025C5.11728 73.3922 5.61611 73.9543 6.0962 74.5315L-7.36863 85.0283C-7.95326 84.3301 -8.55571 83.6444 -9.11737 82.9288L-9.97439 81.8659C-10.2552 81.5084 -10.5276 81.1459 -10.8047 80.7861L3.26493 71.0356Z" fill="black"/>
</g>
<mask id="mask6_535_55418" style="mask-type:luminance" maskUnits="userSpaceOnUse" x="83" y="83" width="12" height="14">
<path d="M83.1401 83.6538H94.182V96.0006H83.1401V83.6538Z" fill="white"/>
</mask>
<g mask="url(#mask6_535_55418)">
<path d="M83.1475 85.1432C85.0176 84.7361 86.8672 84.2504 88.69 83.687L94.0647 99.4474C91.7425 100.165 89.3853 100.784 87.005 101.3L83.1475 85.1432Z" fill="black"/>
</g>
<mask id="mask7_535_55418" style="mask-type:luminance" maskUnits="userSpaceOnUse" x="71" y="86" width="9" height="11">
<path d="M71.7378 86.0537H79.8992V96.0006H71.7378V86.0537Z" fill="white"/>
</mask>
<g mask="url(#mask7_535_55418)">
<path d="M71.7622 86.5976C73.6778 86.515 75.5883 86.3539 77.4899 86.1128L79.8036 102.535C77.3877 102.842 74.9596 103.047 72.5306 103.151L71.7622 86.5976Z" fill="black"/>
</g>
<mask id="mask8_535_55418" style="mask-type:luminance" maskUnits="userSpaceOnUse" x="57" y="86" width="10" height="11">
<path d="M57.936 86.0537H66.0974V96.0006H57.936V86.0537Z" fill="white"/>
</mask>
<g mask="url(#mask8_535_55418)">
<path d="M60.2854 86.1128C62.1869 86.3539 64.0974 86.515 66.0131 86.5976L65.2447 103.151C62.8156 103.047 60.3876 102.842 57.9717 102.535L60.2854 86.1128Z" fill="black"/>
</g>
<path d="M90.9922 64.8019C92.2196 64.1702 93.4189 63.4854 94.583 62.752L104.183 76.5727C102.585 77.5798 100.938 78.5191 99.2516 79.3864L90.9922 64.8019Z" fill="black"/>
<path d="M83.3154 67.9276C84.6403 67.5174 85.9451 67.0522 87.2269 66.5312L94.0728 81.7645C92.3095 82.4809 90.5129 83.1233 88.6896 83.6867L83.3154 67.9276Z" fill="black"/>
<path d="M75.1743 69.6893C76.5583 69.5134 77.9339 69.2826 79.2911 68.9844L83.1473 85.1426C81.2785 85.5506 79.3896 85.8702 77.4899 86.1126L75.1743 69.6893Z" fill="black"/>
<path d="M66.7806 70.0439C67.1313 70.0529 67.4815 70.0739 67.8322 70.0783L68.8871 70.0917L69.942 70.0783C70.2936 70.0739 70.6429 70.0529 70.9936 70.0439L71.7615 86.5976C71.2828 86.6124 70.8037 86.6374 70.325 86.6445L68.8871 86.6615L67.4492 86.6445C66.9705 86.6374 66.4914 86.6124 66.0127 86.5976L66.7806 70.0439Z" fill="black"/>
<path d="M58.485 68.9844C59.8427 69.2826 61.2169 69.5134 62.6009 69.6893L60.2853 86.1126C58.3856 85.8702 56.4967 85.5506 54.6279 85.1426L58.485 68.9844Z" fill="black"/>
<mask id="mask9_535_55418" style="mask-type:luminance" maskUnits="userSpaceOnUse" x="43" y="83" width="12" height="14">
<path d="M43.6533 83.6538H54.6952V96.0006H43.6533V83.6538Z" fill="white"/>
</mask>
<g mask="url(#mask9_535_55418)">
<path d="M49.0856 83.687C50.9084 84.2504 52.7594 84.7361 54.6281 85.1432L50.7706 101.3C48.3903 100.784 46.0345 100.165 43.7109 99.4474L49.0856 83.687Z" fill="black"/>
</g>
<mask id="mask10_535_55418" style="mask-type:luminance" maskUnits="userSpaceOnUse" x="30" y="79" width="14" height="18">
<path d="M30.2109 79.311H43.7733V96.0004H30.2109V79.311Z" fill="white"/>
</mask>
<g mask="url(#mask10_535_55418)">
<path d="M38.5241 79.3862C40.21 80.2549 41.9395 81.0478 43.7028 81.7642L36.8555 96.9979C34.6112 96.085 32.41 95.0757 30.2651 93.9708L38.5241 79.3862Z" fill="black"/>
</g>
<path d="M28.9436 73.3516C30.4415 74.4895 31.9933 75.5649 33.592 76.5728L23.9927 90.3927C21.9594 89.1129 19.9884 87.746 18.085 86.2992L28.9436 73.3516Z" fill="black"/>
<path d="M20.6406 65.793C21.9031 67.1666 23.2257 68.4897 24.613 69.7504L12.5856 81.7248C10.8237 80.1249 9.1425 78.4451 7.54004 76.6996L20.6406 65.793Z" fill="black"/>
<mask id="mask11_535_55418" style="mask-type:luminance" maskUnits="userSpaceOnUse" x="3" y="56" width="15" height="16">
<path d="M3 56.9121H17.1287V71.3114H3V56.9121Z" fill="white"/>
</mask>
<g mask="url(#mask11_535_55418)">
<path d="M13.882 56.9473C14.8675 58.5142 15.9261 60.0377 17.0542 61.514L2.98407 71.2631C1.55133 69.3882 0.204376 67.4508 -1.04834 65.4603L13.882 56.9473Z" fill="black"/>
</g>
<path d="M50.5499 66.5312C51.8303 67.0522 53.1364 67.5174 54.46 67.9276L49.0858 83.6867C47.2625 83.1233 45.4659 82.4809 43.7026 81.7645L50.5499 66.5312Z" fill="black"/>
<path d="M43.1925 62.752C44.358 63.4854 45.5559 64.1702 46.7833 64.8019L38.5239 79.3864C36.8375 78.5191 35.1905 77.5798 33.5923 76.5727L43.1925 62.752Z" fill="black"/>
<path d="M36.6412 57.7749C37.6543 58.6949 38.7092 59.5726 39.8025 60.4034L28.9444 73.3514C27.445 72.2131 26.0001 71.0109 24.6138 69.7502L36.6412 57.7749Z" fill="black"/>
<path d="M31.1257 51.7637C31.9475 52.8404 32.82 53.8823 33.7408 54.8858L20.6408 65.7929C19.3791 64.418 18.1827 62.9895 17.0542 61.5141L31.1257 51.7637Z" fill="black"/>
<path d="M26.8244 44.9307C27.4301 46.1261 28.0954 47.2953 28.8131 48.4354L13.8823 56.9471C12.8968 55.3815 11.9849 53.7749 11.1509 52.1303L26.8244 44.9307Z" fill="black"/>
<mask id="mask12_535_55418" style="mask-type:luminance" maskUnits="userSpaceOnUse" x="3" y="47" width="9" height="13">
<path d="M3 47.084H11.2477V59.4263H3V47.084Z" fill="white"/>
</mask>
<g mask="url(#mask12_535_55418)">
<path d="M8.89197 47.0962C9.56521 48.8046 10.3191 50.4858 11.1508 52.1303L-4.52269 59.33C-5.58131 57.2377 -6.54147 55.0972 -7.3999 52.9209L8.89197 47.0962Z" fill="black"/>
</g>
<mask id="mask13_535_55418" style="mask-type:luminance" maskUnits="userSpaceOnUse" x="3" y="36" width="5" height="11">
<path d="M3 36.4561H7.16697V46.3984H3V36.4561Z" fill="white"/>
</mask>
<g mask="url(#mask13_535_55418)">
<path d="M5.83979 36.5522C6.17688 38.3499 6.60773 40.1302 7.11641 41.8904L-9.66117 46.2888C-10.3091 44.0479 -10.8553 41.7792 -11.2861 39.4927L5.83979 36.5522Z" fill="black"/>
</g>
<mask id="mask14_535_55418" style="mask-type:luminance" maskUnits="userSpaceOnUse" x="3" y="25" width="3" height="8">
<path d="M3 25.5991H5.12662V32.6845H3V25.5991Z" fill="white"/>
</mask>
<g mask="url(#mask14_535_55418)">
<path d="M4.82003 25.6577C4.82331 27.4826 4.90864 29.3075 5.07929 31.1258L-12.2553 32.5922C-12.4704 30.2834 -12.5783 27.9683 -12.582 25.6577H4.82003Z" fill="black"/>
</g>
<mask id="mask15_535_55418" style="mask-type:luminance" maskUnits="userSpaceOnUse" x="3" y="11" width="3" height="10">
<path d="M3 11.7715H5.84674V20.2282H3V11.7715Z" fill="white"/>
</mask>
<g mask="url(#mask15_535_55418)">
<path d="M5.8396 14.7618C5.50111 16.5581 5.24794 18.3692 5.07869 20.1874L-12.2559 18.7214C-12.0402 16.4117 -11.7172 14.1078 -11.2863 11.8213L5.8396 14.7618Z" fill="black"/>
</g>
<mask id="mask16_535_55418" style="mask-type:luminance" maskUnits="userSpaceOnUse" x="3" y="-2" width="6" height="12">
<path d="M3 -1.71387H8.96728V9.48561H3V-1.71387Z" fill="white"/>
</mask>
<g mask="url(#mask16_535_55418)">
<path d="M8.89142 4.21694C8.21818 5.92669 7.62604 7.66366 7.11596 9.42384L-9.66162 5.02494C-9.01229 2.78398 -8.25747 0.569346 -7.40045 -1.60645L8.89142 4.21694Z" fill="black"/>
</g>
<path d="M23.8943 37.4902C24.2651 38.7687 24.6946 40.0307 25.1831 41.2718L8.89167 47.0965C8.21843 45.3867 7.6263 43.6498 7.11621 41.89L23.8943 37.4902Z" fill="black"/>
<path d="M22.4118 29.6597C22.5355 30.9864 22.7202 32.3051 22.965 33.6126L5.83953 36.5518C5.50103 34.7554 5.24786 32.9439 5.07861 31.1257L22.4118 29.6597Z" fill="black"/>
<path d="M22.4122 21.6539C22.2885 22.982 22.2252 24.3168 22.2214 25.6573H4.81982C4.82311 23.8311 4.90843 22.0057 5.07909 20.1875L22.4122 21.6539Z" fill="black"/>
<path d="M23.8945 13.8236C23.5246 15.1012 23.2105 16.3949 22.9653 17.7011L5.83984 14.762C6.17693 12.9643 6.60779 11.1836 7.11647 9.42383L23.8945 13.8236Z" fill="black"/>
<path d="M26.8239 6.38326C26.2201 7.57963 25.6729 8.80145 25.183 10.0425L8.8916 4.21729C9.56484 2.50888 10.3187 0.827713 11.1504 -0.816406L26.8239 6.38326Z" fill="black"/>
<path d="M31.1254 -0.449632C30.3022 0.627104 29.53 1.73777 28.8127 2.87834L13.8818 -5.63332C14.8673 -7.19887 15.9259 -8.72335 17.0539 -10.1987L31.1254 -0.449632Z" fill="black"/>
<path d="M83.5361 49.8176C85.3074 48.8426 86.9713 47.6904 88.4931 46.3892L100.141 58.6993C97.7225 60.7711 95.075 62.604 92.2508 64.1598L83.5361 49.8176Z" fill="black"/>
<path d="M71.9507 53.4058C73.9863 53.2036 75.9976 52.7965 77.9433 52.1934L83.3165 67.9524C80.2082 68.9158 76.9892 69.5649 73.7501 69.8863L71.9507 53.4058Z" fill="black"/>
<path d="M59.8323 52.1934C61.7779 52.7965 63.7892 53.2036 65.8248 53.4058L64.0255 69.8863C60.7863 69.5649 57.5687 68.9158 54.459 67.9524L59.8323 52.1934Z" fill="black"/>
<path d="M79.7627 30.2574C80.0988 29.5404 80.3544 28.7954 80.526 28.0298L97.5511 31.4582C97.1263 33.3635 96.4901 35.2259 95.6561 37.0044L79.7627 30.2574Z" fill="black"/>
<path d="M76.8452 34.08C77.473 33.5506 78.0285 32.9452 78.5194 32.3042L92.5904 42.0533C91.3869 43.6282 90.0184 45.0907 88.4933 46.3893L76.8452 34.08Z" fill="black"/>
<path d="M72.5688 36.4331C73.349 36.1907 74.1038 35.8698 74.8216 35.4756L83.5362 49.8178C81.7659 50.7923 79.8887 51.5914 77.9431 52.1936L72.5688 36.4331Z" fill="black"/>
<path d="M67.6222 36.9243C68.4478 37.0087 69.3264 37.0087 70.152 36.9243L71.95 53.4057C69.9157 53.6079 67.8585 53.6079 65.8242 53.4057L67.6222 36.9243Z" fill="black"/>
<path d="M62.9534 35.4756C63.6712 35.8698 64.426 36.1907 65.2061 36.4331L59.8319 52.1936C57.8877 51.5914 56.0091 50.7923 54.2388 49.8178L62.9534 35.4756Z" fill="black"/>
<path d="M49.2819 46.3892C50.8037 47.6904 52.4676 48.8426 54.2389 49.8176L45.5242 64.1598C42.7 62.604 40.0539 60.7711 37.6343 58.6993L49.2819 46.3892Z" fill="black"/>
<path d="M42.119 37.0039C42.9535 38.7819 43.983 40.4779 45.1847 42.0528L31.1146 51.8032C29.1999 49.2957 27.5571 46.5932 26.2261 43.7523L42.119 37.0039Z" fill="black"/>
<path d="M39.5857 25.6577C39.5857 27.6049 39.7981 29.5535 40.2242 31.4583L23.1991 34.8881C22.5202 31.8436 22.1827 28.7375 22.1841 25.6577H39.5857Z" fill="black"/>
<path d="M42.1189 14.3095C41.2862 16.0875 40.6486 17.9504 40.2239 19.8552L23.1987 16.4259C23.8757 13.3828 24.8936 10.4021 26.226 7.5625L42.1189 14.3095Z" fill="black"/>
<path d="M49.2824 4.92489C47.7583 6.22304 46.3888 7.68726 45.1853 9.26084L31.1152 -0.489594C33.0318 -2.99573 35.2128 -5.31705 37.6348 -7.38525L49.2824 4.92489Z" fill="black"/>
<path d="M59.2566 32.3042C59.7474 32.9452 60.303 33.5506 60.9322 34.08L49.2827 46.3893C47.7585 45.0907 46.389 43.6282 45.1855 42.0533L59.2566 32.3042Z" fill="black"/>
<path d="M57.2497 28.0298C57.4223 28.7954 57.6782 29.5404 58.0139 30.2574L42.1196 37.0044C41.287 35.2259 40.6494 33.3635 40.2246 31.4582L57.2497 28.0298Z" fill="black"/>
<path d="M57.2491 23.2847C57.0775 24.0517 56.9884 24.8414 56.9875 25.6574H39.5854C39.5854 23.7088 39.7978 21.7602 40.224 19.855L57.2491 23.2847Z" fill="black"/>
<path d="M59.2563 19.0094C58.7669 19.654 58.3501 20.3405 58.0139 21.0575L42.1196 14.3091C42.9541 12.5306 43.9837 10.8361 45.1853 9.26025L59.2563 19.0094Z" fill="black"/>
<path d="M62.9538 15.8401C62.236 16.2343 61.5557 16.7026 60.9317 17.2351L49.2822 4.92499C50.8041 3.62327 52.4679 2.47154 54.2392 1.49658L62.9538 15.8401Z" fill="black"/>
<path d="M92.5903 9.26084C91.3868 7.68726 90.0183 6.22304 88.4932 4.92489L100.141 -7.38525C102.564 -5.31705 104.744 -2.99573 106.66 -0.489594L92.5903 9.26084Z" fill="black"/>
<path d="M67.6231 14.3891C66.7923 14.4726 65.9869 14.6368 65.2067 14.8806L59.8325 -0.879842C61.7782 -1.48339 63.7895 -1.88917 65.8251 -2.09229L67.6231 14.3891Z" fill="black"/>
<path d="M72.5692 14.8806C71.7891 14.6368 70.9836 14.4726 70.1528 14.3891L71.9508 -2.09229C73.9865 -1.88917 75.9977 -1.48339 77.9434 -0.879842L72.5692 14.8806Z" fill="black"/>
<path d="M76.8453 17.2351C76.2198 16.7026 75.5396 16.2343 74.8218 15.8401L83.5364 1.49658C85.3076 2.47154 86.9715 3.62327 88.4934 4.92499L76.8453 17.2351Z" fill="black"/>
<path d="M79.7629 21.0575C79.4267 20.3405 79.009 19.654 78.5195 19.0094L92.5906 9.26025C93.7922 10.8361 94.8231 12.5306 95.6562 14.3091L79.7629 21.0575Z" fill="black"/>
<path d="M80.788 25.6574C80.788 24.8414 80.698 24.0517 80.5264 23.2847L97.5515 19.855C97.9777 21.7602 98.19 23.7088 98.19 25.6574H80.788Z" fill="black"/>
<path d="M68.9053 25.389C68.909 25.3854 68.9104 25.3809 68.9104 25.3765H80.9556C80.9566 26.559 80.7601 27.7705 80.3663 28.925C79.9725 30.0803 79.3869 31.1682 78.6452 32.1373L68.9053 25.389Z" fill="black"/>
<path d="M68.8803 25.397C68.885 25.3979 68.8897 25.3979 68.8944 25.397L72.6141 36.3063C71.4017 36.6808 70.1298 36.8683 68.8874 36.8674C67.645 36.8683 66.373 36.6808 65.1606 36.3063L68.8803 25.397Z" fill="black"/>
<path d="M68.8645 25.3765C68.8645 25.3809 68.8669 25.3854 68.8697 25.389L59.1297 32.1373C58.388 31.1682 57.8025 30.0803 57.4087 28.925C57.0148 27.7705 56.8184 26.559 56.8193 25.3765H68.8645Z" fill="black"/>
<path d="M68.8806 25.3561C68.8769 25.357 68.8722 25.3606 68.8698 25.3641L59.1299 18.6144C59.8716 17.6444 60.7684 16.7909 61.7872 16.0855C62.805 15.3793 63.9476 14.8218 65.1609 14.4468L68.8806 25.3561Z" fill="black"/>
<path d="M68.9058 25.3641C68.9035 25.3606 68.9002 25.357 68.895 25.3561L72.6147 14.4468C73.8281 14.8218 74.9706 15.3793 75.9898 16.0855C77.0086 16.7909 77.905 17.6444 78.6458 18.6144L68.9058 25.3641Z" fill="black"/>
<path d="M65.175 14.4873C63.9649 14.8609 62.8276 15.4154 61.813 16.1194C60.798 16.822 59.9049 17.6733 59.1655 18.6393L68.905 25.3886C68.9027 25.3922 68.8994 25.3944 68.8942 25.3966L65.175 14.4873Z" fill="black"/>
<path d="M78.6096 18.6393C77.8717 17.6733 76.9771 16.822 75.9621 16.1194C74.9476 15.4154 73.8102 14.8609 72.6015 14.4873L68.8809 25.3966C68.8771 25.3944 68.8725 25.3922 68.8701 25.3886L78.6096 18.6393Z" fill="black"/>
<path d="M78.6094 32.1117C79.3487 31.1461 79.931 30.0627 80.3234 28.9109C80.7168 27.7614 80.9128 26.5543 80.9114 25.3763H68.8647C68.8647 25.3718 68.8671 25.3669 68.8699 25.3638L78.6094 32.1117Z" fill="black"/>
<path d="M65.1753 36.2653C66.3825 36.6394 67.6503 36.8256 68.8875 36.8242C70.1247 36.8256 71.3934 36.6394 72.6011 36.2653L68.8805 25.3565C68.8852 25.3551 68.8898 25.3551 68.8945 25.3565L65.1753 36.2653Z" fill="black"/>
<path d="M56.8647 25.3763C56.8638 26.5543 57.0593 27.7614 57.4517 28.9109C57.8441 30.0627 58.4278 31.1461 59.1658 32.1117L68.9053 25.3638C68.909 25.3669 68.9104 25.3718 68.9104 25.3763H56.8647Z" fill="black"/>
</g>
<rect x="3.27997" y="2.27997" width="88.4401" height="93.4401" rx="44.22" stroke="black" stroke-width="0.559943"/>
<g clip-path="url(#clip1_535_55418)">
<mask id="mask17_535_55418" style="mask-type:luminance" maskUnits="userSpaceOnUse" x="171" y="2" width="13" height="3">
<path d="M171.654 2H183.088V4.35839H171.654V2Z" fill="white"/>
</mask>
<g mask="url(#mask17_535_55418)">
<path d="M175.2 4.3261L174.336 3.84089L173.906 3.59732L173.467 3.3638L172.592 2.89754C172.302 2.74018 172.003 2.59984 171.708 2.44828L178.752 -10.2383C179.11 -10.055 179.473 -9.88182 179.827 -9.69083L180.89 -9.12481L181.422 -8.84181L181.946 -8.54682L182.995 -7.95606L175.2 4.3261Z" fill="black"/>
</g>
<mask id="mask18_535_55418" style="mask-type:luminance" maskUnits="userSpaceOnUse" x="178" y="2" width="14" height="7">
<path d="M178.514 2H191.092V8.71328H178.514V2Z" fill="white"/>
</mask>
<g mask="url(#mask18_535_55418)">
<path d="M181.819 8.64694L181.023 8.06508C180.755 7.87409 180.482 7.6889 180.212 7.501L179.808 7.21877C179.672 7.12404 179.537 7.02971 179.398 6.94079L178.574 6.39758L187.091 -5.44189L188.092 -4.78077C188.261 -4.67175 188.425 -4.55924 188.589 -4.44441L189.08 -4.10264C189.408 -3.87415 189.739 -3.64836 190.064 -3.41678L191.031 -2.71119L181.819 8.64694Z" fill="black"/>
</g>
<mask id="mask19_535_55418" style="mask-type:luminance" maskUnits="userSpaceOnUse" x="184" y="2" width="12" height="12">
<path d="M184.855 2H196V13.662H184.855V2Z" fill="white"/>
</mask>
<g mask="url(#mask19_535_55418)">
<path d="M187.885 13.6561C187.412 13.2045 186.914 12.7781 186.426 12.3416C186.184 12.1208 185.931 11.912 185.68 11.7013L184.93 11.0657L194.804 0.224121L195.715 0.994269C196.019 1.2506 196.326 1.50499 196.62 1.77099C197.213 2.2995 197.814 2.81912 198.39 3.36541L187.885 13.6561Z" fill="black"/>
</g>
<mask id="mask20_535_55418" style="mask-type:luminance" maskUnits="userSpaceOnUse" x="190" y="6" width="6" height="14">
<path d="M190.676 6.63525H196V19.304H190.676V6.63525Z" fill="white"/>
</mask>
<g mask="url(#mask20_535_55418)">
<path d="M193.318 19.2869C193.113 19.0356 192.889 18.7982 192.675 18.5539L192.026 17.8232L191.359 17.1087C191.136 16.8702 190.918 16.6285 190.687 16.3981L201.787 6.69238C202.067 6.97268 202.333 7.26458 202.604 7.55261L203.413 8.42058L204.2 9.30632C204.46 9.60325 204.729 9.89244 204.98 10.1971L193.318 19.2869Z" fill="black"/>
</g>
<mask id="mask21_535_55418" style="mask-type:luminance" maskUnits="userSpaceOnUse" x="195" y="13" width="1" height="13">
<path d="M195.77 13.8599H196V25.5389H195.77V13.8599Z" fill="white"/>
</mask>
<g mask="url(#mask21_535_55418)">
<path d="M198.043 25.4667C197.31 24.4004 196.566 23.3407 195.771 22.3154L207.956 13.8716C208.92 15.1169 209.826 16.4016 210.714 17.6972L198.043 25.4667Z" fill="black"/>
</g>
<mask id="mask22_535_55418" style="mask-type:luminance" maskUnits="userSpaceOnUse" x="194" y="61" width="2" height="7">
<path d="M194.106 61.5659H196V67.7024H194.106V61.5659Z" fill="white"/>
</mask>
<g mask="url(#mask22_535_55418)">
<path d="M194.2 66.3519C194.348 64.7772 194.421 63.1967 194.424 61.6162H209.496C209.494 63.6174 209.399 65.6224 209.213 67.622L194.2 66.3519Z" fill="black"/>
</g>
<mask id="mask23_535_55418" style="mask-type:luminance" maskUnits="userSpaceOnUse" x="192" y="70" width="4" height="10">
<path d="M192.339 70.9683H196V79.5791H192.339V70.9683Z" fill="white"/>
</mask>
<g mask="url(#mask23_535_55418)">
<path d="M192.435 75.675C192.875 74.1505 193.248 72.6087 193.54 71.0518L208.374 73.5984C208.001 75.5787 207.526 77.5435 206.965 79.4843L192.435 75.675Z" fill="black"/>
</g>
<mask id="mask24_535_55418" style="mask-type:luminance" maskUnits="userSpaceOnUse" x="188" y="80" width="9" height="11">
<path d="M188.909 80.1733H196V90.8626H188.909V80.1733Z" fill="white"/>
</mask>
<g mask="url(#mask24_535_55418)">
<path d="M188.941 84.544C189.661 83.1197 190.314 81.6637 190.897 80.1841L205.007 85.2287C204.264 87.1135 203.432 88.9673 202.515 90.7794L188.941 84.544Z" fill="black"/>
</g>
<mask id="mask25_535_55418" style="mask-type:luminance" maskUnits="userSpaceOnUse" x="183" y="88" width="14" height="14">
<path d="M183.816 88.6851H196V101.156H183.816V88.6851Z" fill="white"/>
</mask>
<g mask="url(#mask25_535_55418)">
<path d="M183.829 92.6705C184.806 91.3919 185.722 90.0724 186.576 88.7153L199.507 96.0882C198.422 97.8121 197.255 99.4901 196.014 101.114L183.829 92.6705Z" fill="black"/>
</g>
<path d="M178.709 68.506C178.922 67.3736 179.081 66.2316 179.188 65.0825L194.2 66.3522C194.053 67.9269 193.834 69.4958 193.541 71.0516L178.709 68.506Z" fill="black"/>
<path d="M176.788 75.1393C177.211 74.0645 177.584 72.9715 177.904 71.8643L192.435 75.6748C191.993 77.1988 191.48 78.7032 190.897 80.1839L176.788 75.1393Z" fill="black"/>
<path d="M173.644 81.344C174.266 80.3565 174.842 79.344 175.366 78.3086L188.941 84.544C188.22 85.9683 187.429 87.3598 186.575 88.7156L173.644 81.344Z" fill="black"/>
<path d="M169.376 86.9301C170.173 86.061 170.929 85.1586 171.642 84.2261L183.828 92.6706C182.85 93.9484 181.814 95.1856 180.722 96.3764L169.376 86.9301Z" fill="black"/>
<path d="M164.127 91.7086C165.074 90.989 165.987 90.229 166.865 89.4321L177.281 99.8036C176.081 100.895 174.829 101.937 173.531 102.922L164.127 91.7086Z" fill="black"/>
<path d="M158.081 95.518C159.144 94.971 160.182 94.3779 161.19 93.7427L169.505 105.712C168.121 106.585 166.694 107.398 165.234 108.149L158.081 95.518Z" fill="black"/>
<path d="M116.683 93.7427C117.692 94.3779 118.73 94.971 119.793 95.518L112.639 108.149C111.179 107.398 109.752 106.585 108.368 105.712L116.683 93.7427Z" fill="black"/>
<path d="M111.008 89.4321C111.886 90.229 112.799 90.989 113.746 91.7086L104.342 102.922C103.044 101.937 101.792 100.895 100.592 99.8036L111.008 89.4321Z" fill="black"/>
<path d="M106.232 84.2261C106.944 85.1586 107.7 86.061 108.497 86.9301L97.1516 96.3764C96.059 95.1856 95.0227 93.9484 94.0454 92.6706L106.232 84.2261Z" fill="black"/>
<path d="M112.64 15.0824C111.179 15.8337 109.753 16.6471 108.368 17.5201L100.055 5.54993C101.814 4.44149 103.627 3.40728 105.487 2.45117L112.64 15.0824Z" fill="black"/>
<mask id="mask26_535_55418" style="mask-type:luminance" maskUnits="userSpaceOnUse" x="111" y="2" width="11" height="12">
<path d="M111.157 2H121.863V13.0682H111.157V2Z" fill="white"/>
</mask>
<g mask="url(#mask26_535_55418)">
<path d="M121.787 11.358C120.208 11.8459 118.652 12.4022 117.125 13.0227L111.194 -0.170687C113.139 -0.961326 115.12 -1.66884 117.132 -2.29053L121.787 11.358Z" fill="black"/>
</g>
<path d="M111.008 33.7997C110.131 34.5954 109.295 35.4336 108.497 36.3015L97.1514 26.8556C98.2448 25.666 99.3903 24.5197 100.592 23.4282L111.008 33.7997Z" fill="black"/>
<path d="M116.683 29.489C115.673 30.1242 114.693 30.8035 113.746 31.523L104.342 20.3091C105.64 19.3232 106.984 18.3918 108.368 17.52L116.683 29.489Z" fill="black"/>
<path d="M123.055 26.2159C121.945 26.6663 120.855 27.1662 119.793 27.7133L112.64 15.0824C114.1 14.33 115.598 13.643 117.125 13.0225L123.055 26.2159Z" fill="black"/>
<path d="M129.927 24.0908C128.751 24.3471 127.588 24.6518 126.441 25.0071L121.787 11.3574C123.365 10.8695 124.968 10.4489 126.587 10.0967L129.927 24.0908Z" fill="black"/>
<mask id="mask27_535_55418" style="mask-type:luminance" maskUnits="userSpaceOnUse" x="123" y="2" width="9" height="9">
<path d="M123.215 2H131.531V10.0989H123.215V2Z" fill="white"/>
</mask>
<g mask="url(#mask27_535_55418)">
<path d="M131.487 9.25795C129.841 9.46672 128.205 9.74393 126.587 10.0973L123.246 -3.89565C125.307 -4.34607 127.391 -4.69867 129.483 -4.96582L131.487 9.25795Z" fill="black"/>
</g>
<mask id="mask28_535_55418" style="mask-type:luminance" maskUnits="userSpaceOnUse" x="135" y="2" width="8" height="7">
<path d="M135.688 2H142.133V8.91123H135.688V2Z" fill="white"/>
</mask>
<g mask="url(#mask28_535_55418)">
<path d="M141.426 8.83653C141.011 8.82377 140.596 8.80289 140.182 8.79594L138.936 8.78124L137.691 8.79594C137.276 8.80289 136.861 8.82377 136.447 8.83653L135.781 -5.50013C136.307 -5.51792 136.833 -5.54266 137.359 -5.55039L138.936 -5.56934L140.513 -5.55039C141.039 -5.54266 141.565 -5.51792 142.091 -5.50013L141.426 8.83653Z" fill="black"/>
</g>
<mask id="mask29_535_55418" style="mask-type:luminance" maskUnits="userSpaceOnUse" x="146" y="2" width="9" height="9">
<path d="M146.291 2H154.711V10.0989H146.291V2Z" fill="white"/>
</mask>
<g mask="url(#mask29_535_55418)">
<path d="M151.286 10.0973C149.668 9.74393 148.032 9.46672 146.387 9.25795L148.391 -4.96582C150.483 -4.69867 152.566 -4.34607 154.627 -3.89565L151.286 10.0973Z" fill="black"/>
</g>
<mask id="mask30_535_55418" style="mask-type:luminance" maskUnits="userSpaceOnUse" x="156" y="2" width="11" height="12">
<path d="M156.062 2H166.768V13.0682H156.062V2Z" fill="white"/>
</mask>
<g mask="url(#mask30_535_55418)">
<path d="M160.749 13.0227C159.222 12.4022 157.666 11.8459 156.087 11.358L160.742 -2.29053C162.753 -1.66884 164.736 -0.961326 166.679 -0.170687L160.749 13.0227Z" fill="black"/>
</g>
<path d="M169.505 17.5201C168.121 16.6471 166.694 15.8337 165.234 15.0824L172.388 2.45117C174.246 3.40728 176.059 4.44149 177.819 5.54993L169.505 17.5201Z" fill="black"/>
<path d="M137.113 23.1743C135.898 23.2258 134.69 23.3278 133.492 23.4802L131.487 9.25756C133.134 9.04762 134.788 8.90805 136.447 8.83691L137.113 23.1743Z" fill="black"/>
<path d="M144.381 23.4802C143.183 23.3278 141.975 23.2258 140.761 23.1743L141.426 8.83691C143.085 8.90805 144.74 9.04762 146.386 9.25756L144.381 23.4802Z" fill="black"/>
<path d="M151.432 25.0071C150.285 24.6518 149.122 24.3471 147.946 24.0908L151.286 10.0967C152.906 10.4489 154.507 10.8695 156.086 11.3574L151.432 25.0071Z" fill="black"/>
<path d="M158.081 27.7133C157.018 27.1662 155.929 26.6663 154.82 26.2159L160.749 13.0225C162.276 13.643 163.774 14.33 165.234 15.0824L158.081 27.7133Z" fill="black"/>
<path d="M164.127 31.523C163.181 30.8035 162.2 30.1242 161.191 29.489L169.505 17.52C170.89 18.3918 172.234 19.3232 173.531 20.3091L164.127 31.523Z" fill="black"/>
<path d="M177.282 23.428C176.081 22.3362 174.83 21.295 173.531 20.3091L182.936 9.09521C184.584 10.3475 186.175 11.6697 187.698 13.0573L177.282 23.428Z" fill="black"/>
<mask id="mask31_535_55418" style="mask-type:luminance" maskUnits="userSpaceOnUse" x="180" y="17" width="16" height="14">
<path d="M180.697 17.3242H196V30.5868H180.697V17.3242Z" fill="white"/>
</mask>
<g mask="url(#mask31_535_55418)">
<path d="M183.828 30.562C182.851 29.2831 181.814 28.0459 180.722 26.8555L192.068 17.4092C193.455 18.9216 194.772 20.4933 196.014 22.1174L183.828 30.562Z" fill="black"/>
</g>
<mask id="mask32_535_55418" style="mask-type:luminance" maskUnits="userSpaceOnUse" x="186" y="27" width="10" height="12">
<path d="M186.518 27.1226H196V38.7026H186.518V27.1226Z" fill="white"/>
</mask>
<g mask="url(#mask32_535_55418)">
<path d="M188.941 38.688C188.22 37.2637 187.429 35.8719 186.575 34.516L199.506 27.1436C200.591 28.8687 201.596 30.6402 202.515 32.4526L188.941 38.688Z" fill="black"/>
</g>
<mask id="mask33_535_55418" style="mask-type:luminance" maskUnits="userSpaceOnUse" x="190" y="37" width="6" height="11">
<path d="M190.884 37.9106H196V47.6102H190.884V37.9106Z" fill="white"/>
</mask>
<g mask="url(#mask33_535_55418)">
<path d="M192.435 47.5569C191.993 46.0325 191.48 44.5281 190.897 43.0474L205.007 38.0039C205.749 39.8883 206.403 41.8063 206.965 43.7472L192.435 47.5569Z" fill="black"/>
</g>
<mask id="mask34_535_55418" style="mask-type:luminance" maskUnits="userSpaceOnUse" x="193" y="49" width="3" height="8">
<path d="M193.482 49.5898H196V56.914H193.482V49.5898Z" fill="white"/>
</mask>
<g mask="url(#mask34_535_55418)">
<path d="M194.2 56.879C194.053 55.3042 193.834 53.7357 193.541 52.18L208.374 49.6333C208.746 51.6136 209.026 53.6089 209.212 55.6093L194.2 56.879Z" fill="black"/>
</g>
<path d="M169.376 36.3015C168.579 35.4336 167.742 34.5954 166.865 33.7997L177.281 23.4282C178.483 24.5197 179.629 25.666 180.722 26.8556L169.376 36.3015Z" fill="black"/>
<path d="M173.644 41.8877C173.023 40.8999 172.354 39.9379 171.643 39.0054L183.828 30.562C184.805 31.8398 185.722 33.1601 186.576 34.516L173.644 41.8877Z" fill="black"/>
<path d="M176.787 48.093C176.364 47.0182 175.89 45.96 175.366 44.9239L188.941 38.6885C189.661 40.1124 190.314 41.5684 190.897 43.048L176.787 48.093Z" fill="black"/>
<path d="M178.709 54.7258C178.496 53.5946 178.224 52.4742 177.904 51.3677L192.435 47.5571C192.875 49.0812 193.248 50.6234 193.54 52.1803L178.709 54.7258Z" fill="black"/>
<path d="M179.353 61.6162C179.35 60.4551 179.295 59.2992 179.188 58.149L194.2 56.8789C194.348 58.4536 194.421 60.0345 194.424 61.6162H179.353Z" fill="black"/>
<path d="M163.761 66.64C164.13 64.9902 164.314 63.3026 164.314 61.6162H179.386C179.386 64.2835 179.094 66.9736 178.507 69.6104L163.761 66.64Z" fill="black"/>
<path d="M159.465 75.816C160.506 74.452 161.398 72.9833 162.12 71.4434L175.886 77.2879C174.733 79.7484 173.31 82.089 171.651 84.2606L159.465 75.816Z" fill="black"/>
<path d="M151.624 82.5405C153.158 81.6962 154.599 80.6983 155.917 79.5713L166.004 90.2327C163.91 92.027 161.617 93.6145 159.171 94.9619L151.624 82.5405Z" fill="black"/>
<path d="M141.59 85.6487C143.353 85.4736 145.095 85.121 146.78 84.5986L151.433 98.2471C148.741 99.0814 145.954 99.6436 143.148 99.9219L141.59 85.6487Z" fill="black"/>
<path d="M131.094 84.5986C132.779 85.121 134.521 85.4736 136.284 85.6487L134.726 99.9219C131.92 99.6436 129.134 99.0814 126.44 98.2471L131.094 84.5986Z" fill="black"/>
<path d="M148.355 65.6001C148.647 64.9792 148.868 64.334 149.017 63.6709L163.761 66.6401C163.394 68.2902 162.843 69.9032 162.12 71.4435L148.355 65.6001Z" fill="black"/>
<path d="M145.829 68.911C146.372 68.4525 146.853 67.9282 147.279 67.373L159.465 75.8165C158.423 77.1804 157.238 78.447 155.917 79.5717L145.829 68.911Z" fill="black"/>
<path d="M142.125 70.9489C142.8 70.739 143.454 70.461 144.076 70.1196L151.623 82.541C150.09 83.385 148.464 84.077 146.779 84.5986L142.125 70.9489Z" fill="black"/>
<path d="M137.841 71.374C138.556 71.4471 139.317 71.4471 140.032 71.374L141.59 85.6481C139.828 85.8232 138.046 85.8232 136.284 85.6481L137.841 71.374Z" fill="black"/>
<path d="M133.797 70.1196C134.419 70.461 135.072 70.739 135.748 70.9489L131.094 84.5986C129.41 84.077 127.783 83.385 126.25 82.541L133.797 70.1196Z" fill="black"/>
<path d="M121.957 79.5713C123.275 80.6983 124.716 81.6962 126.25 82.5405L118.702 94.9619C116.256 93.6145 113.965 92.027 111.869 90.2327L121.957 79.5713Z" fill="black"/>
<path d="M115.754 71.4434C116.476 72.9833 117.368 74.452 118.409 75.816L106.223 84.2606C104.565 82.089 103.142 79.7484 101.989 77.2879L115.754 71.4434Z" fill="black"/>
<path d="M113.559 61.6162C113.559 63.3026 113.743 64.9902 114.112 66.64L99.3674 69.6104C98.7794 66.9736 98.4871 64.2835 98.4883 61.6162H113.559Z" fill="black"/>
<path d="M115.753 51.7882C115.032 53.3281 114.48 54.9415 114.112 56.5912L99.3672 53.6212C99.9535 50.9856 100.835 48.4041 101.989 45.9448L115.753 51.7882Z" fill="black"/>
<path d="M121.957 43.6605C120.637 44.7848 119.451 46.0529 118.408 47.4157L106.223 38.9712C107.883 36.8007 109.771 34.7902 111.869 32.999L121.957 43.6605Z" fill="black"/>
<path d="M130.595 67.373C131.02 67.9282 131.501 68.4525 132.046 68.911L121.957 79.5717C120.637 78.447 119.451 77.1804 118.409 75.8165L130.595 67.373Z" fill="black"/>
<path d="M128.857 63.6709C129.007 64.334 129.228 64.9792 129.519 65.6001L115.754 71.4435C115.032 69.9032 114.48 68.2902 114.112 66.6401L128.857 63.6709Z" fill="black"/>
<path d="M128.857 59.5617C128.708 60.2259 128.631 60.9099 128.63 61.6166H113.559C113.559 59.929 113.743 58.2414 114.112 56.5913L128.857 59.5617Z" fill="black"/>
<path d="M130.595 55.8589C130.171 56.4172 129.81 57.0118 129.519 57.6327L115.753 51.7882C116.476 50.2479 117.368 48.7803 118.409 47.4155L130.595 55.8589Z" fill="black"/>
<path d="M133.797 53.1134C133.175 53.4548 132.586 53.8604 132.046 54.3216L121.957 43.6602C123.275 42.5328 124.716 41.5353 126.25 40.6909L133.797 53.1134Z" fill="black"/>
<path d="M131.094 38.6332C129.41 39.1556 127.783 39.8465 126.25 40.6908L118.702 28.2695C121.147 26.9233 123.746 25.8179 126.44 24.9844L131.094 38.6332Z" fill="black"/>
<path d="M141.589 37.5833C139.827 37.4082 138.046 37.4082 136.284 37.5833L134.726 23.31C137.535 23.0321 140.338 23.0321 143.148 23.31L141.589 37.5833Z" fill="black"/>
<path d="M151.623 40.6908C150.09 39.8465 148.464 39.1556 146.779 38.6332L151.433 24.9844C154.127 25.8179 156.726 26.9233 159.171 28.2695L151.623 40.6908Z" fill="black"/>
<path d="M159.464 47.4157C158.422 46.0529 157.237 44.7848 155.916 43.6605L166.004 32.999C168.103 34.7902 169.99 36.8007 171.65 38.9712L159.464 47.4157Z" fill="black"/>
<path d="M163.761 56.5912C163.393 54.9415 162.842 53.3281 162.12 51.7882L175.885 45.9448C177.038 48.4041 177.919 50.9856 178.507 53.6212L163.761 56.5912Z" fill="black"/>
<path d="M137.841 51.8575C137.122 51.9298 136.424 52.0721 135.749 52.2832L131.094 38.6336C132.779 38.1108 134.521 37.7594 136.284 37.5835L137.841 51.8575Z" fill="black"/>
<path d="M142.125 52.2832C141.45 52.0721 140.752 51.9298 140.033 51.8575L141.59 37.5835C143.353 37.7594 145.095 38.1108 146.78 38.6336L142.125 52.2832Z" fill="black"/>
<path d="M145.828 54.3216C145.286 53.8604 144.697 53.4548 144.076 53.1134L151.623 40.6909C153.157 41.5353 154.598 42.5328 155.916 43.6602L145.828 54.3216Z" fill="black"/>
<path d="M148.355 57.6327C148.064 57.0118 147.702 56.4172 147.278 55.8589L159.465 47.4155C160.505 48.7803 161.398 50.2479 162.12 51.7882L148.355 57.6327Z" fill="black"/>
<path d="M149.243 61.6166C149.243 60.9099 149.165 60.2259 149.017 59.5617L163.762 56.5913C164.131 58.2414 164.315 59.929 164.315 61.6166H149.243Z" fill="black"/>
<path d="M138.952 61.3839C138.955 61.3808 138.956 61.3769 138.956 61.373H149.388C149.389 62.3972 149.219 63.4465 148.878 64.4463C148.537 65.4469 148.03 66.3891 147.387 67.2284L138.952 61.3839Z" fill="black"/>
<path d="M138.931 61.3906C138.935 61.3914 138.939 61.3914 138.943 61.3906L142.164 70.8389C141.114 71.1632 140.013 71.3256 138.937 71.3248C137.861 71.3256 136.759 71.1632 135.709 70.8389L138.931 61.3906Z" fill="black"/>
<path d="M138.916 61.373C138.916 61.3769 138.918 61.3808 138.921 61.3839L130.485 67.2284C129.843 66.3891 129.336 65.4469 128.995 64.4463C128.654 63.4465 128.484 62.3972 128.484 61.373H138.916Z" fill="black"/>
<path d="M138.931 61.355C138.927 61.3557 138.923 61.3588 138.921 61.3619L130.486 55.5162C131.128 54.6761 131.905 53.9369 132.787 53.326C133.669 52.7144 134.658 52.2315 135.709 51.9067L138.931 61.355Z" fill="black"/>
<path d="M138.952 61.3619C138.95 61.3588 138.947 61.3557 138.943 61.355L142.164 51.9067C143.215 52.2315 144.205 52.7144 145.087 53.326C145.97 53.9369 146.746 54.6761 147.388 55.5162L138.952 61.3619Z" fill="black"/>
<path d="M135.721 51.9424C134.673 52.266 133.688 52.7462 132.81 53.3559C131.93 53.9644 131.157 54.7017 130.517 55.5383L138.952 61.3837C138.95 61.3867 138.947 61.3887 138.942 61.3906L135.721 51.9424Z" fill="black"/>
<path d="M147.356 55.5383C146.717 54.7017 145.943 53.9644 145.064 53.3559C144.185 52.7462 143.2 52.266 142.153 51.9424L138.931 61.3906C138.927 61.3887 138.923 61.3867 138.921 61.3837L147.356 55.5383Z" fill="black"/>
<path d="M147.357 67.2065C147.997 66.3702 148.501 65.4319 148.841 64.4344C149.182 63.4388 149.351 62.3934 149.35 61.3731H138.917C138.917 61.3693 138.919 61.365 138.921 61.3623L147.357 67.2065Z" fill="black"/>
<path d="M135.722 70.8032C136.767 71.1272 137.865 71.2884 138.937 71.2873C140.008 71.2884 141.107 71.1272 142.153 70.8032L138.931 61.3554C138.935 61.3542 138.939 61.3542 138.943 61.3554L135.722 70.8032Z" fill="black"/>
<path d="M128.524 61.3731C128.523 62.3934 128.692 63.4388 129.032 64.4344C129.372 65.4319 129.878 66.3702 130.517 67.2065L138.952 61.3623C138.955 61.365 138.956 61.3693 138.956 61.3731H128.524Z" fill="black"/>
</g>
<rect x="107.28" y="2.27997" width="88.4401" height="93.4401" rx="44.22" stroke="black" stroke-width="0.559943"/>
<g clip-path="url(#clip2_535_55418)">
<path d="M293.521 86.2178C294.712 85.1352 295.849 83.9989 296.932 82.8193L308.182 92.1854C306.806 93.6844 305.363 95.1269 303.85 96.5009L293.521 86.2178Z" fill="black"/>
<path d="M294.937 55.1842C295.148 54.0613 295.305 52.9289 295.412 51.7896L310.297 53.0485C310.151 54.6099 309.934 56.1655 309.643 57.7082L294.937 55.1842Z" fill="black"/>
<path d="M293.032 61.7616C293.451 60.6958 293.821 59.6121 294.139 58.5142L308.547 62.2925C308.109 63.8037 307.6 65.2953 307.022 66.7636L293.032 61.7616Z" fill="black"/>
<path d="M289.915 67.9135C290.531 66.9344 291.102 65.9304 291.622 64.9038L305.082 71.0865C304.367 72.4988 303.583 73.8785 302.736 75.2229L289.915 67.9135Z" fill="black"/>
<path d="M285.682 73.4527C286.473 72.5909 287.222 71.6961 287.929 70.7715L300.012 79.1447C299.043 80.4117 298.015 81.6384 296.932 82.8192L285.682 73.4527Z" fill="black"/>
<path d="M280.478 78.1908C281.417 77.4774 282.323 76.7237 283.193 75.9336L293.521 86.2175C292.331 87.3 291.09 88.3324 289.802 89.31L280.478 78.1908Z" fill="black"/>
<path d="M285.811 92.0768C287.183 91.2112 288.516 90.2877 289.802 89.3105L299.128 100.429C297.493 101.672 295.8 102.846 294.054 103.945L285.811 92.0768Z" fill="black"/>
<mask id="mask35_535_55418" style="mask-type:luminance" maskUnits="userSpaceOnUse" x="277" y="94" width="12" height="15">
<path d="M277.119 94.4277H288.766V108.76H277.119V94.4277Z" fill="white"/>
</mask>
<g mask="url(#mask35_535_55418)">
<path d="M277.128 96.5348C278.643 95.9195 280.128 95.2387 281.576 94.4927L288.669 107.017C286.826 107.966 284.936 108.833 283.009 109.617L277.128 96.5348Z" fill="black"/>
</g>
<path d="M274.483 81.9679C275.537 81.4254 276.567 80.8374 277.567 80.2075L285.811 92.0762C284.438 92.941 283.024 93.7476 281.576 94.4924L274.483 81.9679Z" fill="black"/>
<path d="M267.89 84.6523C269.028 84.3 270.148 83.9005 271.249 83.4531L277.128 96.5347C275.614 97.15 274.071 97.7016 272.505 98.1854L267.89 84.6523Z" fill="black"/>
<path d="M260.899 86.1654C262.087 86.0143 263.269 85.8161 264.434 85.5601L267.746 99.4359C266.141 99.7863 264.519 100.061 262.887 100.269L260.899 86.1654Z" fill="black"/>
<path d="M253.691 86.4702C253.992 86.4779 254.293 86.4959 254.594 86.4997L255.5 86.5112L256.406 86.4997C256.708 86.4959 257.008 86.4779 257.309 86.4702L257.969 100.686C257.557 100.698 257.146 100.72 256.735 100.726L255.5 100.741L254.265 100.726C253.854 100.72 253.443 100.698 253.032 100.686L253.691 86.4702Z" fill="black"/>
<path d="M246.567 85.5601C247.733 85.8161 248.913 86.0143 250.102 86.1654L248.113 100.269C246.482 100.061 244.86 99.7863 243.255 99.4359L246.567 85.5601Z" fill="black"/>
<mask id="mask36_535_55418" style="mask-type:luminance" maskUnits="userSpaceOnUse" x="222" y="94" width="12" height="15">
<path d="M222.286 94.4277H233.933V108.76H222.286V94.4277Z" fill="white"/>
</mask>
<g mask="url(#mask36_535_55418)">
<path d="M229.425 94.4927C230.873 95.2387 232.358 95.9195 233.873 96.5348L227.992 109.617C226.065 108.833 224.175 107.966 222.333 107.017L229.425 94.4927Z" fill="black"/>
</g>
<path d="M221.198 89.3105C222.484 90.2877 223.817 91.2112 225.19 92.0768L216.946 103.945C215.2 102.846 213.508 101.672 211.873 100.429L221.198 89.3105Z" fill="black"/>
<path d="M214.068 82.8193C215.152 83.9989 216.288 85.1352 217.479 86.2178L207.151 96.5009C205.638 95.1269 204.194 93.6844 202.818 92.1854L214.068 82.8193Z" fill="black"/>
<path d="M239.752 83.4531C240.852 83.9005 241.973 84.3 243.11 84.6523L238.495 98.1854C236.929 97.7016 235.386 97.15 233.872 96.5347L239.752 83.4531Z" fill="black"/>
<path d="M233.434 80.2075C234.435 80.8374 235.464 81.4254 236.518 81.9679L229.425 94.4924C227.977 93.7476 226.562 92.941 225.19 92.0762L233.434 80.2075Z" fill="black"/>
<path d="M227.809 75.9336C228.679 76.7237 229.584 77.4774 230.523 78.1908L221.199 89.31C219.911 88.3324 218.67 87.3 217.48 86.2175L227.809 75.9336Z" fill="black"/>
<path d="M223.072 70.7715C223.778 71.6961 224.527 72.5909 225.318 73.4527L214.068 82.8192C212.985 81.6384 211.957 80.4117 210.988 79.1447L223.072 70.7715Z" fill="black"/>
<path d="M219.378 64.9038C219.898 65.9304 220.47 66.9344 221.086 67.9135L208.264 75.2229C207.418 73.8785 206.635 72.4988 205.918 71.0865L219.378 64.9038Z" fill="black"/>
<path d="M216.862 58.5142C217.181 59.6121 217.55 60.6958 217.969 61.7616L203.979 66.7636C203.401 65.2953 202.892 63.8037 202.454 62.2925L216.862 58.5142Z" fill="black"/>
<path d="M215.589 51.7896C215.695 52.9289 215.854 54.0613 216.064 55.1842L201.358 57.7082C201.067 56.1655 200.849 54.6099 200.704 53.0485L215.589 51.7896Z" fill="black"/>
<path d="M215.589 44.9146C215.483 46.0551 215.429 47.2013 215.426 48.3525H200.482C200.485 46.7842 200.558 45.2167 200.705 43.6553L215.589 44.9146Z" fill="black"/>
<path d="M216.862 38.1904C216.545 39.2876 216.275 40.3986 216.064 41.5203L201.358 38.9963C201.647 37.4525 202.017 35.9233 202.454 34.4121L216.862 38.1904Z" fill="black"/>
<path d="M219.378 31.8014C218.859 32.8288 218.39 33.878 217.969 34.9437L203.979 29.9414C204.557 28.4743 205.204 27.0305 205.918 25.6187L219.378 31.8014Z" fill="black"/>
<mask id="mask37_535_55418" style="mask-type:luminance" maskUnits="userSpaceOnUse" x="198" y="4" width="17" height="14">
<path d="M198.919 4.43457H214.144V17.5852H198.919V4.43457Z" fill="white"/>
</mask>
<g mask="url(#mask37_535_55418)">
<path d="M214.068 13.886C212.985 15.0664 211.957 16.2931 210.988 17.5612L198.905 9.18802C200.136 7.57755 201.442 6.01921 202.818 4.51953L214.068 13.886Z" fill="black"/>
</g>
<path d="M221.198 7.39458C219.911 8.37213 218.67 9.4045 217.479 10.4871L207.151 0.204004C208.663 -1.17185 210.239 -2.48293 211.873 -3.72461L221.198 7.39458Z" fill="black"/>
<path d="M229.426 2.21206C227.978 2.95692 226.563 3.7635 225.191 4.62911L216.947 -7.23992C218.692 -8.33899 220.489 -9.36447 222.333 -10.3125L229.426 2.21206Z" fill="black"/>
<path d="M223.072 25.9331C222.365 26.8578 221.702 27.8115 221.086 28.791L208.264 21.4816C209.11 20.1372 210.019 18.828 210.988 17.561L223.072 25.9331Z" fill="black"/>
<path d="M227.808 20.7707C226.938 21.5596 226.109 22.3907 225.318 23.2514L214.068 13.8853C215.152 12.7057 216.288 11.569 217.479 10.4868L227.808 20.7707Z" fill="black"/>
<path d="M233.434 16.4968C232.433 17.1266 231.461 17.8002 230.522 18.5136L221.198 7.39442C222.484 6.41687 223.817 5.49337 225.19 4.62891L233.434 16.4968Z" fill="black"/>
<path d="M239.753 13.2509C238.652 13.6975 237.572 14.1932 236.518 14.7356L229.425 2.21146C230.873 1.46545 232.358 0.784229 233.873 0.168945L239.753 13.2509Z" fill="black"/>
<path d="M246.567 11.1444C245.401 11.3986 244.247 11.7007 243.11 12.053L238.495 -1.48133C240.06 -1.96512 241.65 -2.38221 243.255 -2.73145L246.567 11.1444Z" fill="black"/>
<path d="M285.811 4.62911C284.438 3.7635 283.024 2.95692 281.576 2.21206L288.669 -10.3125C290.512 -9.36447 292.309 -8.33899 294.054 -7.23992L285.811 4.62911Z" fill="black"/>
<path d="M253.691 10.2353C252.488 10.2863 251.29 10.3875 250.102 10.5386L248.113 -3.56387C249.746 -3.77203 251.387 -3.91042 253.032 -3.98096L253.691 10.2353Z" fill="black"/>
<path d="M260.899 10.5386C259.711 10.3875 258.513 10.2863 257.31 10.2353L257.969 -3.98096C259.614 -3.91042 261.255 -3.77203 262.888 -3.56387L260.899 10.5386Z" fill="black"/>
<path d="M267.89 12.053C266.753 11.7007 265.6 11.3986 264.434 11.1444L267.746 -2.73145C269.352 -2.38221 270.94 -1.96512 272.505 -1.48133L267.89 12.053Z" fill="black"/>
<path d="M274.482 14.7356C273.429 14.1932 272.349 13.6975 271.249 13.2509L277.128 0.168945C278.642 0.784229 280.127 1.46545 281.575 2.21146L274.482 14.7356Z" fill="black"/>
<path d="M280.478 18.5136C279.539 17.8002 278.567 17.1266 277.566 16.4968L285.81 4.62891C287.183 5.49337 288.516 6.41687 289.802 7.39442L280.478 18.5136Z" fill="black"/>
<path d="M293.522 10.4871C292.331 9.4045 291.09 8.37213 289.803 7.39458L299.128 -3.72461C300.762 -2.48293 302.339 -1.17185 303.85 0.204004L293.522 10.4871Z" fill="black"/>
<mask id="mask38_535_55418" style="mask-type:luminance" maskUnits="userSpaceOnUse" x="296" y="4" width="17" height="14">
<path d="M296.908 4.43457H312.081V17.5852H296.908V4.43457Z" fill="white"/>
</mask>
<g mask="url(#mask38_535_55418)">
<path d="M300.013 17.5612C299.044 16.2931 298.016 15.0664 296.933 13.886L308.183 4.51953C309.558 6.01921 310.865 7.57755 312.095 9.18802L300.013 17.5612Z" fill="black"/>
</g>
<path d="M285.683 23.2514C284.892 22.3907 284.062 21.5596 283.192 20.7707L293.521 10.4868C294.712 11.569 295.849 12.7057 296.932 13.8853L285.683 23.2514Z" fill="black"/>
<path d="M289.914 28.791C289.298 27.8115 288.635 26.8578 287.929 25.9331L300.012 17.561C300.981 18.828 301.89 20.1372 302.736 21.4816L289.914 28.791Z" fill="black"/>
<path d="M293.032 34.9437C292.612 33.878 292.142 32.8288 291.623 31.8014L305.082 25.6187C305.796 27.0305 306.444 28.4743 307.022 29.9414L293.032 34.9437Z" fill="black"/>
<path d="M294.937 41.5203C294.726 40.3986 294.456 39.2876 294.139 38.1904L308.547 34.4121C308.984 35.9233 309.354 37.4525 309.643 38.9963L294.937 41.5203Z" fill="black"/>
<path d="M295.575 48.3525C295.572 47.2013 295.518 46.0551 295.412 44.9146L310.297 43.6553C310.443 45.2167 310.516 46.7842 310.519 48.3525H295.575Z" fill="black"/>
<path d="M280.115 53.3338C280.481 51.6981 280.663 50.0247 280.663 48.3525H295.608C295.608 50.9973 295.318 53.6647 294.736 56.2792L280.115 53.3338Z" fill="black"/>
<path d="M275.855 62.4324C276.887 61.0799 277.772 59.6236 278.488 58.0967L292.137 63.8918C290.994 66.3315 289.583 68.6523 287.938 70.8056L275.855 62.4324Z" fill="black"/>
<path d="M268.08 69.1004C269.601 68.2632 271.03 67.2737 272.337 66.1562L282.339 76.7276C280.263 78.5068 277.989 80.0808 275.564 81.4168L268.08 69.1004Z" fill="black"/>
<path d="M258.13 72.1813C259.879 72.0077 261.606 71.658 263.277 71.1401L267.891 84.6733C265.222 85.5006 262.457 86.058 259.676 86.334L258.13 72.1813Z" fill="black"/>
<path d="M247.724 71.1401C249.395 71.658 251.122 72.0077 252.87 72.1813L251.325 86.334C248.543 86.058 245.78 85.5006 243.11 84.6733L247.724 71.1401Z" fill="black"/>
<path d="M264.839 52.3031C265.128 51.6874 265.347 51.0476 265.495 50.3901L280.115 53.3343C279.75 54.9705 279.204 56.5698 278.488 58.0971L264.839 52.3031Z" fill="black"/>
<path d="M262.334 55.5855C262.873 55.1309 263.35 54.611 263.772 54.0605L275.855 62.4326C274.822 63.7851 273.647 65.041 272.337 66.1561L262.334 55.5855Z" fill="black"/>
<path d="M258.662 57.606C259.332 57.3978 259.98 57.1222 260.596 56.7837L268.08 69.1001C266.56 69.937 264.948 70.6232 263.277 71.1403L258.662 57.606Z" fill="black"/>
<path d="M254.414 58.0283C255.123 58.1008 255.878 58.1008 256.587 58.0283L258.131 72.1818C256.384 72.3554 254.617 72.3554 252.87 72.1818L254.414 58.0283Z" fill="black"/>
<path d="M250.405 56.7837C251.021 57.1222 251.669 57.3978 252.339 57.606L247.724 71.1403C246.054 70.6232 244.441 69.937 242.921 69.1001L250.405 56.7837Z" fill="black"/>
<path d="M238.664 66.1562C239.971 67.2737 241.4 68.2632 242.921 69.1004L235.437 81.4168C233.012 80.0808 230.739 78.5068 228.662 76.7276L238.664 66.1562Z" fill="black"/>
<path d="M232.513 58.0967C233.229 59.6236 234.114 61.0799 235.145 62.4324L223.063 70.8056C221.419 68.6523 220.008 66.3315 218.865 63.8918L232.513 58.0967Z" fill="black"/>
<path d="M230.337 48.3525C230.337 50.0247 230.52 51.6981 230.886 53.3338L216.265 56.2792C215.682 53.6647 215.392 50.9973 215.394 48.3525H230.337Z" fill="black"/>
<path d="M232.513 38.608C231.798 40.1349 231.25 41.7346 230.886 43.3704L216.265 40.4255C216.847 37.8121 217.721 35.2525 218.865 32.814L232.513 38.608Z" fill="black"/>
<path d="M238.664 30.5484C237.355 31.6632 236.179 32.9206 235.146 34.2719L223.063 25.8987C224.709 23.7466 226.582 21.7531 228.662 19.9771L238.664 30.5484Z" fill="black"/>
<path d="M247.229 54.0605C247.651 54.611 248.128 55.1309 248.668 55.5855L238.664 66.1561C237.355 65.041 236.179 63.7851 235.146 62.4326L247.229 54.0605Z" fill="black"/>
<path d="M245.506 50.3901C245.654 51.0476 245.874 51.6874 246.162 52.3031L232.513 58.0971C231.798 56.5698 231.251 54.9705 230.886 53.3343L245.506 50.3901Z" fill="black"/>
<path d="M245.506 46.3154C245.359 46.974 245.282 47.6522 245.281 48.353H230.337C230.337 46.6796 230.52 45.0063 230.886 43.3701L245.506 46.3154Z" fill="black"/>
<path d="M247.229 42.6436C246.809 43.1971 246.451 43.7867 246.162 44.4024L232.513 38.6072C233.229 37.0799 234.113 35.6247 235.145 34.2715L247.229 42.6436Z" fill="black"/>
<path d="M250.405 39.9216C249.788 40.2601 249.204 40.6622 248.668 41.1195L238.664 30.5482C239.971 29.4303 241.4 28.4412 242.921 27.604L250.405 39.9216Z" fill="black"/>
<path d="M247.724 25.5643C246.054 26.0822 244.441 26.7673 242.921 27.6045L235.437 15.2881C237.861 13.9533 240.438 12.8573 243.11 12.0308L247.724 25.5643Z" fill="black"/>
<path d="M258.13 24.523C256.384 24.3493 254.617 24.3493 252.87 24.523L251.325 10.3703C254.111 10.0947 256.89 10.0947 259.676 10.3703L258.13 24.523Z" fill="black"/>
<path d="M268.08 27.6045C266.56 26.7673 264.948 26.0822 263.277 25.5643L267.891 12.0308C270.563 12.8573 273.14 13.9533 275.564 15.2881L268.08 27.6045Z" fill="black"/>
<path d="M275.855 34.2719C274.821 32.9206 273.646 31.6632 272.336 30.5484L282.339 19.9771C284.42 21.7531 286.292 23.7466 287.938 25.8987L275.855 34.2719Z" fill="black"/>
<path d="M280.115 43.3704C279.75 41.7346 279.204 40.1349 278.488 38.608L292.137 32.814C293.28 35.2525 294.154 37.8121 294.736 40.4255L280.115 43.3704Z" fill="black"/>
<path d="M254.414 38.6764C253.701 38.7481 253.009 38.8891 252.339 39.0985L247.724 25.5641C249.395 25.0458 251.122 24.6974 252.87 24.5229L254.414 38.6764Z" fill="black"/>
<path d="M258.662 39.0985C257.992 38.8891 257.3 38.7481 256.587 38.6764L258.131 24.5229C259.879 24.6974 261.606 25.0458 263.277 25.5641L258.662 39.0985Z" fill="black"/>
<path d="M262.334 41.1195C261.797 40.6622 261.213 40.2601 260.596 39.9216L268.08 27.604C269.601 28.4412 271.03 29.4303 272.337 30.5482L262.334 41.1195Z" fill="black"/>
<path d="M264.839 44.4024C264.551 43.7867 264.192 43.1971 263.771 42.6436L275.855 34.2715C276.887 35.6247 277.772 37.0799 278.488 38.6072L264.839 44.4024Z" fill="black"/>
<path d="M265.719 48.353C265.719 47.6522 265.642 46.974 265.495 46.3154L280.115 43.3701C280.481 45.0063 280.663 46.6796 280.663 48.353H265.719Z" fill="black"/>
<path d="M255.516 48.1221C255.519 48.119 255.52 48.1152 255.52 48.1113H265.864C265.865 49.1268 265.696 50.1673 265.358 51.1586C265.02 52.1507 264.517 53.085 263.88 53.9172L255.516 48.1221Z" fill="black"/>
<path d="M255.495 48.1289C255.499 48.1297 255.503 48.1297 255.507 48.1289L258.701 57.4973C257.66 57.8189 256.568 57.98 255.501 57.9792C254.434 57.98 253.341 57.8189 252.3 57.4973L255.495 48.1289Z" fill="black"/>
<path d="M255.48 48.1113C255.48 48.1152 255.482 48.119 255.485 48.1221L247.12 53.9172C246.483 53.085 245.981 52.1507 245.642 51.1586C245.304 50.1673 245.135 49.1268 245.136 48.1113H255.48Z" fill="black"/>
<path d="M255.495 48.094C255.491 48.0948 255.487 48.0978 255.485 48.1009L247.121 42.3046C247.758 41.4716 248.528 40.7386 249.403 40.1329C250.277 39.5264 251.258 39.0476 252.3 38.7256L255.495 48.094Z" fill="black"/>
<path d="M255.516 48.1009C255.514 48.0978 255.511 48.0948 255.506 48.094L258.701 38.7256C259.743 39.0476 260.724 39.5264 261.599 40.1329C262.474 40.7386 263.244 41.4716 263.88 42.3046L255.516 48.1009Z" fill="black"/>
<path d="M252.312 38.7603C251.273 39.0811 250.296 39.5572 249.425 40.1618C248.553 40.7652 247.786 41.4963 247.151 42.3258L255.515 48.1218C255.513 48.1248 255.51 48.1267 255.506 48.1287L252.312 38.7603Z" fill="black"/>
<path d="M263.849 42.3258C263.215 41.4963 262.447 40.7652 261.575 40.1618C260.704 39.5572 259.727 39.0811 258.689 38.7603L255.494 48.1287C255.491 48.1267 255.487 48.1248 255.485 48.1218L263.849 42.3258Z" fill="black"/>
<path d="M263.849 53.8954C264.484 53.0662 264.984 52.1358 265.321 51.1467C265.658 50.1596 265.827 49.123 265.826 48.1113H255.48C255.48 48.1075 255.482 48.1033 255.485 48.1006L263.849 53.8954Z" fill="black"/>
<path d="M252.312 57.4621C253.349 57.7834 254.437 57.9433 255.5 57.9421C256.562 57.9433 257.652 57.7834 258.689 57.4621L255.494 48.0941C255.498 48.093 255.502 48.093 255.506 48.0941L252.312 57.4621Z" fill="black"/>
<path d="M245.175 48.1113C245.174 49.123 245.342 50.1596 245.679 51.1467C246.016 52.1358 246.518 53.0662 247.151 53.8954L255.515 48.1006C255.518 48.1033 255.52 48.1075 255.52 48.1113H245.175Z" fill="black"/>
</g>
<rect x="211.28" y="2.27997" width="88.4401" height="93.4401" rx="44.22" stroke="black" stroke-width="0.559943"/>
<defs>
<clipPath id="clip0_535_55418">
<rect x="3" y="2" width="89" height="94" rx="44.5" fill="white"/>
</clipPath>
<clipPath id="clip1_535_55418">
<rect x="107" y="2" width="89" height="94" rx="44.5" fill="white"/>
</clipPath>
<clipPath id="clip2_535_55418">
<rect x="211" y="2" width="89" height="94" rx="44.5" fill="white"/>
</clipPath>
</defs>
</svg>
