<svg width="61" height="64" viewBox="0 0 61 64" fill="none" xmlns="http://www.w3.org/2000/svg">
<path d="M57.2158 0.909633L21.4576 21.6783C21.0964 21.8589 20.7352 22.2201 20.5546 22.5813L0.50838 60.5066C-0.0334108 61.4096 0.147188 62.4932 0.869576 63.2156C1.23077 63.5768 1.95315 63.7574 2.49494 63.7574C2.85614 63.7574 3.21734 63.5768 3.57853 63.3962L42.0457 41.1828C42.4069 41.0022 42.7681 40.641 42.9487 40.2798L60.4666 3.79919C60.8278 2.8962 60.6472 1.81262 59.9248 1.09023C59.2024 0.367842 58.1188 0.367842 57.2158 0.909633ZM39.3367 37.932L8.27405 55.8111L24.3472 25.2902L53.2427 8.31411L39.3367 37.932Z" fill="black"/>
</svg>
