<svg width="301" height="137" viewBox="0 0 301 137" fill="none" xmlns="http://www.w3.org/2000/svg">
<g clip-path="url(#clip0_535_56409)">
<g clip-path="url(#clip1_535_56409)">
<path d="M-12.7286 92.233L19.2909 65.2709L-7.67054 97.2911L-12.7286 92.233Z" fill="#181B21"/>
<path d="M-19.213 85.7487L12.8065 58.7865L-14.1572 90.8045L-19.213 85.7487Z" fill="#181B21"/>
<path d="M-25.6989 79.2633L6.31915 52.2996L-20.643 84.3191L-25.6989 79.2633Z" fill="#181B21"/>
<path d="M-32.1857 72.7765L-0.166151 45.8143L-27.1298 77.8323L-32.1857 72.7765Z" fill="#181B21"/>
<path d="M42.6905 88.7016L74.7108 61.7386L47.7486 93.7597L42.6905 88.7016Z" fill="#181B21"/>
<path d="M36.2057 82.2167L68.2244 55.2523L68.2267 55.2545L41.2622 87.2733L36.2057 82.2167Z" fill="#181B21"/>
<path d="M29.7184 75.7294L61.7394 48.7672L34.7765 80.7875L29.7184 75.7294Z" fill="#181B21"/>
<path d="M23.234 69.245L55.2543 42.2821L28.2898 74.3009L23.234 69.245Z" fill="#181B21"/>
<path d="M16.7467 62.7577L48.767 35.7948L21.8048 67.8158L16.7467 62.7577Z" fill="#181B21"/>
<path d="M10.2623 56.2733L42.2826 29.3104L15.3181 61.3292L10.2623 56.2733Z" fill="#181B21"/>
<path d="M3.77695 49.788L35.7957 22.8235L8.83278 54.8438L3.77695 49.788Z" fill="#181B21"/>
<path d="M-2.71036 43.3007L29.3099 16.3378L2.34548 48.3565L-2.71036 43.3007Z" fill="#181B21"/>
<path d="M-9.19473 36.8163L22.8233 9.85111L-4.1389 41.8721L-9.19473 36.8163Z" fill="#181B21"/>
<path d="M-15.682 30.329L16.3382 3.36608L-10.6247 35.3864L-15.682 30.329Z" fill="#181B21"/>
<path d="M-22.1679 23.8432L9.85089 -3.12128L-17.112 28.899L-22.1679 23.8432Z" fill="#181B21"/>
<path d="M-28.6547 17.3564L3.36634 -9.60582L-23.5966 22.4145L-28.6547 17.3564Z" fill="#181B21"/>
<path d="M104.595 91.6545L136.619 64.6901L109.654 96.7126L104.595 91.6545Z" fill="#181B21"/>
<path d="M98.1111 85.1701L130.134 58.2049L103.167 90.226L98.1111 85.1701Z" fill="#181B21"/>
<path d="M91.6258 78.6848L123.647 51.7181L96.6816 83.7406L91.6258 78.6848Z" fill="#181B21"/>
<path d="M85.1385 72.1975L117.162 45.233L90.1966 77.2556L85.1385 72.1975Z" fill="#181B21"/>
<path d="M78.6541 65.7131L110.675 38.7464L83.7099 70.7689L78.6541 65.7131Z" fill="#181B21"/>
<path d="M72.1668 59.2258L104.189 32.2606L77.2249 64.2839L72.1668 59.2258Z" fill="#181B21"/>
<path d="M65.6814 52.7405L97.7025 25.7737L97.7047 25.776L70.738 57.797L65.6814 52.7405Z" fill="#181B21"/>
<path d="M59.1941 46.2536L91.2174 19.2892L64.2522 51.3117L59.1941 46.2536Z" fill="#181B21"/>
<path d="M52.7097 39.7688L84.7323 12.8036L57.7656 44.8246L52.7097 39.7688Z" fill="#181B21"/>
<path d="M46.2224 33.282L78.245 6.31676L51.2805 38.3401L46.2224 33.282Z" fill="#181B21"/>
<path d="M39.7381 26.7971L71.7606 -0.168104L44.7939 31.8529L39.7381 26.7971Z" fill="#181B21"/>
<path d="M33.2527 20.3117L65.2737 -6.65497L38.3085 25.3676L33.2527 20.3117Z" fill="#181B21"/>
<path d="M26.7659 13.8249L58.7884 -13.1403L31.8217 18.8808L26.7659 13.8249Z" fill="#181B21"/>
<path d="M20.281 7.34006L52.3013 -19.6274L25.3369 12.3959L20.281 7.34006Z" fill="#181B21"/>
<path d="M13.7942 0.853248L45.8168 -26.112L18.8516 5.91059L13.7942 0.853248Z" fill="#181B21"/>
<path d="M160.016 88.122L192.038 61.1576L165.074 93.1801L160.016 88.122Z" fill="#181B21"/>
<path d="M153.531 81.6372L185.551 54.6704L185.553 54.6727L158.587 86.693L153.531 81.6372Z" fill="#181B21"/>
<path d="M147.044 75.1503L179.066 48.1859L152.102 80.2077L147.044 75.1503Z" fill="#181B21"/>
<path d="M140.559 68.665L172.582 41.7013L145.615 73.7208L140.559 68.665Z" fill="#181B21"/>
<path d="M134.072 62.1782L166.095 35.2145L139.13 67.2363L134.072 62.1782Z" fill="#181B21"/>
<path d="M127.587 55.6938L159.609 28.7294L132.643 60.7496L127.587 55.6938Z" fill="#181B21"/>
<path d="M121.102 49.208L153.122 22.242L126.158 54.2638L121.102 49.208Z" fill="#181B21"/>
<path d="M114.615 42.7211L146.637 15.7575L119.673 47.7792L114.615 42.7211Z" fill="#181B21"/>
<path d="M108.13 36.2363L140.151 9.27032L113.186 41.2921L108.13 36.2363Z" fill="#181B21"/>
<path d="M101.643 29.7495L133.665 2.78502L106.701 34.8076L101.643 29.7495Z" fill="#181B21"/>
<path d="M95.1583 23.2641L127.179 -3.70184L127.181 -3.69957L100.215 28.3207L95.1583 23.2641Z" fill="#181B21"/>
<path d="M88.6709 16.7768L120.693 -10.1869L93.7291 21.8349L88.6709 16.7768Z" fill="#181B21"/>
<path d="M82.1866 10.2924L114.208 -16.672L87.2424 15.3483L82.1866 10.2924Z" fill="#181B21"/>
<path d="M75.6993 3.80513L107.721 -23.1593L80.7574 8.86323L75.6993 3.80513Z" fill="#181B21"/>
<path d="M69.2149 -2.67925L101.237 -29.6437L74.2707 2.37658L69.2149 -2.67925Z" fill="#181B21"/>
<path d="M221.923 91.0771L253.943 64.1111L226.979 96.1329L221.923 91.0771Z" fill="#181B21"/>
<path d="M215.436 84.5903L247.458 57.6258L220.492 89.6461L215.436 84.5903Z" fill="#181B21"/>
<path d="M208.95 78.1044L240.971 51.1385L214.007 83.161L208.95 78.1044Z" fill="#181B21"/>
<path d="M202.463 71.6181L234.486 44.6544L207.522 76.6762L202.463 71.6181Z" fill="#181B21"/>
<path d="M195.979 65.1333L227.999 38.1673L228 38.1688L201.034 70.1891L195.979 65.1333Z" fill="#181B21"/>
<path d="M189.492 58.6464L221.514 31.682L194.55 63.7045L189.492 58.6464Z" fill="#181B21"/>
<path d="M183.007 52.1616L215.026 25.1949L215.029 25.1971L188.063 57.2174L183.007 52.1616Z" fill="#181B21"/>
<path d="M176.52 45.6748L208.542 18.7103L181.577 50.7321L176.52 45.6748Z" fill="#181B21"/>
<path d="M170.035 39.1894L202.057 12.2257L175.091 44.2452L170.035 39.1894Z" fill="#181B21"/>
<path d="M163.548 32.7026L195.57 5.7389L168.606 37.7607L163.548 32.7026Z" fill="#181B21"/>
<path d="M157.064 26.2177L189.085 -0.746718L162.119 31.2736L157.064 26.2177Z" fill="#181B21"/>
<path d="M150.578 19.7324L182.598 -7.23358L155.634 24.7882L150.578 19.7324Z" fill="#181B21"/>
<path d="M144.091 13.2451L176.113 -13.7186L149.149 18.3032L144.091 13.2451Z" fill="#181B21"/>
<path d="M137.606 6.76069L169.627 -20.2053L142.662 11.8165L137.606 6.76069Z" fill="#181B21"/>
<path d="M131.119 0.273387L163.141 -26.6911L136.177 5.33149L131.119 0.273387Z" fill="#181B21"/>
<path d="M270.858 81.0565L302.877 54.0921L302.878 54.0936L275.914 86.1124L270.858 81.0565Z" fill="#181B21"/>
<path d="M264.371 74.5697L296.391 47.6068L269.429 79.6278L264.371 74.5697Z" fill="#181B21"/>
<path d="M257.886 68.0844L289.907 41.1222L262.942 73.141L257.886 68.0844Z" fill="#181B21"/>
<path d="M251.401 61.5995L283.42 34.6351L256.457 66.6554L251.401 61.5995Z" fill="#181B21"/>
<path d="M244.914 55.1127L276.934 28.1498L249.97 60.1685L244.914 55.1127Z" fill="#181B21"/>
<path d="M238.428 48.6269L270.447 21.6624L243.485 53.6835L238.428 48.6269Z" fill="#181B21"/>
<path d="M231.941 42.14L263.963 15.1779L237 47.1981L231.941 42.14Z" fill="#181B21"/>
<path d="M225.457 35.6552L257.475 8.69073L257.477 8.69225L230.512 40.711L225.457 35.6552Z" fill="#181B21"/>
<path d="M218.97 29.1684L250.99 2.20543L224.028 34.2265L218.97 29.1684Z" fill="#181B21"/>
<path d="M212.485 22.6835L244.503 -4.2817L244.505 -4.27943L217.541 27.7393L212.485 22.6835Z" fill="#181B21"/>
<path d="M205.998 16.1967L238.018 -10.7662L211.055 21.254L205.998 16.1967Z" fill="#181B21"/>
<path d="M199.513 9.71133L231.534 -17.2508L204.569 14.7672L199.513 9.71133Z" fill="#181B21"/>
<path d="M193.026 3.22452L225.047 -23.7377L198.084 8.28262L193.026 3.22452Z" fill="#181B21"/>
<path d="M186.542 -3.25986L218.562 -30.2228L191.597 1.79598L186.542 -3.25986Z" fill="#181B21"/>
<path d="M300.334 51.581L332.354 24.6151L332.355 24.6166L305.389 56.6368L300.334 51.581Z" fill="#181B21"/>
<path d="M293.847 45.0942L325.869 18.1297L298.905 50.1523L293.847 45.0942Z" fill="#181B21"/>
<path d="M287.361 38.6083L319.384 11.6447L292.418 43.6649L287.361 38.6083Z" fill="#181B21"/>
<path d="M280.877 32.1235L312.897 5.15753L285.932 37.1793L280.877 32.1235Z" fill="#181B21"/>
<path d="M274.39 25.6367L306.411 -1.32777L279.446 30.6925L274.39 25.6367Z" fill="#181B21"/>
<path d="M267.904 19.1508L299.924 -7.81512L272.96 24.2074L267.904 19.1508Z" fill="#181B21"/>
<path d="M261.417 12.6645L293.44 -14.2992L266.475 17.7226L261.417 12.6645Z" fill="#181B21"/>
<path d="M254.933 6.17964L286.953 -20.7863L286.954 -20.7848L259.989 11.2355L254.933 6.17964Z" fill="#181B21"/>
<path d="M248.445 -0.307179L280.467 -27.2716L253.503 4.75092L248.445 -0.307179Z" fill="#181B21"/>
</g>
<rect x="0.347575" y="0.347575" width="300.305" height="63.9538" stroke="black" stroke-width="0.69515"/>
<g clip-path="url(#clip2_535_56409)">
<path d="M-24.6059 50.1998L2.35853 82.2215L-29.664 55.2579L-24.6059 50.1998Z" fill="#181B21"/>
<path d="M-18.121 43.7149L8.84567 75.7344L8.8434 75.7367L-23.1769 48.7707L-18.121 43.7149Z" fill="#181B21"/>
<path d="M-27.5587 112.109L-0.595031 144.127L-32.6146 117.165L-27.5587 112.109Z" fill="#181B21"/>
<path d="M-21.0719 105.621L5.89027 137.641L-26.1277 110.677L-21.0719 105.621Z" fill="#181B21"/>
<path d="M-14.5861 99.1356L12.3776 131.154L-19.6427 104.192L-14.5861 99.1356Z" fill="#181B21"/>
<path d="M-8.09925 92.6493L18.8622 124.67L-13.1574 97.7074L-8.09925 92.6493Z" fill="#181B21"/>
<path d="M-1.61439 86.1644L25.3493 118.182L25.3478 118.184L-6.67022 91.2203L-1.61439 86.1644Z" fill="#181B21"/>
<path d="M4.87243 79.6776L31.8346 111.697L-0.185672 84.7357L4.87243 79.6776Z" fill="#181B21"/>
<path d="M11.3573 73.1927L38.3217 105.21L38.3195 105.212L6.30146 78.2486L11.3573 73.1927Z" fill="#181B21"/>
<path d="M17.8441 66.7059L44.8063 98.7255L12.7868 71.7633L17.8441 66.7059Z" fill="#181B21"/>
<path d="M24.3295 60.2206L51.2909 92.2409L19.2736 65.2764L24.3295 60.2206Z" fill="#181B21"/>
<path d="M30.8163 53.7338L57.7777 85.754L25.7582 58.7919L30.8163 53.7338Z" fill="#181B21"/>
<path d="M37.3007 47.2489L64.2628 79.2684L32.2448 52.3047L37.3007 47.2489Z" fill="#181B21"/>
<path d="M43.7865 40.7635L70.7502 72.7816L38.7307 45.8194L43.7865 40.7635Z" fill="#181B21"/>
<path d="M8.40341 135.097L35.3663 167.118L3.34758 140.153L8.40341 135.097Z" fill="#181B21"/>
<path d="M14.8893 128.611L41.8537 160.63L9.83266 133.668L14.8893 128.611Z" fill="#181B21"/>
<path d="M21.3761 122.125L48.3382 154.146L16.318 127.183L21.3761 122.125Z" fill="#181B21"/>
<path d="M27.8609 115.64L54.8254 147.659L54.8239 147.66L22.8051 120.696L27.8609 115.64Z" fill="#181B21"/>
<path d="M34.3477 109.153L61.3107 141.173L29.2896 114.211L34.3477 109.153Z" fill="#181B21"/>
<path d="M40.8326 102.668L67.7978 134.686L67.7955 134.688L35.7768 107.724L40.8326 102.668Z" fill="#181B21"/>
<path d="M47.3194 96.1812L74.2824 128.202L42.2621 101.239L47.3194 96.1812Z" fill="#181B21"/>
<path d="M53.8048 89.6959L80.767 121.717L48.7489 94.7517L53.8048 89.6959Z" fill="#181B21"/>
<path d="M60.2916 83.2091L87.2538 115.23L55.2335 88.2672L60.2916 83.2091Z" fill="#181B21"/>
<path d="M66.776 76.7247L93.7389 108.745L61.7201 81.7805L66.776 76.7247Z" fill="#181B21"/>
<path d="M73.2618 70.2389L100.226 102.258L68.206 75.2947L73.2618 70.2389Z" fill="#181B21"/>
<path d="M79.7491 63.7516L106.711 95.7726L74.691 68.8097L79.7491 63.7516Z" fill="#181B21"/>
<path d="M86.2335 57.2672L113.198 89.2859L81.1777 62.323L86.2335 57.2672Z" fill="#181B21"/>
<path d="M92.7208 50.7799L119.684 82.8002L87.6627 55.838L92.7208 50.7799Z" fill="#181B21"/>
<path d="M99.2057 44.295L126.17 76.3138L126.168 76.3161L94.1491 49.3516L99.2057 44.295Z" fill="#181B21"/>
<path d="M105.693 37.8077L132.655 69.8287L100.635 42.8658L105.693 37.8077Z" fill="#181B21"/>
<path d="M70.3084 132.144L97.2758 164.165L97.2736 164.167L65.2525 137.2L70.3084 132.144Z" fill="#181B21"/>
<path d="M76.7952 125.657L103.76 157.68L71.7378 130.715L76.7952 125.657Z" fill="#181B21"/>
<path d="M83.281 119.172L110.245 151.195L78.2252 124.227L83.281 119.172Z" fill="#181B21"/>
<path d="M89.7678 112.685L116.732 144.708L84.7097 117.743L89.7678 112.685Z" fill="#181B21"/>
<path d="M96.2522 106.2L123.217 138.223L91.1964 111.256L96.2522 106.2Z" fill="#181B21"/>
<path d="M102.738 99.7151L129.704 131.736L97.6817 104.771L102.738 99.7151Z" fill="#181B21"/>
<path d="M109.225 93.2278L136.189 125.251L104.167 98.2859L109.225 93.2278Z" fill="#181B21"/>
<path d="M115.709 86.7434L142.676 118.764L110.653 91.7993L115.709 86.7434Z" fill="#181B21"/>
<path d="M122.197 80.2561L149.162 112.279L117.138 85.3142L122.197 80.2561Z" fill="#181B21"/>
<path d="M128.682 73.7708L155.649 105.792L155.646 105.794L123.625 78.8274L128.682 73.7708Z" fill="#181B21"/>
<path d="M135.169 67.2835L162.133 99.3068L130.111 72.3416L135.169 67.2835Z" fill="#181B21"/>
<path d="M141.654 60.7991L168.619 92.8216L136.598 65.8549L141.654 60.7991Z" fill="#181B21"/>
<path d="M148.14 54.3118L175.106 86.3343L143.082 59.3699L148.14 54.3118Z" fill="#181B21"/>
<path d="M154.625 47.8274L181.59 79.85L149.569 52.8832L154.625 47.8274Z" fill="#181B21"/>
<path d="M161.111 41.3421L188.077 73.3631L156.055 46.3979L161.111 41.3421Z" fill="#181B21"/>
<path d="M125.729 135.677L152.693 167.699L120.673 140.733L125.729 135.677Z" fill="#181B21"/>
<path d="M132.214 129.191L159.18 161.212L127.159 134.247L132.214 129.191Z" fill="#181B21"/>
<path d="M138.701 122.704L165.665 154.727L133.643 127.762L138.701 122.704Z" fill="#181B21"/>
<path d="M145.186 116.22L172.152 148.24L140.13 121.276L145.186 116.22Z" fill="#181B21"/>
<path d="M151.673 109.732L178.637 141.754L146.615 114.791L151.673 109.732Z" fill="#181B21"/>
<path d="M158.158 103.248L185.124 135.268L185.122 135.27L153.102 108.304L158.158 103.248Z" fill="#181B21"/>
<path d="M164.646 96.7603L191.609 128.783L159.587 101.818L164.646 96.7603Z" fill="#181B21"/>
<path d="M171.13 90.2759L198.094 122.298L166.074 95.3318L171.13 90.2759Z" fill="#181B21"/>
<path d="M177.617 83.7886L204.582 115.81L172.559 88.8467L177.617 83.7886Z" fill="#181B21"/>
<path d="M184.102 77.3042L211.066 109.326L179.046 82.3601L184.102 77.3042Z" fill="#181B21"/>
<path d="M190.587 70.8184L217.553 102.839L185.531 75.8742L190.587 70.8184Z" fill="#181B21"/>
<path d="M197.074 64.3316L224.038 96.3534L192.018 69.3874L197.074 64.3316Z" fill="#181B21"/>
<path d="M203.559 57.8467L230.525 89.8662L198.503 62.9026L203.559 57.8467Z" fill="#181B21"/>
<path d="M210.045 51.3599L237.01 83.3817L204.988 56.4173L210.045 51.3599Z" fill="#181B21"/>
<path d="M216.531 44.8741L243.497 76.8943L211.475 49.9299L216.531 44.8741Z" fill="#181B21"/>
<path d="M223.019 38.3873L249.982 70.4098L217.961 43.4454L223.019 38.3873Z" fill="#181B21"/>
<path d="M187.634 132.723L214.6 164.743L214.598 164.746L182.577 137.78L187.634 132.723Z" fill="#181B21"/>
<path d="M194.121 126.236L221.085 158.258L189.063 131.294L194.121 126.236Z" fill="#181B21"/>
<path d="M200.606 119.752L227.57 151.773L195.55 124.807L200.606 119.752Z" fill="#181B21"/>
<path d="M207.093 113.264L234.057 145.286L202.035 118.322L207.093 113.264Z" fill="#181B21"/>
<path d="M213.577 106.78L240.542 138.802L208.521 111.836L213.577 106.78Z" fill="#181B21"/>
<path d="M220.063 100.294L247.029 132.315L215.007 105.35L220.063 100.294Z" fill="#181B21"/>
<path d="M226.55 93.8077L253.514 125.829L221.494 98.8635L226.55 93.8077Z" fill="#181B21"/>
<path d="M233.035 87.3228L260.001 119.342L227.979 92.3786L233.035 87.3228Z" fill="#181B21"/>
<path d="M239.522 80.836L266.486 112.858L234.464 85.8933L239.522 80.836Z" fill="#181B21"/>
<path d="M246.007 74.3501L272.973 106.37L240.952 79.406L246.007 74.3501Z" fill="#181B21"/>
<path d="M252.494 67.8633L279.458 99.8859L247.436 72.9214L252.494 67.8633Z" fill="#181B21"/>
<path d="M258.979 61.3785L285.945 93.3987L285.943 93.4003L253.923 66.4343L258.979 61.3785Z" fill="#181B21"/>
<path d="M265.466 54.8917L292.43 86.9134L260.409 59.949L265.466 54.8917Z" fill="#181B21"/>
<path d="M271.951 48.4063L298.915 80.4288L266.895 53.4621L271.951 48.4063Z" fill="#181B21"/>
<path d="M278.436 41.9214L305.402 73.9417L273.38 46.9773L278.436 41.9214Z" fill="#181B21"/>
<path d="M243.055 136.258L270.018 168.278L237.999 141.314L243.055 136.258Z" fill="#181B21"/>
<path d="M249.541 129.773L276.505 161.791L244.485 134.828L249.541 129.773Z" fill="#181B21"/>
<path d="M256.028 123.285L282.991 155.306L250.972 128.341L256.028 123.285Z" fill="#181B21"/>
<path d="M262.512 116.801L289.478 148.819L257.456 121.857L262.512 116.801Z" fill="#181B21"/>
<path d="M269 110.314L295.963 142.334L263.942 115.371L269 110.314Z" fill="#181B21"/>
<path d="M275.485 103.828L302.45 135.846L270.43 108.884L275.485 103.828Z" fill="#181B21"/>
<path d="M281.972 97.3409L308.934 129.362L276.914 102.399L281.972 97.3409Z" fill="#181B21"/>
<path d="M288.457 90.856L315.422 122.875L315.42 122.876L283.401 95.9119L288.457 90.856Z" fill="#181B21"/>
<path d="M294.944 84.3692L321.907 116.39L289.887 89.4266L294.944 84.3692Z" fill="#181B21"/>
<path d="M301.429 77.8844L328.391 109.905L296.373 82.9402L301.429 77.8844Z" fill="#181B21"/>
<path d="M304.961 133.304L331.927 165.324L299.905 138.36L304.961 133.304Z" fill="#181B21"/>
</g>
<rect x="0.347575" y="72.3476" width="300.305" height="63.9538" stroke="black" stroke-width="0.69515"/>
</g>
<defs>
<clipPath id="clip0_535_56409">
<rect width="301" height="137" fill="white"/>
</clipPath>
<clipPath id="clip1_535_56409">
<rect width="301" height="64.649" fill="white"/>
</clipPath>
<clipPath id="clip2_535_56409">
<rect y="72" width="301" height="64.649" fill="white"/>
</clipPath>
</defs>
</svg>
