<svg width="118" height="118" viewBox="0 0 118 118" fill="none" xmlns="http://www.w3.org/2000/svg">
<g clip-path="url(#clip0_761_129)">
<circle cx="59" cy="59" r="59" fill="#F7F7F7"/>
<path fill-rule="evenodd" clip-rule="evenodd" d="M16 59C16 35.2518 35.2518 16 59 16C82.7482 16 102 35.2518 102 59C102 82.7482 82.7482 102 59 102C35.2518 102 16 82.7482 16 59ZM59 24.6C40.0014 24.6 24.6 40.0014 24.6 59C24.6 77.9986 40.0014 93.4 59 93.4C77.9986 93.4 93.4 77.9986 93.4 59C93.4 40.0014 77.9986 24.6 59 24.6Z" fill="#101010"/>
<path fill-rule="evenodd" clip-rule="evenodd" d="M48.5716 41.7998H40.9399V64.9636C40.9399 68.481 41.6397 71.5752 43.0702 74.2193L43.0739 74.2262L43.0777 74.233C44.551 76.8329 46.6353 78.8504 49.3142 80.2762L49.3209 80.2798L49.3277 80.2833C52.049 81.6655 55.2183 82.3423 58.8119 82.3423C62.4084 82.3423 65.5629 81.6437 68.2479 80.2146C70.9272 78.7885 72.9926 76.7697 74.4252 74.1668C75.9012 71.5602 76.6221 68.4822 76.6221 64.9636V41.7998H68.9288V64.5937C68.9288 67.9866 68.0243 70.4953 66.3197 72.2369C64.6191 73.9746 62.157 74.8955 58.8119 74.8955C55.4229 74.8955 52.916 73.9932 51.1746 72.2925C49.4755 70.5527 48.5716 68.0267 48.5716 64.5937V41.7998Z" fill="#101010"/>
</g>
<defs>
<clipPath id="clip0_761_129">
<rect width="118" height="118" rx="8" fill="white"/>
</clipPath>
</defs>
</svg>
