<svg width="24" height="24" viewBox="0 0 24 24" fill="none" xmlns="http://www.w3.org/2000/svg">
<g clip-path="url(#clip0_758_110)">
<mask id="mask0_758_110" style="mask-type:luminance" maskUnits="userSpaceOnUse" x="0" y="0" width="25" height="24">
<path d="M24.5 0H0V24H24.5V0Z" fill="white"/>
</mask>
<g mask="url(#mask0_758_110)">
<path fill-rule="evenodd" clip-rule="evenodd" d="M12.01 0C5.36876 0 0 5.40834 0 12.0991C0 17.4475 3.43995 21.9748 8.21207 23.5771C8.80871 23.6976 9.02725 23.3168 9.02725 22.9965C9.02725 22.716 9.00759 21.7545 9.00759 20.7528C5.66671 21.4741 4.971 19.3105 4.971 19.3105C4.4341 17.9083 3.63858 17.5478 3.63858 17.5478C2.54511 16.8067 3.71823 16.8067 3.71823 16.8067C4.93118 16.8868 5.56764 18.0486 5.56764 18.0486C6.64119 19.8914 8.37112 19.3707 9.06708 19.0501C9.1664 18.2689 9.48475 17.728 9.82277 17.4276C7.15818 17.1471 4.3547 16.1055 4.3547 11.4581C4.3547 10.136 4.83161 9.0543 5.58731 8.21305C5.46808 7.91265 5.05041 6.67045 5.70678 5.00788C5.70678 5.00788 6.72084 4.68731 9.00734 6.24983C9.98625 5.98499 10.9958 5.85025 12.01 5.84912C13.0241 5.84912 14.0577 5.98949 15.0124 6.24983C17.2991 4.68731 18.3131 5.00788 18.3131 5.00788C18.9695 6.67045 18.5516 7.91265 18.4323 8.21305C19.208 9.0543 19.6652 10.136 19.6652 11.4581C19.6652 16.1055 16.8617 17.1269 14.1772 17.4276C14.6148 17.8082 14.9924 18.5292 14.9924 19.6711C14.9924 21.2936 14.9727 22.5957 14.9727 22.9963C14.9727 23.3168 15.1915 23.6976 15.7879 23.5774C20.56 21.9746 23.9999 17.4475 23.9999 12.0991C24.0196 5.40834 18.6312 0 12.01 0Z" fill="#161616"/>
</g>
</g>
<defs>
<clipPath id="clip0_758_110">
<rect width="24" height="24" fill="white"/>
</clipPath>
</defs>
</svg>
