<svg width="24" height="24" viewBox="0 0 24 24" fill="none" xmlns="http://www.w3.org/2000/svg">
<g clip-path="url(#clip0_753_365)">
<path d="M12 24C18.6274 24 24 18.6274 24 12C24 5.37258 18.6274 0 12 0C5.37258 0 0 5.37258 0 12C0 18.6274 5.37258 24 12 24Z" fill="#161616"/>
<path d="M8.70078 17.45H6.40078V10.05H8.70078V17.45ZM7.45078 9.1C6.60078 9.1 6.05078 8.55 6.05078 7.8C6.05078 7.05 6.60078 6.5 7.45078 6.5C8.30078 6.5 8.85078 7.05 8.85078 7.8C8.85078 8.55 8.35078 9.1 7.45078 9.1ZM17.9508 17.45H15.3008V13.6C15.3008 12.6 14.9008 11.9 14.0008 11.9C13.3008 11.9 12.9508 12.35 12.7508 12.8C12.7008 12.95 12.7008 13.2 12.7008 13.4V17.4H10.1008C10.1008 17.4 10.1508 10.6 10.1008 10H12.7008V11.15C12.8508 10.65 13.7008 9.9 15.0008 9.9C16.6508 9.9 17.9508 10.95 17.9508 13.25V17.45Z" fill="white"/>
</g>
<defs>
<clipPath id="clip0_753_365">
<rect width="24" height="24" fill="white"/>
</clipPath>
</defs>
</svg>
