<svg width="97" height="25" viewBox="0 0 97 25" fill="none" xmlns="http://www.w3.org/2000/svg">
<path d="M3.24599 0.182129V14.2865C3.24599 19.3932 5.29563 21.9292 9.4644 21.9292C13.6332 21.9292 15.7523 19.3932 15.7523 14.2865V0.182129H18.7746V14.1128C18.7746 17.5867 17.9756 20.2269 16.3776 22.0334C14.7796 23.8399 12.4868 24.7084 9.4644 24.7084C6.4073 24.7084 4.11448 23.8399 2.55119 22.0334C0.987907 20.2269 0.223633 17.5867 0.223633 14.1128V0.182129H3.24599Z" fill="#DADADA"/>
<path d="M21.5576 0.182129H24.4063V24.4999H21.5576V0.182129Z" fill="#DADADA"/>
<path d="M43.4901 21.8945V24.4999H41.9268C40.7804 24.4999 39.9813 24.2915 39.495 23.8051C39.0086 23.3535 38.7307 22.6587 38.7307 21.7555C37.3411 23.7357 35.361 24.7084 32.7902 24.7084C30.8101 24.7084 29.212 24.2568 28.0309 23.3188C26.8497 22.4156 26.2592 21.1302 26.2592 19.5322C26.2592 17.7604 26.8497 16.4056 28.0656 15.4329C29.2815 14.4949 31.0532 14.0085 33.3808 14.0085H38.5917V12.7926C38.5917 11.6462 38.1749 10.743 37.4106 10.0829C36.6463 9.45763 35.5694 9.11024 34.1798 9.11024C32.9292 9.11024 31.9217 9.38815 31.1227 9.94399C30.3237 10.4998 29.8373 11.1946 29.6636 12.0979H26.815C27.0234 10.3609 27.7877 9.00602 29.1078 8.0333C30.4279 7.06059 32.1649 6.57424 34.3188 6.57424C36.5768 6.57424 38.3138 7.13007 39.5645 8.24174C40.8151 9.35341 41.4404 10.9167 41.4404 12.9663V20.6091C41.4404 21.4776 41.8225 21.8945 42.6216 21.8945H43.4901ZM38.5917 16.4056H33.1029C30.4627 16.4056 29.1425 17.413 29.1425 19.3585C29.1425 20.2617 29.4899 20.9565 30.1847 21.4776C30.8795 22.0334 31.8175 22.2766 32.9987 22.2766C34.7356 22.2766 36.0905 21.825 37.0979 20.9217C38.0707 20.0185 38.5917 18.8026 38.5917 17.2741V16.4056Z" fill="#DADADA"/>
<path d="M57.4915 23.0409C56.1019 24.1525 54.3649 24.7084 52.2806 24.7084C50.5436 24.7084 49.0498 24.3262 47.7644 23.562C46.4443 22.7977 45.4368 21.7555 44.742 20.3659C44.0125 18.9763 43.6651 17.413 43.6651 15.6066C43.6651 13.8348 44.0125 12.2716 44.742 10.882C45.4716 9.52711 46.5138 8.48492 47.8339 7.72065C49.154 6.95637 50.6478 6.57424 52.3848 6.57424C54.4692 6.57424 56.1714 7.13007 57.5262 8.24174C58.8811 9.35341 59.7496 10.882 60.097 12.8274H57.2136C56.9357 11.7157 56.3451 10.8125 55.4766 10.1177C54.5734 9.45763 53.5312 9.11024 52.2806 9.11024C50.5783 9.11024 49.1887 9.73555 48.1465 10.9167C47.1043 12.1326 46.5832 13.6959 46.5832 15.6066C46.5832 17.552 47.1043 19.15 48.1465 20.3659C49.1887 21.5818 50.5783 22.1724 52.2806 22.1724C53.5659 22.1724 54.6429 21.8597 55.5461 21.1649C56.4146 20.5049 56.9704 19.5669 57.2483 18.3857H60.097C59.7149 20.3659 58.8464 21.9292 57.4915 23.0409Z" fill="#DADADA"/>
<path d="M65.2059 23.562C63.8858 22.7977 62.8436 21.7555 62.1141 20.3659C61.3498 19.0111 61.0024 17.4478 61.0024 15.6413C61.0024 13.8696 61.3498 12.3063 62.1141 10.9167C62.8436 9.56185 63.8858 8.48492 65.2059 7.72065C66.526 6.95637 68.0546 6.57424 69.7915 6.57424C71.4938 6.57424 73.0223 6.95637 74.3424 7.72065C75.6626 8.48492 76.7047 9.56185 77.469 10.9167C78.1986 12.3063 78.5807 13.8696 78.5807 15.6413C78.5807 17.4478 78.1986 19.0111 77.469 20.3659C76.7047 21.7555 75.6626 22.7977 74.3424 23.562C73.0223 24.3262 71.4938 24.7084 69.7915 24.7084C68.0546 24.7084 66.526 24.3262 65.2059 23.562ZM72.8486 21.3386C73.7519 20.7828 74.4467 20.0185 74.933 19.0111C75.4194 18.0383 75.6626 16.8919 75.6626 15.6413C75.6626 14.3907 75.4194 13.279 74.933 12.2716C74.4467 11.2988 73.7519 10.4998 72.8486 9.94399C71.9454 9.38815 70.938 9.11024 69.7915 9.11024C68.6104 9.11024 67.6029 9.38815 66.6997 9.94399C65.7965 10.4998 65.1364 11.2988 64.6501 12.2716C64.1637 13.279 63.9205 14.3907 63.9205 15.6413C63.9205 16.8919 64.1637 18.0383 64.6501 19.0111C65.1364 20.0185 65.7965 20.7828 66.6997 21.3386C67.6029 21.8945 68.6104 22.1724 69.7915 22.1724C70.938 22.1724 71.9454 21.8945 72.8486 21.3386Z" fill="#DADADA"/>
<path d="M94.3189 8.51966C95.639 9.83977 96.299 11.8547 96.299 14.6339V24.4999H93.4504V14.8076C93.4504 13.0011 93.0335 11.6115 92.1997 10.6388C91.366 9.66607 90.1848 9.17972 88.6563 9.17972C86.9888 9.17972 85.6687 9.77029 84.7307 10.9167C83.758 12.0979 83.3064 13.6611 83.3064 15.6413V24.4999H80.4577V6.78267H82.9242L83.3064 9.17972C84.6265 7.44273 86.5719 6.57424 89.1427 6.57424C91.2965 6.57424 92.9988 7.23429 94.3189 8.51966Z" fill="#DADADA"/>
</svg>
