<svg width="395" height="104" viewBox="0 0 395 104" fill="none" xmlns="http://www.w3.org/2000/svg">
<path d="M2.31812 66.3598V1.80078H15.8951V65.5286C15.8951 73.5638 18.0191 79.7519 22.2681 84.0927C26.6091 88.3413 32.7511 90.4655 40.6941 90.4655C48.5441 90.4655 54.5941 88.2951 58.8421 83.9542C63.0911 79.6133 65.2151 73.4714 65.2151 65.5286V1.80078H78.9301V66.3598C78.9301 74.0256 77.3601 80.6293 74.2201 86.1708C71.1721 91.7124 66.7851 96.0071 61.0591 99.0549C55.3321 102.103 48.5441 103.627 40.6941 103.627C32.8431 103.627 26.0081 102.149 20.1901 99.1934C14.4641 96.1456 10.0301 91.8509 6.89011 86.3094C3.84211 80.6755 2.31812 74.0256 2.31812 66.3598Z" fill="#DADADA"/>
<path d="M107.045 101.964H94.022V0H107.045V101.964Z" fill="#DADADA"/>
<path d="M140.485 103.627C133.281 103.627 127.601 101.734 123.444 97.9466C119.381 94.1599 117.349 89.2187 117.349 83.123C117.349 76.9349 119.565 71.9937 123.999 68.2993C128.432 64.5126 134.62 62.296 142.563 61.6495L163.898 59.987V58.0475C163.898 54.2608 163.205 51.2591 161.82 49.0425C160.434 46.7335 158.541 45.1172 156.139 44.1936C153.738 43.1777 151.014 42.6697 147.966 42.6697C142.517 42.6697 138.268 43.8242 135.22 46.1332C132.265 48.3498 130.787 51.5362 130.787 55.6923H119.427C119.427 50.982 120.627 46.872 123.029 43.3624C125.43 39.8527 128.801 37.1281 133.142 35.1886C137.575 33.2491 142.701 32.2793 148.52 32.2793C154.154 32.2793 159.049 33.2953 163.205 35.3272C167.453 37.2667 170.732 40.2684 173.041 44.3322C175.443 48.3036 176.643 53.3372 176.643 59.4329V101.964H165.56L164.175 91.0197C162.42 94.8987 159.372 97.9928 155.031 100.302C150.783 102.519 145.934 103.627 140.485 103.627ZM144.225 93.5134C150.413 93.5134 155.262 91.6662 158.772 87.9718C162.281 84.1851 164.036 79.1054 164.036 72.7326V69.1306L146.719 70.516C140.993 71.0701 136.836 72.4093 134.25 74.5336C131.757 76.6578 130.51 79.3824 130.51 82.7074C130.51 86.3094 131.711 89.0339 134.112 90.8811C136.606 92.636 139.977 93.5134 144.225 93.5134Z" fill="#DADADA"/>
<path d="M184.703 68.1608C184.703 61.0491 186.089 54.8149 188.86 49.4581C191.723 44.1013 195.648 39.8989 200.635 36.8511C205.623 33.8032 211.395 32.2793 217.953 32.2793C226.45 32.2793 233.515 34.5421 239.149 39.0677C244.783 43.5933 248.154 49.5966 249.262 57.0777H236.24C235.131 52.7368 232.961 49.4581 229.728 47.2415C226.496 45.0249 222.709 43.9165 218.368 43.9165C214.304 43.9165 210.702 44.9325 207.562 46.9644C204.422 48.9039 201.975 51.6747 200.22 55.2767C198.465 58.8787 197.587 63.1272 197.587 68.0223C197.587 72.9173 198.419 77.1658 200.081 80.7678C201.744 84.2775 204.099 87.0482 207.147 89.0801C210.194 91.0197 213.75 91.9894 217.814 91.9894C222.432 91.9894 226.403 90.835 229.728 88.526C233.053 86.217 235.27 83.0768 236.378 79.1054H249.401C248.57 84.0004 246.676 88.2951 243.721 91.9894C240.858 95.5914 237.163 98.4546 232.638 100.579C228.204 102.611 223.263 103.627 217.814 103.627C211.164 103.627 205.346 102.149 200.358 99.1934C195.463 96.238 191.63 92.128 188.86 86.8635C186.089 81.5067 184.703 75.2724 184.703 68.1608Z" fill="#DADADA"/>
<path d="M253.166 68.0225C253.166 61.0955 254.69 54.9537 257.738 49.5968C260.786 44.24 264.942 40.0377 270.207 36.9898C275.563 33.942 281.659 32.418 288.494 32.418C295.328 32.418 301.378 33.942 306.642 36.9898C311.907 40.0377 316.063 44.24 319.111 49.5968C322.159 54.9537 323.682 61.0955 323.682 68.0225C323.682 74.9494 322.159 81.0913 319.111 86.4481C316.063 91.8049 311.907 96.0073 306.642 99.0551C301.378 102.103 295.328 103.627 288.494 103.627C281.659 103.627 275.563 102.103 270.207 99.0551C264.942 96.0073 260.786 91.8049 257.738 86.4481C254.69 81.0913 253.166 74.9494 253.166 68.0225ZM266.327 68.0225C266.327 72.7328 267.251 76.8889 269.098 80.4909C271.038 84.0929 273.67 86.9099 276.995 88.9418C280.32 90.9737 284.153 91.9896 288.494 91.9896C292.835 91.9896 296.667 90.9737 299.992 88.9418C303.317 86.9099 305.903 84.0929 307.75 80.4909C309.69 76.8889 310.66 72.7328 310.66 68.0225C310.66 63.2198 309.69 59.0636 307.75 55.554C305.903 51.952 303.317 49.135 299.992 47.1031C296.667 45.0712 292.835 44.0553 288.494 44.0553C284.153 44.0553 280.32 45.0712 276.995 47.1031C273.67 49.135 271.038 51.952 269.098 55.554C267.251 59.0636 266.327 63.2198 266.327 68.0225Z" fill="#DADADA"/>
<path d="M345.579 101.964H332.556V34.2188H344.332L345.718 44.6092C347.842 40.7302 350.89 37.7285 354.861 35.6042C358.925 33.3876 363.358 32.2793 368.161 32.2793C377.027 32.2793 383.585 34.8192 387.833 39.8989C392.082 44.9787 394.206 51.8594 394.206 60.5412V101.964H381.184V63.4505C381.184 56.6159 379.706 51.7209 376.75 48.7654C373.795 45.7175 369.823 44.1936 364.836 44.1936C358.74 44.1936 353.984 46.1793 350.566 50.1508C347.242 54.1222 345.579 59.4329 345.579 66.0827V101.964Z" fill="#DADADA"/>
</svg>
