<svg width="100" height="100" viewBox="0 0 100 100" fill="none" xmlns="http://www.w3.org/2000/svg">
<g clip-path="url(#clip0_758_107)">
<path d="M50 95C74.8528 95 95 74.8528 95 50C95 25.1472 74.8528 5 50 5C25.1472 5 5 25.1472 5 50C5 74.8528 25.1472 95 50 95Z" stroke="#101010" stroke-width="10"/>
<path fill-rule="evenodd" clip-rule="evenodd" d="M37.874 30H29V56.9346C29 61.0247 29.8137 64.6226 31.477 67.6971L31.4813 67.7051L31.4858 67.713C33.1989 70.7362 35.6225 73.0821 38.7375 74.74L38.7453 74.7442L38.7532 74.7482C41.9175 76.3555 45.6028 77.1424 49.7813 77.1424C53.9633 77.1424 57.6313 76.3301 60.7534 74.6684C63.8689 73.0101 66.2705 70.6627 67.9364 67.6361C69.6526 64.6051 70.4909 61.0261 70.4909 56.9346V30H61.5452V56.5045C61.5452 60.4498 60.4935 63.3669 58.5114 65.392C56.5339 67.4126 53.671 68.4834 49.7813 68.4834C45.8406 68.4834 42.9257 67.4342 40.9008 65.4566C38.9251 63.4336 37.874 60.4964 37.874 56.5045V30Z" fill="#101010"/>
</g>
<defs>
<clipPath id="clip0_758_107">
<rect width="100" height="100" fill="white"/>
</clipPath>
</defs>
</svg>
