<svg width="101" height="104" viewBox="0 0 101 104" fill="none" xmlns="http://www.w3.org/2000/svg">
<path d="M50 97C74.8528 97 95 76.8528 95 52C95 27.1472 74.8528 7 50 7C25.1472 7 5 27.1472 5 52C5 76.8528 25.1472 97 50 97Z" stroke="#101010" stroke-width="10"/>
<path fill-rule="evenodd" clip-rule="evenodd" d="M37.874 32H29V58.9346C29 63.0247 29.8137 66.6226 31.477 69.6971L31.4813 69.7051L31.4858 69.713C33.1989 72.7362 35.6225 75.0821 38.7375 76.74L38.7453 76.7442L38.7532 76.7482C41.9175 78.3555 45.6028 79.1424 49.7813 79.1424C53.9633 79.1424 57.6313 78.3301 60.7534 76.6684C63.8689 75.0101 66.2705 72.6627 67.9364 69.6361C69.6526 66.6051 70.4909 63.0261 70.4909 58.9346V32H61.5452V58.5045C61.5452 62.4498 60.4935 65.3669 58.5114 67.392C56.5339 69.4126 53.671 70.4834 49.7813 70.4834C45.8406 70.4834 42.9257 69.4342 40.9008 67.4566C38.9251 65.4336 37.874 62.4964 37.874 58.5045V32Z" fill="#101010"/>
</svg>
