<svg width="102" height="104" viewBox="0 0 102 104" fill="none" xmlns="http://www.w3.org/2000/svg">
<path d="M51 97C75.8528 97 96 76.8528 96 52C96 27.1472 75.8528 7 51 7C26.1472 7 6 27.1472 6 52C6 76.8528 26.1472 97 51 97Z" stroke="#DADADA" stroke-width="10"/>
<path fill-rule="evenodd" clip-rule="evenodd" d="M38.874 32H30V58.9346C30 63.0247 30.8137 66.6226 32.477 69.6971L32.4813 69.7051L32.4858 69.713C34.1989 72.7362 36.6225 75.0821 39.7375 76.74L39.7453 76.7442L39.7532 76.7482C42.9175 78.3555 46.6028 79.1424 50.7813 79.1424C54.9633 79.1424 58.6313 78.3301 61.7534 76.6684C64.8689 75.0101 67.2705 72.6627 68.9364 69.6361C70.6526 66.6051 71.4909 63.0261 71.4909 58.9346V32H62.5452V58.5045C62.5452 62.4498 61.4935 65.3669 59.5114 67.392C57.5339 69.4126 54.671 70.4834 50.7813 70.4834C46.8406 70.4834 43.9257 69.4342 41.9008 67.4566C39.9251 65.4336 38.874 62.4964 38.874 58.5045V32Z" fill="#DADADA"/>
</svg>
