<svg width="181" height="48" viewBox="0 0 181 48" fill="none" xmlns="http://www.w3.org/2000/svg">
<g clip-path="url(#clip0_760_116)">
<path d="M1.71411 30.4577V1.02637H7.90363V30.0787C7.90363 33.7418 8.87192 36.5629 10.809 38.5418C12.788 40.4786 15.588 41.447 19.2091 41.447C22.7877 41.447 25.5458 40.4576 27.4824 38.4786C29.4194 36.4997 30.3877 33.6997 30.3877 30.0787V1.02637H36.6402V30.4577C36.6402 33.9524 35.9244 36.9629 34.493 39.4892C33.1034 42.0155 31.1035 43.9734 28.4931 45.3628C25.8823 46.7523 22.7877 47.447 19.2091 47.447C15.6299 47.447 12.514 46.7732 9.86164 45.4259C7.25126 44.0365 5.22988 42.0786 3.7984 39.5523C2.40888 36.9839 1.71411 33.9524 1.71411 30.4577Z" fill="#DADADA"/>
<path d="M49.4572 46.6896H43.5203V0.206055H49.4572V46.6896Z" fill="#DADADA"/>
<path d="M64.7018 47.4479C61.4177 47.4479 58.8282 46.585 56.9331 44.8584C55.0809 43.1321 54.1545 40.8795 54.1545 38.1006C54.1545 35.2796 55.1648 33.027 57.1862 31.3428C59.2071 29.6165 62.0281 28.606 65.6492 28.3112L75.3754 27.5533V26.6691C75.3754 24.9429 75.0595 23.5744 74.4281 22.5639C73.7962 21.5113 72.9333 20.7744 71.8382 20.3534C70.7436 19.8903 69.5018 19.6587 68.1123 19.6587C65.6282 19.6587 63.6911 20.185 62.3016 21.2376C60.9545 22.2481 60.2807 23.7008 60.2807 25.5954H55.1019C55.1019 23.4481 55.6489 21.5744 56.744 19.9745C57.8385 18.3745 59.3753 17.1324 61.3543 16.2482C63.3752 15.364 65.7121 14.9219 68.3648 14.9219C70.9333 14.9219 73.1648 15.3851 75.0595 16.3114C76.9961 17.1955 78.4909 18.564 79.5435 20.4166C80.6386 22.2271 81.1856 24.5218 81.1856 27.3007V46.6898H76.1331L75.5017 41.7006C74.7016 43.469 73.3121 44.8795 71.3331 45.9321C69.3965 46.9428 67.1859 47.4479 64.7018 47.4479ZM66.4068 42.8374C69.2278 42.8374 71.4384 41.9953 73.0386 40.3111C74.6382 38.5848 75.4383 36.2691 75.4383 33.3638V31.7217L67.5438 32.3533C64.9334 32.6059 63.0383 33.2164 61.8594 34.1849C60.7229 35.1533 60.1544 36.3953 60.1544 37.9112C60.1544 39.5532 60.7019 40.7953 61.7965 41.6374C62.9335 42.4374 64.4703 42.8374 66.4068 42.8374Z" fill="#DADADA"/>
<path d="M84.8601 31.2796C84.8601 28.0375 85.492 25.1955 86.7552 22.7534C88.0604 20.3113 89.8497 18.3955 92.1232 17.0061C94.3972 15.6166 97.0285 14.9219 100.018 14.9219C103.892 14.9219 107.113 15.9534 109.681 18.0166C112.25 20.0797 113.786 22.8165 114.291 26.227H108.355C107.849 24.2481 106.86 22.7534 105.386 21.7429C103.913 20.7324 102.186 20.2271 100.207 20.2271C98.3547 20.2271 96.7126 20.6902 95.2811 21.6166C93.8497 22.5007 92.7341 23.7639 91.934 25.406C91.134 27.0481 90.7337 28.9849 90.7337 31.2165C90.7337 33.448 91.113 35.3848 91.8707 37.0269C92.6288 38.6269 93.7024 39.8901 95.0919 40.8164C96.481 41.7006 98.1021 42.1427 99.9548 42.1427C102.06 42.1427 103.87 41.6164 105.386 40.5638C106.902 39.5111 107.913 38.0796 108.418 36.2691H114.355C113.976 38.5006 113.113 40.4585 111.765 42.1427C110.46 43.7847 108.776 45.09 106.713 46.0584C104.691 46.9848 102.439 47.4479 99.9548 47.4479C96.9232 47.4479 94.2709 46.7742 91.9969 45.4268C89.7654 44.0795 88.018 42.2058 86.7552 39.8059C85.492 37.3638 84.8601 34.5217 84.8601 31.2796Z" fill="#DADADA"/>
<path d="M116.071 31.2158C116.071 28.0579 116.766 25.258 118.155 22.8159C119.545 20.3738 121.44 18.4581 123.84 17.0686C126.281 15.6791 129.061 14.9844 132.176 14.9844C135.292 14.9844 138.05 15.6791 140.45 17.0686C142.85 18.4581 144.745 20.3738 146.134 22.8159C147.524 25.258 148.218 28.0579 148.218 31.2158C148.218 34.3737 147.524 37.1737 146.134 39.6157C144.745 42.0578 142.85 43.9736 140.45 45.3631C138.05 46.7525 135.292 47.4473 132.176 47.4473C129.061 47.4473 126.281 46.7525 123.84 45.3631C121.44 43.9736 119.545 42.0578 118.155 39.6157C116.766 37.1737 116.071 34.3737 116.071 31.2158ZM122.071 31.2158C122.071 33.3632 122.492 35.2579 123.334 36.9C124.219 38.542 125.418 39.8263 126.934 40.7526C128.45 41.6789 130.197 42.142 132.176 42.142C134.155 42.142 135.902 41.6789 137.418 40.7526C138.934 39.8263 140.113 38.542 140.955 36.9C141.839 35.2579 142.282 33.3632 142.282 31.2158C142.282 29.0264 141.839 27.1316 140.955 25.5317C140.113 23.8896 138.934 22.6054 137.418 21.6791C135.902 20.7527 134.155 20.2896 132.176 20.2896C130.197 20.2896 128.45 20.7527 126.934 21.6791C125.418 22.6054 124.219 23.8896 123.334 25.5317C122.492 27.1316 122.071 29.0264 122.071 31.2158Z" fill="#DADADA"/>
<path d="M158.201 46.6898H152.264V15.8061H157.632L158.264 20.5429C159.232 18.7745 160.622 17.4061 162.432 16.4376C164.285 15.4271 166.306 14.9219 168.495 14.9219C172.537 14.9219 175.527 16.0798 177.463 18.3955C179.401 20.7113 180.369 23.8481 180.369 27.806V46.6898H174.432V29.1323C174.432 26.0165 173.759 23.785 172.411 22.4376C171.064 21.0481 169.253 20.3534 166.98 20.3534C164.2 20.3534 162.032 21.2586 160.474 23.0692C158.959 24.8797 158.201 27.3007 158.201 30.3322V46.6898Z" fill="#DADADA"/>
</g>
<defs>
<clipPath id="clip0_760_116">
<rect width="180.074" height="47.4118" fill="white" transform="translate(0.657227 0.206055)"/>
</clipPath>
</defs>
</svg>
