<svg width="48" height="50" viewBox="0 0 48 50" fill="none" xmlns="http://www.w3.org/2000/svg">
<path d="M23.9808 46.1599C35.6669 46.1599 45.1403 36.6864 45.1403 25.0003C45.1403 13.3143 35.6669 3.84082 23.9808 3.84082C12.2947 3.84082 2.82129 13.3143 2.82129 25.0003C2.82129 36.6864 12.2947 46.1599 23.9808 46.1599Z" stroke="#DADADA" stroke-width="4.70212"/>
<path fill-rule="evenodd" clip-rule="evenodd" d="M18.2789 15.5967H14.1062V28.2616C14.1062 30.1849 14.4888 31.8766 15.2709 33.3223L15.2729 33.3261L15.2751 33.3298C16.0806 34.7513 17.2202 35.8544 18.6849 36.6339L18.6886 36.6359L18.6923 36.6378C20.1802 37.3936 21.913 37.7636 23.8778 37.7636C25.8442 37.7636 27.569 37.3816 29.037 36.6003C30.502 35.8205 31.6312 34.7168 32.4145 33.2936C33.2215 31.8684 33.6157 30.1855 33.6157 28.2616V15.5967H29.4093V28.0594C29.4093 29.9145 28.9148 31.2862 27.9828 32.2384C27.053 33.1885 25.7068 33.692 23.8778 33.692C22.0248 33.692 20.6542 33.1987 19.7021 32.2688C18.7731 31.3175 18.2789 29.9364 18.2789 28.0594V15.5967Z" fill="#DADADA"/>
</svg>
