<svg width="100" height="100" viewBox="0 0 100 100" fill="none" xmlns="http://www.w3.org/2000/svg">
<path id="step4a" d="M48.4159 9.76075C48.5825 9.37962 49.1144 9.3566 49.3133 9.72192L62.0445 33.1123C62.9575 34.7896 64.3317 36.1705 66.0046 37.0916L89.7929 50.1892C90.155 50.3885 90.1325 50.9161 89.7549 51.084L67.1895 61.1164C65.014 62.0836 63.255 63.7952 62.2288 65.9434L50.6372 90.2074C50.4541 90.5907 49.9068 90.5856 49.7309 90.1989L38.6415 65.8203C37.6412 63.6212 35.8786 61.8587 33.6795 60.8583L9.30445 49.7705C8.91724 49.5944 8.91286 49.046 9.2972 48.8637L33.71 37.2844C35.8896 36.2506 37.6221 34.4637 38.588 32.2531L48.4159 9.76075Z" fill="#101010"/>
<path id="step4b" d="M17.6934 67.9234C17.859 67.5445 18.3866 67.5188 18.5882 67.8798L22.625 75.1103C23.0767 75.9194 23.7443 76.587 24.5533 77.0386L31.8445 81.1093C32.1939 81.3044 32.184 81.8104 31.8272 81.9917L24.7701 85.5769C23.8251 86.057 23.0571 86.825 22.5771 87.77L19.0375 94.7372C18.8477 95.1108 18.3101 95.0992 18.1366 94.7177L14.7881 87.3565C14.2879 86.257 13.4066 85.3757 12.3071 84.8755L4.97974 81.5424C4.59253 81.3663 4.58815 80.8179 4.97249 80.6356L12.3224 77.1494C13.4122 76.6325 14.2784 75.7391 14.7613 74.6338L17.6934 67.9234Z" fill="#101010"/>
<path id="step4c" d="M80.6934 6.92335C80.859 6.5445 81.3866 6.51882 81.5882 6.87981L85.625 14.1103C86.0767 14.9194 86.7443 15.587 87.5533 16.0386L94.8445 20.1093C95.1939 20.3044 95.184 20.8104 94.8272 20.9917L87.7701 24.5769C86.8251 25.057 86.0571 25.825 85.5771 26.77L82.0375 33.7372C81.8477 34.1108 81.3101 34.0992 81.1366 33.7177L77.7881 26.3565C77.2879 25.257 76.4066 24.3757 75.3071 23.8755L67.9797 20.5424C67.5925 20.3663 67.5881 19.8179 67.9725 19.6356L75.3224 16.1494C76.4122 15.6325 77.2784 14.7391 77.7613 13.6338L80.6934 6.92335Z" fill="#101010"/>
</svg>
