<svg width="414" height="204" viewBox="0 0 414 204" fill="none" xmlns="http://www.w3.org/2000/svg">
<g clip-path="url(#clip0_464_2091)">
<g clip-path="url(#clip1_464_2091)">
<mask id="mask0_464_2091" style="mask-type:luminance" maskUnits="userSpaceOnUse" x="159" y="67" width="72" height="71">
<path d="M230.324 67.3984H159.75V137.973H230.324V67.3984Z" fill="white"/>
</mask>
<g mask="url(#mask0_464_2091)">
<path fill-rule="evenodd" clip-rule="evenodd" d="M199.465 98.2576C202.698 96.8744 207.42 96.0023 212.681 96.0023C222.425 96.0023 230.324 98.9945 230.324 102.686C230.324 106.377 222.425 109.369 212.681 109.369C207.42 109.369 202.698 108.497 199.465 107.113C200.848 110.346 201.72 115.069 201.72 120.329C201.72 130.073 198.728 137.973 195.037 137.973C191.346 137.973 188.354 130.073 188.354 120.329C188.354 115.069 189.226 110.346 190.609 107.113C187.377 108.497 182.654 109.369 177.394 109.369C167.649 109.369 159.75 106.377 159.75 102.686C159.75 98.9945 167.649 96.0023 177.394 96.0023C182.654 96.0023 187.377 96.8744 190.609 98.2576C189.226 95.0251 188.354 90.3024 188.354 85.042C188.354 75.2977 191.346 67.3984 195.037 67.3984C198.728 67.3984 201.72 75.2977 201.72 85.042C201.72 90.3024 200.848 95.0251 199.465 98.2576Z" fill="#101010"/>
</g>
</g>
<mask id="mask1_464_2091" style="mask-type:luminance" maskUnits="userSpaceOnUse" x="153" y="61" width="84" height="84">
<path d="M236.659 61.0664H153.418V144.308H236.659V61.0664Z" fill="white"/>
</mask>
<g mask="url(#mask1_464_2091)">
<path d="M199.845 97.2864L199.401 98.3245L200.439 97.8803C204.18 96.2795 209.686 95.2567 215.849 95.2567C221.555 95.2567 226.701 96.1336 230.404 97.5362C232.257 98.2381 233.725 99.0629 234.722 99.9558C235.719 100.849 236.207 101.773 236.207 102.687C236.207 103.601 235.719 104.525 234.722 105.418C233.725 106.311 232.257 107.136 230.404 107.838C226.701 109.24 221.555 110.117 215.849 110.117C209.686 110.117 204.18 109.094 200.439 107.494L199.401 107.049L199.845 108.088C201.446 111.829 202.469 117.335 202.469 123.497C202.469 129.204 201.592 134.349 200.189 138.052C199.488 139.905 198.663 141.373 197.77 142.37C196.877 143.368 195.953 143.855 195.039 143.855C194.124 143.855 193.2 143.368 192.307 142.37C191.414 141.373 190.59 139.905 189.888 138.052C188.485 134.349 187.608 129.204 187.608 123.497C187.608 117.335 188.631 111.829 190.232 108.088L190.676 107.049L189.638 107.494C185.897 109.094 180.391 110.117 174.228 110.117C168.522 110.117 163.376 109.24 159.673 107.838C157.82 107.136 156.352 106.311 155.355 105.418C154.358 104.525 153.87 103.601 153.87 102.687C153.87 101.773 154.358 100.849 155.355 99.9558C156.352 99.0629 157.82 98.2381 159.673 97.5362C163.376 96.1336 168.522 95.2567 174.228 95.2567C180.391 95.2567 185.897 96.2795 189.638 97.8803L190.676 98.3246L190.232 97.2864C188.631 93.5455 187.608 88.0397 187.608 81.8767C187.608 76.1705 188.485 71.0246 189.888 67.3219C190.59 65.4689 191.414 64.0006 192.307 63.0036C193.2 62.0063 194.124 61.5188 195.039 61.5188C195.953 61.5188 196.877 62.0063 197.77 63.0036C198.663 64.0006 199.488 65.4689 200.189 67.3219C201.592 71.0246 202.469 76.1704 202.469 81.8767C202.469 88.0397 201.446 93.5455 199.845 97.2864Z" stroke="#101010" stroke-width="0.904797"/>
</g>
<mask id="mask2_464_2091" style="mask-type:luminance" maskUnits="userSpaceOnUse" x="137" y="44" width="116" height="117">
<path d="M252.947 44.7812H137.133V160.595H252.947V44.7812Z" fill="white"/>
</mask>
<g mask="url(#mask2_464_2091)">
<path d="M201.89 95.244L201.446 96.2821L202.484 95.8379C207.717 93.5986 215.403 92.1734 223.993 92.1734C231.948 92.1734 239.13 93.3955 244.306 95.3563C246.896 96.3373 248.961 97.4944 250.37 98.7563C251.779 100.018 252.494 101.348 252.494 102.688C252.494 104.028 251.779 105.358 250.37 106.62C248.961 107.882 246.896 109.039 244.306 110.02C239.13 111.981 231.948 113.203 223.993 113.203C215.403 113.203 207.717 111.778 202.484 109.538L201.446 109.094L201.89 110.132C204.129 115.365 205.554 123.051 205.554 131.642C205.554 139.597 204.332 146.778 202.372 151.955C201.391 154.544 200.234 156.609 198.972 158.018C197.71 159.427 196.38 160.143 195.04 160.143C193.7 160.143 192.37 159.427 191.108 158.018C189.846 156.609 188.689 154.544 187.708 151.955C185.747 146.778 184.525 139.597 184.525 131.642C184.525 123.051 185.95 115.365 188.189 110.132L188.634 109.094L187.596 109.538C182.363 111.778 174.677 113.203 166.086 113.203C158.131 113.203 150.95 111.981 145.773 110.02C143.184 109.039 141.119 107.882 139.71 106.62C138.301 105.358 137.585 104.028 137.585 102.688C137.585 101.348 138.301 100.018 139.71 98.7563C141.119 97.4944 143.184 96.3373 145.773 95.3563C150.95 93.3955 158.131 92.1734 166.086 92.1734C174.677 92.1734 182.363 93.5986 187.596 95.8379L188.634 96.2821L188.189 95.244C185.95 90.0111 184.525 82.3256 184.525 73.7347C184.525 65.7798 185.747 58.5982 187.708 53.4218C188.689 50.832 189.846 48.7674 191.108 47.3584C192.37 45.949 193.7 45.2336 195.04 45.2336C196.38 45.2336 197.71 45.949 198.972 47.3584C200.234 48.7674 201.391 50.832 202.372 53.4218C204.332 58.5982 205.554 65.7798 205.554 73.7347C205.554 82.3256 204.129 90.0111 201.89 95.244Z" stroke="#101010" stroke-width="0.904797"/>
</g>
<mask id="mask3_464_2091" style="mask-type:luminance" maskUnits="userSpaceOnUse" x="107" y="14" width="176" height="177">
<path d="M282.804 14.9199H107.273V190.45H282.804V14.9199Z" fill="white"/>
</mask>
<g mask="url(#mask3_464_2091)">
<path d="M205.636 91.4942L205.191 92.5323L206.229 92.0881C214.198 88.6785 225.88 86.5154 238.921 86.5154C250.999 86.5154 261.913 88.3705 269.791 91.3546C273.731 92.8472 276.889 94.6136 279.054 96.5521C281.218 98.4908 282.352 100.564 282.352 102.685C282.352 104.806 281.218 106.88 279.054 108.818C276.889 110.757 273.731 112.523 269.791 114.016C261.913 117 250.999 118.855 238.921 118.855C225.88 118.855 214.198 116.692 206.229 113.282L205.191 112.838L205.636 113.876C209.045 121.844 211.208 133.526 211.208 146.568C211.208 158.645 209.353 169.559 206.369 177.437C204.877 181.378 203.11 184.536 201.172 186.7C199.233 188.865 197.16 189.998 195.039 189.998C192.918 189.998 190.844 188.865 188.906 186.7C186.967 184.536 185.201 181.378 183.708 177.437C180.724 169.559 178.869 158.645 178.869 146.568C178.869 133.526 181.032 121.844 184.442 113.876L184.886 112.838L183.848 113.282C175.88 116.692 164.198 118.855 151.156 118.855C139.079 118.855 128.165 117 120.287 114.016C116.346 112.523 113.188 110.757 111.024 108.818C108.859 106.88 107.726 104.806 107.726 102.685C107.726 100.564 108.859 98.4908 111.024 96.5521C113.188 94.6136 116.346 92.8472 120.287 91.3546C128.165 88.3705 139.079 86.5154 151.156 86.5154C164.198 86.5154 175.88 88.6785 183.848 92.0881L184.886 92.5324L184.442 91.4942C181.032 83.5262 178.869 71.8445 178.869 58.8026C178.869 46.725 180.724 35.8112 183.708 27.9331C185.201 23.9925 186.967 20.8348 188.906 18.6703C190.844 16.5055 192.918 15.3723 195.039 15.3723C197.16 15.3723 199.233 16.5055 201.172 18.6702C203.11 20.8348 204.877 23.9925 206.369 27.9331C209.353 35.8112 211.208 46.725 211.208 58.8026C211.208 71.8445 209.045 83.5262 205.636 91.4942Z" stroke="#101010" stroke-width="0.904797"/>
</g>
<mask id="mask4_464_2091" style="mask-type:luminance" maskUnits="userSpaceOnUse" x="72" y="-20" width="246" height="245">
<path d="M317.19 -19.4609H72.8945V224.834H317.19V-19.4609Z" fill="white"/>
</mask>
<g mask="url(#mask4_464_2091)">
<path d="M209.953 87.1813L209.509 88.2194L210.547 87.7752C221.665 83.0177 237.949 80.005 256.116 80.005C272.94 80.005 288.152 82.5889 299.141 86.7515C304.637 88.8333 309.054 91.3013 312.088 94.0188C315.123 96.7366 316.737 99.6665 316.737 102.687C316.737 105.707 315.123 108.637 312.088 111.354C309.054 114.072 304.637 116.54 299.141 118.622C288.152 122.784 272.94 125.368 256.116 125.368C237.949 125.368 221.665 122.355 210.547 117.598L209.509 117.154L209.953 118.192C214.711 129.31 217.723 145.593 217.723 163.76C217.723 180.585 215.139 195.797 210.977 206.786C208.895 212.282 206.427 216.698 203.71 219.733C200.992 222.768 198.062 224.382 195.042 224.382C192.022 224.382 189.092 222.768 186.374 219.733C183.657 216.698 181.189 212.282 179.107 206.786C174.944 195.797 172.36 180.585 172.36 163.76C172.36 145.593 175.373 129.31 180.131 118.192L180.575 117.154L179.537 117.598C168.419 122.355 152.136 125.368 133.968 125.368C117.144 125.368 101.932 122.784 90.9429 118.622C85.4468 116.54 81.0303 114.072 77.9958 111.354C74.9611 108.637 73.3469 105.707 73.3469 102.687C73.3469 99.6665 74.9611 96.7366 77.9958 94.0188C81.0303 91.3013 85.4468 88.8333 90.9429 86.7515C101.932 82.5889 117.144 80.005 133.968 80.005C152.136 80.005 168.419 83.0177 179.537 87.7752L180.575 88.2194L180.131 87.1813C175.373 76.0636 172.36 59.7803 172.36 41.6128C172.36 24.7881 174.944 9.57646 179.107 -1.41258C181.189 -6.9087 183.657 -11.3252 186.374 -14.3596C189.092 -17.3943 192.022 -19.0085 195.042 -19.0085C198.062 -19.0085 200.992 -17.3943 203.71 -14.3596C206.427 -11.3252 208.895 -6.9087 210.977 -1.41258C215.139 9.57645 217.723 24.7881 217.723 41.6128C217.723 59.7803 214.711 76.0636 209.953 87.1813Z" stroke="#101010" stroke-width="0.904797"/>
</g>
<mask id="mask5_464_2091" style="mask-type:luminance" maskUnits="userSpaceOnUse" x="22" y="-71" width="346" height="347">
<path d="M367.855 -70.1309H22.2227V275.501H367.855V-70.1309Z" fill="white"/>
</mask>
<g mask="url(#mask5_464_2091)">
<path d="M216.308 80.822L215.864 81.8601L216.902 81.4159C232.662 74.6722 255.727 70.4073 281.447 70.4073C305.267 70.4073 326.812 74.0654 342.386 79.9645C350.175 82.9147 356.446 86.4166 360.763 90.2822C365.079 94.148 367.403 98.3402 367.403 102.685C367.403 107.03 365.079 111.223 360.763 115.088C356.446 118.954 350.175 122.456 342.386 125.406C326.812 131.305 305.267 134.963 281.447 134.963C255.727 134.963 232.662 130.698 216.902 123.954L215.864 123.51L216.308 124.548C223.051 140.308 227.316 163.373 227.316 189.093C227.316 212.914 223.658 234.459 217.759 250.033C214.809 257.821 211.307 264.093 207.442 268.409C203.576 272.726 199.384 275.049 195.039 275.049C190.694 275.049 186.502 272.726 182.636 268.409C178.77 264.093 175.268 257.821 172.318 250.033C166.419 234.459 162.761 212.914 162.761 189.093C162.761 163.373 167.026 140.308 173.769 124.548L174.214 123.51L173.175 123.954C157.416 130.698 134.352 134.963 108.631 134.963C84.8102 134.963 63.2649 131.305 47.6913 125.406C39.9028 122.456 33.6313 118.954 29.3148 115.088C24.9982 111.223 22.6751 107.03 22.6751 102.685C22.6751 98.3402 24.9982 94.148 29.3148 90.2822C33.6313 86.4166 39.9028 82.9147 47.6913 79.9645C63.2649 74.0654 84.8102 70.4073 108.631 70.4073C134.352 70.4073 157.416 74.6722 173.175 81.4159L174.214 81.8601L173.769 80.822C167.026 65.0628 162.761 41.9981 162.761 16.2772C162.761 -7.54336 166.419 -29.0886 172.318 -44.6622C175.268 -52.4507 178.77 -58.7222 182.636 -63.0387C186.502 -67.3554 190.694 -69.6785 195.039 -69.6785C199.384 -69.6785 203.576 -67.3554 207.442 -63.0387C211.307 -58.7222 214.809 -52.4507 217.759 -44.6623C223.658 -29.0886 227.316 -7.54337 227.316 16.2772C227.316 41.9981 223.051 65.0628 216.308 80.822Z" stroke="#101010" stroke-width="0.904797"/>
</g>
<mask id="mask6_464_2091" style="mask-type:luminance" maskUnits="userSpaceOnUse" x="-38" y="-130" width="466" height="466">
<path d="M427.569 -129.846H-37.4961V335.22H427.569V-129.846Z" fill="white"/>
</mask>
<g mask="url(#mask6_464_2091)">
<path d="M223.799 73.3303L223.355 74.3685L224.393 73.9242C245.623 64.8397 276.681 59.0991 311.303 59.0991C343.368 59.0991 372.378 64.0231 393.355 71.9689C403.845 75.9424 412.303 80.6629 418.131 85.8816C423.958 91.1005 427.117 96.7803 427.117 102.687C427.117 108.594 423.958 114.274 418.131 119.492C412.303 124.711 403.845 129.431 393.355 133.405C372.378 141.35 343.368 146.274 311.303 146.274C276.681 146.274 245.623 140.534 224.393 131.449L223.355 131.005L223.799 132.043C232.883 153.274 238.624 184.331 238.624 218.953C238.624 251.019 233.7 280.029 225.754 301.006C221.781 311.496 217.061 319.954 211.842 325.781C206.623 331.609 200.943 334.767 195.037 334.767C189.13 334.767 183.45 331.609 178.231 325.781C173.012 319.954 168.292 311.496 164.319 301.006C156.373 280.029 151.449 251.019 151.449 218.953C151.449 184.331 157.189 153.274 166.274 132.043L166.718 131.005L165.68 131.449C144.45 140.534 113.393 146.274 78.7702 146.274C46.7046 146.274 17.6947 141.35 -3.28219 133.405C-13.7723 129.431 -22.2301 124.711 -28.0575 119.492C-33.8851 114.274 -37.0437 108.594 -37.0437 102.687C-37.0437 96.7803 -33.8851 91.1005 -28.0575 85.8816C-22.2301 80.6629 -13.7723 75.9424 -3.28218 71.9689C17.6947 64.0231 46.7046 59.0991 78.7702 59.0991C113.393 59.0991 144.45 64.8397 165.68 73.9242L166.718 74.3685L166.274 73.3303C157.189 52.1007 151.449 21.0438 151.449 -13.5794C151.449 -45.6451 156.373 -74.6549 164.319 -95.6318C168.292 -106.122 173.012 -114.58 178.231 -120.407C183.45 -126.235 189.13 -129.393 195.037 -129.393C200.943 -129.393 206.623 -126.235 211.842 -120.407C217.061 -114.58 221.781 -106.122 225.754 -95.6318C233.7 -74.6549 238.624 -45.6451 238.624 -13.5794C238.624 21.0438 232.883 52.1007 223.799 73.3303Z" stroke="#101010" stroke-width="0.904797"/>
</g>
<mask id="mask7_464_2091" style="mask-type:luminance" maskUnits="userSpaceOnUse" x="-131" y="-224" width="652" height="653">
<path d="M520.766 -223.041H-130.688V428.412H520.766V-223.041Z" fill="white"/>
</mask>
<g mask="url(#mask7_464_2091)">
<path d="M235.496 61.6349L235.051 62.673L236.089 62.2288C265.857 49.491 309.388 41.4474 357.903 41.4474C402.835 41.4474 443.494 48.347 472.904 59.4869C487.61 65.0575 499.48 71.6797 507.665 79.01C515.851 86.3406 520.314 94.3421 520.314 102.686C520.314 111.029 515.851 119.031 507.665 126.361C499.48 133.692 487.61 140.314 472.904 145.884C443.494 157.024 402.835 163.923 357.903 163.923C309.388 163.923 265.857 155.88 236.089 143.142L235.051 142.698L235.496 143.736C248.233 173.504 256.276 217.035 256.276 265.549C256.276 310.482 249.377 351.141 238.238 380.55C232.667 395.257 226.045 407.127 218.715 415.312C211.384 423.498 203.383 427.96 195.039 427.96C186.696 427.96 178.694 423.498 171.364 415.312C164.033 407.127 157.411 395.257 151.84 380.55C140.701 351.141 133.801 310.482 133.801 265.549C133.801 217.035 141.845 173.504 154.582 143.736L155.027 142.698L153.988 143.142C124.222 155.88 80.6919 163.923 32.1759 163.923C-12.7572 163.923 -53.4163 157.024 -82.8256 145.884C-97.5319 140.314 -109.402 133.692 -117.587 126.361C-125.773 119.031 -130.235 111.029 -130.235 102.686C-130.235 94.3421 -125.773 86.3406 -117.587 79.01C-109.402 71.6797 -97.5319 65.0575 -82.8256 59.4869C-53.4163 48.347 -12.7572 41.4474 32.1759 41.4474C80.6919 41.4474 124.222 49.491 153.988 62.2288L155.027 62.673L154.582 61.6349C141.845 31.8681 133.801 -11.6616 133.801 -60.1776C133.801 -105.111 140.701 -145.77 151.84 -175.179C157.411 -189.885 164.033 -201.755 171.364 -209.941C178.694 -218.126 186.696 -222.589 195.039 -222.589C203.383 -222.589 211.384 -218.126 218.715 -209.941C226.045 -201.755 232.667 -189.885 238.238 -175.179C249.377 -145.77 256.276 -105.111 256.276 -60.1776C256.276 -11.6616 248.233 31.8681 235.496 61.6349Z" stroke="#101010" stroke-width="0.904797"/>
</g>
<mask id="mask8_464_2091" style="mask-type:luminance" maskUnits="userSpaceOnUse" x="-295" y="-387" width="980" height="980">
<path d="M684.537 -386.807H-294.453V592.183H684.537V-386.807Z" fill="white"/>
</mask>
<g mask="url(#mask8_464_2091)">
<path d="M256.048 41.0875L255.603 42.1256L256.642 41.6814C301.412 22.5239 366.862 10.4333 439.789 10.4333C507.333 10.4333 568.464 20.8045 612.691 37.5574C634.807 45.9344 652.672 55.8983 665.001 66.9395C677.33 77.9808 684.084 90.0621 684.084 102.688C684.084 115.315 677.33 127.396 665.001 138.437C652.672 149.478 634.807 159.442 612.691 167.818C568.464 184.571 507.333 194.941 439.789 194.941C366.862 194.941 301.412 182.852 256.642 163.694L255.603 163.25L256.048 164.288C275.205 209.059 287.295 274.508 287.295 347.436C287.295 414.98 276.924 476.11 260.172 520.338C251.795 542.453 241.831 560.319 230.79 572.648C219.749 584.977 207.668 591.731 195.042 591.731C182.416 591.731 170.334 584.977 159.293 572.648C148.252 560.319 138.288 542.453 129.911 520.338C113.158 476.11 102.787 414.98 102.787 347.436C102.787 274.508 114.877 209.059 134.035 164.288L134.479 163.25L133.441 163.694C88.6721 182.852 23.2241 194.941 -49.7057 194.941C-117.25 194.941 -178.38 184.571 -222.608 167.818C-244.723 159.442 -262.589 149.478 -274.918 138.437C-287.247 127.396 -294.001 115.315 -294.001 102.688C-294.001 90.0621 -287.247 77.9808 -274.918 66.9395C-262.589 55.8983 -244.723 45.9344 -222.608 37.5574C-178.38 20.8045 -117.25 10.4333 -49.7057 10.4333C23.2241 10.4333 88.6721 22.5239 133.441 41.6814L134.479 42.1256L134.035 41.0875C114.877 -3.68143 102.787 -69.1294 102.787 -142.059C102.787 -209.604 113.158 -270.734 129.911 -314.961C138.288 -337.077 148.252 -354.942 159.293 -367.271C170.334 -379.6 182.416 -386.354 195.042 -386.354C207.668 -386.354 219.749 -379.6 230.79 -367.271C241.831 -354.942 251.795 -337.077 260.172 -314.961C276.924 -270.734 287.295 -209.604 287.295 -142.059C287.295 -69.1294 275.205 -3.68143 256.048 41.0875Z" stroke="#101010" stroke-width="0.904797"/>
</g>
</g>
<defs>
<clipPath id="clip0_464_2091">
<rect width="413.492" height="202.674" fill="white" transform="translate(0.507812 0.445312)"/>
</clipPath>
<clipPath id="clip1_464_2091">
<rect width="70.5741" height="70.5741" fill="white" transform="translate(159.754 67.4004)"/>
</clipPath>
</defs>
</svg>
