<svg width="382" height="203" viewBox="0 0 382 203" fill="none" xmlns="http://www.w3.org/2000/svg">
<g clip-path="url(#clip0_464_2038)">
<g clip-path="url(#clip1_464_2038)">
<mask id="mask0_464_2038" style="mask-type:luminance" maskUnits="userSpaceOnUse" x="176" y="67" width="61" height="60">
<path d="M236.646 67.248H176.93V126.965H236.646V67.248Z" fill="white"/>
</mask>
<g mask="url(#mask0_464_2038)">
<path d="M206.864 126.965C205.922 126.965 205.126 126.283 204.898 125.369C204.171 122.457 202.779 119.36 200.723 116.079C198.287 112.139 194.814 108.485 190.304 105.115C186.381 102.151 182.459 100.129 178.536 99.0504C177.607 98.7951 176.93 97.9713 176.93 97.0079C176.93 96.0633 177.581 95.249 178.49 94.9896C182.335 93.8916 186.04 92.109 189.604 89.6418C193.699 86.7907 197.12 83.3694 199.868 79.378C202.298 75.8223 203.967 72.3057 204.873 68.8282C205.11 67.9172 205.912 67.248 206.854 67.248C207.806 67.248 208.614 67.932 208.845 68.8554C209.368 70.9401 210.186 73.074 211.298 75.2569C212.698 77.9525 214.486 80.5443 216.663 83.0325C218.892 85.4689 221.38 87.6719 224.128 89.6418C227.718 92.1866 231.367 93.9745 235.077 95.0055C235.987 95.2584 236.646 96.0686 236.646 97.013C236.646 97.9716 235.967 98.7885 235.043 99.042C232.691 99.6867 230.271 100.726 227.782 102.16C224.776 103.923 221.976 106.022 219.384 108.459C216.793 110.843 214.667 113.357 213.008 116.001C210.948 119.289 209.555 122.41 208.829 125.364C208.604 126.28 207.807 126.965 206.864 126.965Z" fill="#101010"/>
</g>
</g>
<mask id="mask1_464_2038" style="mask-type:luminance" maskUnits="userSpaceOnUse" x="166" y="57" width="81" height="80">
<path d="M246.599 57.2949H166.977V136.917H246.599V57.2949Z" fill="white"/>
</mask>
<g mask="url(#mask1_464_2038)">
<path d="M169.239 99.2619L169.239 99.2618C168.181 98.971 167.429 98.0394 167.429 96.9747C167.429 95.9296 168.152 95.0126 169.181 94.7187C174.36 93.24 179.344 90.8406 184.133 87.5252L184.134 87.5245C189.638 83.6929 194.238 79.0928 197.933 73.7247L197.934 73.7235C201.198 68.9478 203.448 64.2118 204.672 59.5159C204.941 58.4841 205.842 57.7473 206.876 57.7473C207.92 57.7473 208.829 58.5004 209.092 59.5482L209.531 59.4381L209.092 59.5482C209.799 62.365 210.902 65.242 212.398 68.1787L212.399 68.1819C214.284 71.8108 216.689 75.2963 219.614 78.6388L219.614 78.6389L219.621 78.6462C222.614 81.9184 225.956 84.8766 229.643 87.5209L229.645 87.5223C234.469 90.9414 239.382 93.3503 244.385 94.7407L244.506 94.3049L244.385 94.7407C245.417 95.0275 246.146 95.9399 246.146 96.9815C246.146 98.0376 245.395 98.9615 244.341 99.2506C241.163 100.122 237.9 101.525 234.554 103.453L234.551 103.455C230.513 105.822 226.754 108.641 223.275 111.911C219.794 115.114 216.934 118.496 214.698 122.058L214.698 122.059C211.932 126.473 210.052 130.678 209.07 134.675C208.815 135.714 207.918 136.465 206.889 136.465C205.861 136.465 204.965 135.717 204.706 134.68L204.268 134.79L204.706 134.68C203.723 130.74 201.845 126.567 199.085 122.164C195.801 116.854 191.128 111.942 185.08 107.423C179.814 103.443 174.534 100.718 169.239 99.2619Z" stroke="#101010" stroke-width="0.904797"/>
</g>
<mask id="mask2_464_2038" style="mask-type:luminance" maskUnits="userSpaceOnUse" x="146" y="36" width="122" height="122">
<path d="M267.407 36.4863H146.164V157.729H267.407V36.4863Z" fill="white"/>
<path d="M267.407 36.4863H146.164V157.729H267.407V36.4863Z" fill="white"/>
</mask>
<g mask="url(#mask2_464_2038)">
<path d="M149.546 100.619L149.546 100.619C147.84 100.15 146.616 98.644 146.616 96.9078C146.616 95.2044 147.794 93.7198 149.456 93.2452C157.315 91.0012 164.881 87.3593 172.154 82.3243L172.155 82.3236C180.513 76.505 187.498 69.5203 193.108 61.3703L193.109 61.369C198.067 54.1152 201.479 46.9283 203.335 39.8086C203.77 38.1419 205.23 36.9387 206.919 36.9387C208.627 36.9387 210.099 38.1685 210.523 39.8599C211.595 44.1297 213.268 48.4939 215.539 52.9521L215.54 52.9552C218.4 58.4628 222.052 63.7548 226.494 68.8315L226.494 68.8316L226.501 68.8389C231.048 73.8092 236.124 78.3029 241.726 82.32L241.728 82.3214C249.054 87.5142 256.511 91.1692 264.099 93.2782L264.221 92.8424L264.099 93.2783C265.766 93.7412 266.954 95.2184 266.954 96.9182C266.954 98.6424 265.73 100.136 264.031 100.601C259.214 101.922 254.265 104.05 249.184 106.977L249.181 106.979C243.047 110.574 237.337 114.857 232.051 119.826C226.764 124.69 222.423 129.824 219.031 135.229L219.031 135.229C214.83 141.935 211.978 148.316 210.491 154.371C210.079 156.049 208.626 157.277 206.939 157.277C205.255 157.277 203.805 156.053 203.387 154.38L202.948 154.489L203.387 154.38C201.897 148.41 199.049 142.079 194.855 135.388C189.874 127.333 182.781 119.874 173.59 113.007C165.59 106.96 157.575 102.826 149.546 100.619Z" stroke="#101010" stroke-width="0.904797"/>
</g>
<mask id="mask3_464_2038" style="mask-type:luminance" maskUnits="userSpaceOnUse" x="122" y="12" width="169" height="170">
<path d="M290.929 12.959H122.637V181.251H290.929V12.959Z" fill="white"/>
<path d="M290.929 12.959H122.637V181.251H290.929V12.959Z" fill="white"/>
</mask>
<g mask="url(#mask3_464_2038)">
<path d="M127.285 102.148L127.285 102.148C124.847 101.478 123.089 99.3229 123.089 96.8275C123.089 94.3799 124.78 92.2538 127.157 91.5749C138.047 88.4658 148.532 83.4194 158.612 76.4405L158.613 76.4398C170.198 68.3749 179.878 58.6946 187.653 47.3998L187.654 47.3986C194.527 37.3434 199.254 27.3857 201.824 17.5262C202.445 15.1417 204.538 13.4114 206.969 13.4114C209.426 13.4114 211.535 15.18 212.142 17.5989C213.625 23.5113 215.942 29.5567 219.089 35.7347L219.091 35.7379C223.054 43.3693 228.114 50.7033 234.272 57.7404L234.272 57.7405L234.279 57.7478C240.582 64.6376 247.618 70.8671 255.385 76.4362L255.387 76.4376C265.542 83.6354 275.874 88.6991 286.385 91.6204C288.768 92.2826 290.476 94.3981 290.476 96.842C290.476 99.3216 288.717 101.458 286.29 102.124C279.62 103.952 272.764 106.899 265.723 110.956L265.72 110.958C257.217 115.943 249.301 121.879 241.973 128.767C234.644 135.511 228.628 142.625 223.93 150.113L223.93 150.113C218.105 159.41 214.155 168.249 212.097 176.632C211.507 179.032 209.427 180.799 206.997 180.799C204.57 180.799 202.493 179.038 201.895 176.645C199.832 168.381 195.888 159.61 190.075 150.335C183.174 139.175 173.344 128.837 160.599 119.314C149.509 110.932 138.404 105.205 127.285 102.148Z" stroke="#101010" stroke-width="0.904797"/>
</g>
<mask id="mask4_464_2038" style="mask-type:luminance" maskUnits="userSpaceOnUse" x="87" y="-23" width="240" height="240">
<path d="M326.222 -22.3281H87.3555V216.538H326.222V-22.3281Z" fill="white"/>
<path d="M326.222 -22.3281H87.3555V216.538H326.222V-22.3281Z" fill="white"/>
</mask>
<g mask="url(#mask4_464_2038)">
<path d="M93.9026 104.445L93.9025 104.445C90.3669 103.473 87.8079 100.345 87.8079 96.7111C87.8079 93.1472 90.2686 90.0587 93.7197 89.0733C109.154 84.6666 124.017 77.5134 138.31 67.6187L138.311 67.618C154.735 56.1837 168.459 42.4601 179.48 26.4481L179.481 26.4469C189.227 12.1895 195.925 -1.92418 199.566 -15.8935C200.468 -19.3546 203.509 -21.8757 207.053 -21.8757C210.635 -21.8757 213.698 -19.2988 214.579 -15.7886C216.681 -7.41244 219.964 1.15483 224.425 9.91265L224.426 9.9158C230.043 20.7328 237.217 31.1299 245.948 41.1076L245.948 41.1077L245.955 41.1151C254.892 50.8842 264.869 59.7173 275.883 67.6144L275.885 67.6158C290.283 77.8212 304.928 84.9978 319.823 89.1376C323.282 90.0986 325.769 93.1716 325.769 96.7317C325.769 100.344 323.207 103.446 319.687 104.412C310.239 107.002 300.522 111.177 290.54 116.929L290.537 116.931C278.481 123.998 267.258 132.416 256.866 142.183C246.474 151.745 237.946 161.831 231.287 172.443L231.287 172.443C223.027 185.625 217.431 198.153 214.515 210.027C213.659 213.51 210.637 216.086 207.092 216.086C203.552 216.086 200.534 213.519 199.667 210.046C196.745 198.341 191.156 185.91 182.914 172.757C173.133 156.941 159.199 142.284 141.124 128.78C125.398 116.894 109.658 108.777 93.9026 104.445Z" stroke="#101010" stroke-width="0.904797"/>
</g>
<mask id="mask5_464_2038" style="mask-type:luminance" maskUnits="userSpaceOnUse" x="38" y="-72" width="338" height="338">
<path d="M375.08 -71.1875H38.4961V265.397H375.08V-71.1875Z" fill="white"/>
<path d="M375.08 -71.1875H38.4961V265.397H375.08V-71.1875Z" fill="white"/>
</mask>
<g mask="url(#mask5_464_2038)">
<path d="M110.19 55.4036L110.191 55.4029C133.316 39.3032 152.639 19.9811 168.156 -2.56231L168.156 -2.56352C181.879 -22.6393 191.308 -42.5074 196.432 -62.1673C197.723 -67.1191 202.076 -70.7351 207.16 -70.7351C212.3 -70.7351 216.685 -67.039 217.945 -62.0177C220.903 -50.2302 225.523 -38.1712 231.804 -25.8413L231.806 -25.8382C239.713 -10.6103 249.813 4.02804 262.107 18.0774L262.107 18.0775L262.114 18.0848C274.698 31.8407 288.747 44.2789 304.257 55.3993L304.259 55.4007C324.531 69.7703 345.148 79.8727 366.114 85.6995C371.062 87.0743 374.628 91.4731 374.628 96.5786C374.628 101.76 370.954 106.199 365.922 107.579C352.626 111.224 338.948 117.1 324.894 125.199L324.891 125.201C307.915 135.152 292.111 147.005 277.478 160.76C262.845 174.223 250.839 188.423 241.465 203.361L241.465 203.361C229.834 221.924 221.959 239.558 217.855 256.267C216.631 261.249 212.304 264.944 207.216 264.944C202.135 264.944 197.814 261.262 196.574 256.294C192.463 239.823 184.596 222.325 172.989 203.803C159.221 181.54 139.604 160.903 114.15 141.885C92.0052 125.147 69.846 113.723 47.6725 107.626L47.5525 108.062L47.6724 107.626C42.6167 106.237 38.9485 101.76 38.9485 96.5496C38.9485 91.44 42.4757 87.019 47.4131 85.6093C69.1402 79.4058 90.066 69.3355 110.19 55.4036Z" stroke="#101010" stroke-width="0.904797"/>
</g>
<mask id="mask6_464_2038" style="mask-type:luminance" maskUnits="userSpaceOnUse" x="-33" y="-143" width="480" height="480">
<path d="M446.554 -142.666H-32.9883V336.876H446.554V-142.666Z" fill="white"/>
<path d="M446.554 -142.666H-32.9883V336.876H446.554V-142.666Z" fill="white"/>
</mask>
<g mask="url(#mask6_464_2038)">
<path d="M69.047 37.5343L69.048 37.5336C101.977 14.6087 129.489 -12.9038 151.583 -45.0025L151.584 -45.0037C171.125 -73.5916 184.548 -101.878 191.842 -129.863C193.701 -136.996 199.974 -142.214 207.313 -142.214C214.731 -142.214 221.05 -136.88 222.864 -129.648C227.074 -112.87 233.652 -95.7027 242.595 -78.1471L242.596 -78.144C253.855 -56.4631 268.236 -35.62 285.742 -15.614L285.748 -15.6066C303.669 3.98169 323.675 21.6939 345.761 37.53L345.763 37.5314C374.63 57.9932 403.984 72.3757 433.83 80.6706C440.957 82.6508 446.102 88.9892 446.102 96.3555C446.102 103.832 440.801 110.226 433.556 112.213C414.631 117.402 395.16 125.767 375.147 137.299L375.144 137.301C350.97 151.472 328.465 168.35 307.627 187.937C286.79 207.108 269.696 227.327 256.351 248.594L256.351 248.594C239.788 275.028 228.577 300.133 222.737 323.914C220.974 331.09 214.738 336.424 207.392 336.424C200.057 336.424 193.83 331.109 192.044 323.953C186.192 300.512 174.994 275.599 158.464 249.222C138.864 217.527 110.931 188.141 74.68 161.056C43.146 137.223 11.5975 120.959 -19.9654 112.28L-20.0853 112.717L-19.9654 112.28C-27.2451 110.28 -32.5359 103.831 -32.5359 96.3143C-32.5359 88.9433 -27.4485 82.5731 -20.3367 80.5424C10.5967 71.7104 40.3914 57.3726 69.047 37.5343Z" stroke="#101010" stroke-width="0.904797"/>
</g>
<mask id="mask7_464_2038" style="mask-type:luminance" maskUnits="userSpaceOnUse" x="-102" y="-212" width="618" height="618">
<path d="M515.321 -211.43H-101.75V405.642H515.321V-211.43Z" fill="white"/>
<path d="M515.321 -211.43H-101.75V405.642H515.321V-211.43Z" fill="white"/>
</mask>
<g mask="url(#mask7_464_2038)">
<path d="M29.4744 20.344L29.4754 20.3433C71.8353 -9.14766 107.227 -44.5394 135.649 -85.8306L135.65 -85.8318C160.788 -122.608 178.053 -158.994 187.435 -194.988C189.841 -204.219 197.96 -210.977 207.467 -210.977C217.078 -210.977 225.257 -204.069 227.605 -194.71C233.02 -173.131 241.481 -151.049 252.984 -128.466L252.985 -128.463C267.468 -100.574 285.967 -73.762 308.487 -48.0256L308.494 -48.0182C331.548 -22.8189 357.285 -0.0328522 385.698 20.3397L385.7 20.3411C422.835 46.6638 460.594 65.164 498.983 75.8333C508.206 78.3958 514.869 86.6001 514.869 96.1414C514.869 105.825 508.004 114.101 498.63 116.672C474.29 123.345 449.245 134.105 423.5 148.94L423.497 148.941C392.399 167.171 363.447 188.884 336.64 214.083C309.833 238.746 287.845 264.755 270.68 292.11L270.679 292.11C249.372 326.116 234.952 358.409 227.441 388.993C225.159 398.279 217.088 405.189 207.569 405.189C198.065 405.189 190.005 398.304 187.694 389.044C180.168 358.896 165.765 326.851 144.499 292.918C119.288 252.149 83.3566 214.347 36.7191 179.502C-3.84832 148.841 -44.4303 127.921 -85.0266 116.758C-94.4458 114.17 -101.298 105.824 -101.298 96.0884C-101.298 86.542 -94.7092 78.2965 -85.5056 75.6685C-45.7155 64.3078 -7.38877 45.8644 29.4744 20.344Z" stroke="#101010" stroke-width="0.904797"/>
</g>
</g>
<defs>
<clipPath id="clip0_464_2038">
<rect width="413.492" height="202.674" fill="white" transform="translate(0.492188 0.292969)"/>
</clipPath>
<clipPath id="clip1_464_2038">
<rect width="59.7166" height="59.7166" fill="white" transform="translate(176.926 67.248)"/>
</clipPath>
</defs>
</svg>
