<svg width="40" height="40" viewBox="0 0 40 40" fill="none" xmlns="http://www.w3.org/2000/svg">
<circle cx="20" cy="20" r="18" stroke="#DADADA" stroke-width="4"/>
<path fill-rule="evenodd" clip-rule="evenodd" d="M15.1497 12H11.6001V22.7738C11.6001 24.4099 11.9256 25.849 12.5909 27.0789L12.5926 27.0821L12.5944 27.0852C13.2797 28.2945 14.2491 29.2328 15.4951 29.896L15.4982 29.8977L15.5014 29.8993C16.7671 30.5422 18.2412 30.857 19.9126 30.857C21.5854 30.857 23.0526 30.532 24.3014 29.8673C25.5477 29.204 26.5083 28.2651 27.1746 27.0545C27.8611 25.842 28.1964 24.4104 28.1964 22.7738V12H24.6182V22.6018C24.6182 24.1799 24.1975 25.3468 23.4047 26.1568C22.6137 26.965 21.4685 27.3934 19.9126 27.3934C18.3363 27.3934 17.1704 26.9737 16.3604 26.1827C15.5701 25.3734 15.1497 24.1986 15.1497 22.6018V12Z" fill="#DADADA"/>
</svg>
