<svg width="48" height="16" viewBox="0 0 48 16" fill="none" xmlns="http://www.w3.org/2000/svg">
<path d="M46.4698 6.14381L24.3864 0.0926397C24.1749 0.0201833 23.8921 0.0178525 23.6794 0.0868126L0.924315 6.89988C0.357484 7.03664 -0.000136167 7.52868 -0.0047978 8.09435C-0.00712861 8.37718 0.202084 8.73247 0.412461 8.94634C0.552712 9.08892 0.764254 9.16138 0.975796 9.23384L24.6813 15.7934C24.8929 15.8658 25.1757 15.8682 25.3884 15.7992L46.5914 8.54906C47.0881 8.34101 47.4457 7.84897 47.4504 7.28331C47.455 6.71764 47.0343 6.28989 46.4698 6.14381ZM24.9127 13.4618L5.79328 8.14213L24.0826 2.63581L42.0041 7.45056L24.9127 13.4618Z" fill="black"/>
</svg>
