<svg class="logo-navbar" width="513" height="104" viewBox="0 0 513 104" fill="none" xmlns="http://www.w3.org/2000/svg">
<path d="M120.318 66.36V1.80101H133.895V65.5288C133.895 73.564 136.019 79.7521 140.268 84.0929C144.609 88.3415 150.751 90.4657 158.694 90.4657C166.544 90.4657 172.594 88.2953 176.842 83.9544C181.091 79.6135 183.215 73.4716 183.215 65.5288V1.80101H196.93V66.36C196.93 74.0258 195.36 80.6295 192.22 86.171C189.172 91.7126 184.785 96.0073 179.059 99.0551C173.332 102.103 166.544 103.627 158.694 103.627C150.843 103.627 144.008 102.149 138.19 99.1936C132.464 96.1458 128.03 91.8511 124.89 86.3096C121.842 80.6757 120.318 74.0258 120.318 66.36Z" fill="#DADADA"/>
<path d="M225.045 101.964H212.022V0H225.045V101.964Z" fill="#DADADA"/>
<path d="M258.485 103.627C251.281 103.627 245.601 101.734 241.444 97.9468C237.381 94.1601 235.349 89.2189 235.349 83.1232C235.349 76.9351 237.565 71.9939 241.999 68.2995C246.432 64.5128 252.62 62.2962 260.563 61.6497L281.898 59.9872V58.0477C281.898 54.261 281.205 51.2593 279.82 49.0427C278.434 46.7337 276.541 45.1174 274.139 44.1938C271.738 43.1779 269.014 42.6699 265.966 42.6699C260.517 42.6699 256.268 43.8244 253.22 46.1334C250.265 48.35 248.787 51.5364 248.787 55.6925H237.427C237.427 50.9822 238.627 46.8722 241.029 43.3626C243.43 39.8529 246.801 37.1283 251.142 35.1888C255.575 33.2493 260.701 32.2795 266.52 32.2795C272.154 32.2795 277.049 33.2955 281.205 35.3274C285.453 37.2669 288.732 40.2686 291.041 44.3324C293.443 48.3038 294.643 53.3374 294.643 59.4331V101.964H283.56L282.175 91.0199C280.42 94.8989 277.372 97.993 273.031 100.302C268.783 102.519 263.934 103.627 258.485 103.627ZM262.225 93.5136C268.413 93.5136 273.262 91.6664 276.772 87.972C280.281 84.1853 282.036 79.1056 282.036 72.7328V69.1308L264.719 70.5162C258.993 71.0703 254.836 72.4095 252.25 74.5338C249.757 76.658 248.51 79.3826 248.51 82.7076C248.51 86.3096 249.711 89.0341 252.112 90.8813C254.606 92.6362 257.977 93.5136 262.225 93.5136Z" fill="#DADADA"/>
<path d="M302.703 68.161C302.703 61.0493 304.089 54.8151 306.86 49.4583C309.723 44.1015 313.648 39.8991 318.635 36.8513C323.623 33.8034 329.395 32.2795 335.953 32.2795C344.45 32.2795 351.515 34.5423 357.149 39.0679C362.783 43.5935 366.154 49.5968 367.262 57.0779H354.24C353.131 52.737 350.961 49.4583 347.728 47.2417C344.496 45.0251 340.709 43.9167 336.368 43.9167C332.304 43.9167 328.702 44.9327 325.562 46.9646C322.422 48.9041 319.975 51.6749 318.22 55.2769C316.465 58.8789 315.587 63.1274 315.587 68.0225C315.587 72.9175 316.419 77.166 318.081 80.768C319.744 84.2777 322.099 87.0484 325.147 89.0803C328.194 91.0199 331.75 91.9896 335.814 91.9896C340.432 91.9896 344.403 90.8352 347.728 88.5262C351.053 86.2172 353.27 83.077 354.378 79.1056H367.401C366.57 84.0006 364.676 88.2953 361.721 91.9896C358.858 95.5916 355.163 98.4548 350.638 100.579C346.204 102.611 341.263 103.627 335.814 103.627C329.164 103.627 323.346 102.149 318.358 99.1936C313.463 96.2382 309.63 92.1282 306.86 86.8637C304.089 81.5069 302.703 75.2726 302.703 68.161Z" fill="#DADADA"/>
<path d="M371.166 68.0225C371.166 61.0955 372.69 54.9537 375.738 49.5968C378.786 44.24 382.942 40.0377 388.207 36.9898C393.563 33.942 399.659 32.418 406.494 32.418C413.328 32.418 419.378 33.942 424.642 36.9898C429.907 40.0377 434.063 44.24 437.111 49.5968C440.159 54.9537 441.682 61.0955 441.682 68.0225C441.682 74.9494 440.159 81.0913 437.111 86.4481C434.063 91.8049 429.907 96.0073 424.642 99.0551C419.378 102.103 413.328 103.627 406.494 103.627C399.659 103.627 393.563 102.103 388.207 99.0551C382.942 96.0073 378.786 91.8049 375.738 86.4481C372.69 81.0913 371.166 74.9494 371.166 68.0225ZM384.327 68.0225C384.327 72.7328 385.251 76.8889 387.098 80.4909C389.038 84.0929 391.67 86.9099 394.995 88.9418C398.32 90.9737 402.153 91.9896 406.494 91.9896C410.835 91.9896 414.667 90.9737 417.992 88.9418C421.317 86.9099 423.903 84.0929 425.75 80.4909C427.69 76.8889 428.66 72.7328 428.66 68.0225C428.66 63.2198 427.69 59.0636 425.75 55.554C423.903 51.952 421.317 49.135 417.992 47.1031C414.667 45.0712 410.835 44.0553 406.494 44.0553C402.153 44.0553 398.32 45.0712 394.995 47.1031C391.67 49.135 389.038 51.952 387.098 55.554C385.251 59.0636 384.327 63.2198 384.327 68.0225Z" fill="#DADADA"/>
<path d="M463.579 101.964H450.556V34.219H462.332L463.718 44.6094C465.842 40.7304 468.89 37.7287 472.861 35.6044C476.925 33.3878 481.358 32.2795 486.161 32.2795C495.027 32.2795 501.585 34.8194 505.833 39.8991C510.082 44.9789 512.206 51.8596 512.206 60.5414V101.964H499.184V63.4507C499.184 56.6161 497.706 51.7211 494.75 48.7656C491.795 45.7177 487.823 44.1938 482.836 44.1938C476.74 44.1938 471.984 46.1795 468.566 50.151C465.242 54.1224 463.579 59.4331 463.579 66.0829V101.964Z" fill="#DADADA"/>
<circle cx="50" cy="52" r="45" stroke="#DADADA" stroke-width="10"/>
<path fill-rule="evenodd" clip-rule="evenodd" d="M37.874 32H29V58.9346C29 63.0247 29.8137 66.6226 31.477 69.6971L31.4813 69.7051L31.4858 69.713C33.1989 72.7362 35.6225 75.0821 38.7375 76.74L38.7453 76.7442L38.7532 76.7482C41.9175 78.3555 45.6028 79.1424 49.7813 79.1424C53.9633 79.1424 57.6313 78.3301 60.7534 76.6684C63.8689 75.0101 66.2705 72.6627 67.9364 69.6361C69.6526 66.6051 70.4909 63.0261 70.4909 58.9346V32H61.5452V58.5045C61.5452 62.4498 60.4935 65.3669 58.5114 67.392C56.5339 69.4126 53.671 70.4834 49.7813 70.4834C45.8406 70.4834 42.9257 69.4342 40.9008 67.4566C38.9251 65.4336 37.874 62.4964 37.874 58.5045V32Z" fill="#DADADA"/>
</svg>
