<svg width="376" height="204" viewBox="0 0 376 204" fill="none" xmlns="http://www.w3.org/2000/svg">
<g clip-path="url(#clip0_464_1980)">
<mask id="mask0_464_1980" style="mask-type:luminance" maskUnits="userSpaceOnUse" x="173" y="74" width="55" height="55">
<path d="M227.098 74.9121H173.715V128.295H227.098V74.9121Z" fill="white"/>
</mask>
<g mask="url(#mask0_464_1980)">
<path d="M192.819 79.2721C196.23 73.4588 204.634 73.4588 208.045 79.2721L208.169 79.4832C209.743 82.1651 212.611 83.8212 215.72 83.843L215.965 83.8447C222.705 83.8919 226.907 91.1705 223.578 97.031L223.457 97.2438C221.921 99.9475 221.921 103.26 223.457 105.963L223.578 106.176C226.907 112.037 222.705 119.315 215.965 119.363L215.72 119.364C212.611 119.386 209.743 121.042 208.169 123.724L208.045 123.935C204.634 129.748 196.23 129.748 192.819 123.935L192.695 123.724C191.121 121.042 188.253 119.386 185.144 119.364L184.899 119.363C178.159 119.315 173.957 112.037 177.286 106.176L177.407 105.963C178.942 103.26 178.942 99.9475 177.407 97.2438L177.286 97.031C173.957 91.1705 178.159 83.8919 184.899 83.8447L185.144 83.843C188.253 83.8212 191.121 82.1651 192.695 79.4832L192.819 79.2721Z" fill="#101010"/>
</g>
</g>
<g clip-path="url(#clip1_464_1980)">
<mask id="mask1_464_1980" style="mask-type:luminance" maskUnits="userSpaceOnUse" x="164" y="65" width="73" height="73">
<path d="M236.155 65.8652H164.676V137.344H236.155V65.8652Z" fill="white"/>
</mask>
<g mask="url(#mask1_464_1980)">
<path d="M210.416 72.2148L210.416 72.2148C212.603 75.9432 216.591 78.2456 220.914 78.2759L221.242 78.2782C229.921 78.339 235.332 87.7119 231.045 95.2586L230.883 95.5436L231.277 95.767L230.883 95.5436C228.748 99.3023 228.748 103.907 230.883 107.666L230.883 107.666L231.045 107.951C231.045 107.951 231.045 107.951 231.045 107.951C235.332 115.498 229.921 124.87 221.242 124.931C221.242 124.931 221.242 124.931 221.242 124.931L220.914 124.933H220.914C216.591 124.964 212.604 127.266 210.416 130.994L210.416 130.995L210.25 131.277C205.858 138.763 195.035 138.763 190.643 131.277L190.477 130.994L190.087 131.223L190.477 130.994C188.289 127.266 184.301 124.964 179.979 124.933H179.978L179.651 124.931C179.651 124.931 179.651 124.931 179.651 124.931C170.972 124.87 165.56 115.498 169.847 107.951C169.847 107.951 169.847 107.951 169.847 107.951L170.009 107.666L170.009 107.666C172.144 103.907 172.144 99.3023 170.009 95.5436L170.009 95.5436L169.847 95.2586C169.847 95.2586 169.847 95.2586 169.847 95.2586C165.56 87.7119 170.972 78.339 179.651 78.2782L179.979 78.2759C184.301 78.2456 188.289 75.9432 190.477 72.2148L190.643 71.9321C195.035 64.4461 205.858 64.4462 210.25 71.9321L210.416 72.2148Z" stroke="black" stroke-width="0.904797"/>
</g>
</g>
<mask id="mask2_464_1980" style="mask-type:luminance" maskUnits="userSpaceOnUse" x="154" y="55" width="93" height="93">
<path d="M246.103 55.9102H154.719V147.295H246.103V55.9102Z" fill="white"/>
</mask>
<g mask="url(#mask2_464_1980)">
<path d="M239.468 109.289L239.468 109.289L239.675 109.653C239.675 109.653 239.675 109.653 239.675 109.653C245.203 119.386 238.225 131.472 227.033 131.551C227.033 131.551 227.033 131.551 227.032 131.551L226.613 131.554H226.613C221.131 131.592 216.074 134.512 213.299 139.24L213.299 139.24L213.087 139.602C207.423 149.256 193.466 149.256 187.802 139.602L187.59 139.24L187.2 139.469L187.59 139.24C184.816 134.512 179.759 131.592 174.277 131.554H174.276L173.857 131.551C173.857 131.551 173.857 131.551 173.857 131.551C162.665 131.472 155.687 119.386 161.215 109.653L161.422 109.289L161.422 109.289C164.13 104.522 164.13 98.6824 161.422 93.9156L161.03 94.1383L161.422 93.9156L161.215 93.5512C155.687 83.8193 162.665 71.7323 173.857 71.6539L174.276 71.651C179.759 71.6126 184.816 68.6926 187.59 63.9642L187.2 63.7353L187.59 63.9642L187.802 63.6028C193.466 53.9491 207.423 53.9492 213.087 63.6028L213.299 63.9642L213.299 63.9642C216.074 68.6926 221.131 71.6126 226.613 71.651L227.033 71.6539C238.225 71.7323 245.203 83.8193 239.675 93.5512L239.468 93.9156L239.814 94.1121L239.468 93.9156C236.76 98.6824 236.76 104.522 239.468 109.289Z" stroke="black" stroke-width="0.904797"/>
</g>
<mask id="mask3_464_1980" style="mask-type:luminance" maskUnits="userSpaceOnUse" x="144" y="45" width="113" height="113">
<path d="M256.059 45.957H144.77V157.247H256.059V45.957Z" fill="white"/>
</mask>
<g mask="url(#mask3_464_1980)">
<path d="M216.195 55.7155L216.195 55.7156C219.556 61.444 225.683 64.9815 232.324 65.028L232.835 65.0316C246.54 65.1275 255.086 79.9286 248.316 91.8458L248.064 92.2896L248.415 92.4889L248.064 92.2896C244.783 98.0645 244.783 105.14 248.064 110.915L248.064 110.915L248.316 111.358C255.086 123.276 246.54 138.076 232.835 138.172L232.324 138.176H232.324C225.683 138.223 219.556 141.76 216.195 147.488L216.195 147.488L215.936 147.928C209.001 159.75 191.91 159.75 184.974 147.928L184.716 147.488C181.355 141.76 175.228 138.223 168.586 138.176H168.586L168.076 138.172C154.37 138.076 145.825 123.276 152.595 111.358L152.847 110.915L152.847 110.915C156.127 105.14 156.127 98.0645 152.847 92.2896L152.453 92.513L152.847 92.2896L152.595 91.8458C145.825 79.9286 154.37 65.1275 168.076 65.0316L168.586 65.028C175.228 64.9815 181.355 61.444 184.716 55.7156L184.974 55.2754C191.91 43.4541 209.001 43.4541 215.936 55.2754L216.195 55.7155Z" stroke="black" stroke-width="0.904797"/>
</g>
<mask id="mask4_464_1980" style="mask-type:luminance" maskUnits="userSpaceOnUse" x="133" y="35" width="134" height="134">
<path d="M266.911 35.0996H133.906V168.105H266.911V35.0996Z" fill="white"/>
</mask>
<g mask="url(#mask4_464_1980)">
<path d="M219.348 46.7175L219.348 46.7176C223.35 53.5369 230.643 57.7481 238.549 57.8035L238.552 57.4414L238.549 57.8035L239.16 57.8077C255.607 57.9229 265.862 75.6847 257.738 89.9859L257.436 90.5162C253.531 97.391 253.531 105.814 257.436 112.688L257.436 112.688L257.737 113.218C265.862 127.52 255.607 145.281 239.16 145.397L238.55 145.401L238.549 145.401C230.643 145.456 223.35 149.668 219.348 156.486L219.348 156.487L219.039 157.013C210.717 171.199 190.207 171.199 181.883 157.013L181.575 156.487C177.574 149.668 170.28 145.456 162.373 145.401L162.373 145.401L161.764 145.397C145.316 145.281 135.062 127.52 143.185 113.218L143.487 112.688L143.487 112.688C147.392 105.814 147.392 97.391 143.487 90.5162L143.134 90.7164L143.487 90.5162L143.185 89.9859C135.062 75.6847 145.316 57.9229 161.764 57.8077L162.373 57.8035L162.37 57.3511L162.373 57.8035C170.28 57.7481 177.574 53.5369 181.575 46.7176L181.883 46.1915C190.207 32.0055 210.717 32.0055 219.039 46.1915L219.348 46.7175Z" stroke="black" stroke-width="0.904797"/>
</g>
<mask id="mask5_464_1980" style="mask-type:luminance" maskUnits="userSpaceOnUse" x="115" y="17" width="171" height="170">
<path d="M285.009 17.0039H115.812V186.201H285.009V17.0039Z" fill="white"/>
</mask>
<g mask="url(#mask5_464_1980)">
<path d="M224.614 31.7209L224.614 31.7209C229.683 40.3585 238.921 45.6924 248.935 45.7626L249.712 45.768C270.728 45.9152 283.832 68.6117 273.451 86.8861L273.068 87.5607C268.121 96.2684 268.121 106.937 273.068 115.644L273.437 115.434L273.068 115.644L273.451 116.318C283.832 134.593 270.728 157.289 249.712 157.437L248.935 157.442C238.921 157.512 229.683 162.847 224.614 171.484L224.982 171.699L224.614 171.484L224.222 172.153C213.587 190.28 187.379 190.28 176.743 172.153L176.35 171.484L175.96 171.713L176.35 171.484C171.282 162.847 162.044 157.512 152.029 157.442L151.253 157.437C130.237 157.289 117.133 134.593 127.514 116.318C127.514 116.318 127.514 116.318 127.514 116.318L127.897 115.644L127.897 115.644C132.844 106.937 132.844 96.2684 127.897 87.5607L127.504 87.7841L127.897 87.5607L127.514 86.8861C117.133 68.6117 130.237 45.9152 151.254 45.768L152.029 45.7626C162.044 45.6924 171.282 40.3585 176.35 31.7209L175.96 31.492L176.35 31.7209L176.743 31.0517C187.379 12.9245 213.587 12.9245 224.222 31.0517L224.614 31.7209Z" stroke="black" stroke-width="0.904797"/>
</g>
<mask id="mask6_464_1980" style="mask-type:luminance" maskUnits="userSpaceOnUse" x="88" y="-11" width="225" height="225">
<path d="M312.149 -10.1387H88.6641V213.346H312.149V-10.1387Z" fill="white"/>
</mask>
<g mask="url(#mask6_464_1980)">
<path d="M296.507 120.079L296.9 119.856L296.507 120.079L297.013 120.97C310.78 145.205 293.403 175.303 265.532 175.498L264.506 175.505C251.33 175.597 239.175 182.616 232.506 193.98L232.88 194.2L232.506 193.98L231.988 194.864C217.884 218.904 183.129 218.904 169.024 194.864L168.506 193.98C161.838 182.616 149.682 175.597 136.506 175.505L135.481 175.498C107.61 175.303 90.2329 145.205 103.999 120.97C103.999 120.97 103.999 120.97 103.999 120.97L104.505 120.079L104.135 119.869L104.505 120.079C111.014 108.622 111.014 94.5855 104.505 83.1284L103.999 82.2373C90.2328 58.0031 107.61 27.9046 135.481 27.7094L136.506 27.7023C149.682 27.61 161.838 20.5918 168.506 9.22693L169.024 8.34304C183.129 -15.6961 217.884 -15.696 231.988 8.34303L232.506 9.22689L232.896 8.99799L232.506 9.22695C239.175 20.5918 251.33 27.61 264.506 27.7023L265.532 27.7094C293.403 27.9046 310.78 58.0031 297.013 82.2373L296.507 83.1283C289.998 94.5855 289.998 108.622 296.507 120.079Z" stroke="black" stroke-width="0.904797"/>
</g>
<mask id="mask7_464_1980" style="mask-type:luminance" maskUnits="userSpaceOnUse" x="50" y="-49" width="301" height="301">
<path d="M350.156 -48.1387H50.668V251.349H350.156V-48.1387Z" fill="white"/>
</mask>
<g mask="url(#mask7_464_1980)">
<path d="M243.555 -22.2651L243.945 -22.494L243.555 -22.265C252.465 -7.08197 268.703 2.29408 286.306 2.41739L287.681 2.42698C325.147 2.6893 348.508 43.1506 330.001 75.7286L329.322 76.9227C320.627 92.2291 320.627 110.982 329.322 126.288L329.716 126.064L329.322 126.288L330.001 127.481C348.508 160.06 325.147 200.521 287.681 200.783L286.306 200.792C268.703 200.916 252.465 210.293 243.555 225.475L243.926 225.693L243.555 225.475L242.86 226.659C223.901 258.976 177.18 258.976 158.219 226.659L157.524 225.475C148.616 210.293 132.376 200.916 114.773 200.792L113.4 200.783C75.9334 200.521 52.5731 160.06 71.0789 127.481C71.0789 127.481 71.0789 127.481 71.0789 127.481L71.7572 126.288L71.7573 126.288C80.4521 110.982 80.4521 92.2291 71.7573 76.9227L71.3639 77.1461L71.7572 76.9227L71.0789 75.7286C52.573 43.1507 75.9333 2.6893 113.4 2.42698L114.773 2.41739C132.376 2.29408 148.616 -7.08195 157.524 -22.2651L158.219 -23.4495C177.18 -55.7652 223.901 -55.7652 242.86 -23.4495L243.555 -22.2651Z" stroke="black" stroke-width="0.904797"/>
</g>
<mask id="mask8_464_1980" style="mask-type:luminance" maskUnits="userSpaceOnUse" x="24" y="-75" width="353" height="353">
<path d="M376.392 -74.3809H24.4258V277.585H376.392V-74.3809Z" fill="white"/>
</mask>
<g mask="url(#mask8_464_1980)">
<path d="M251.181 -44.0137L251.567 -44.24L251.181 -44.0136C261.637 -26.1941 280.695 -15.19 301.355 -15.0453L302.971 -15.034C347.063 -14.7253 374.554 32.8913 352.774 71.2304L351.977 72.6337C341.772 90.598 341.772 112.607 351.977 130.571L352.325 130.373L351.977 130.571L352.774 131.973C374.554 170.313 347.063 217.929 302.971 218.238L301.355 218.249C280.695 218.394 261.637 229.399 251.181 247.217L251.571 247.446L251.181 247.217L250.364 248.609C228.052 286.64 173.068 286.64 150.755 248.609L149.938 247.217C139.483 229.399 120.423 218.394 99.7636 218.249L98.1495 218.238C54.0577 217.929 26.5663 170.313 48.3447 131.973C48.3448 131.973 48.3448 131.973 48.3448 131.973L49.1419 130.571L48.7717 130.36L49.142 130.571C59.3466 112.607 59.3466 90.598 49.142 72.6337L48.7486 72.8572L49.142 72.6337L48.3448 71.2304C26.5663 32.8913 54.0577 -14.7253 98.1497 -15.034L99.7636 -15.0453C120.423 -15.19 139.483 -26.1941 149.938 -44.0136L150.755 -45.4056C173.068 -83.4361 228.052 -83.436 250.364 -45.4057L251.181 -44.0137Z" stroke="black" stroke-width="0.904797"/>
</g>
<mask id="mask9_464_1980" style="mask-type:luminance" maskUnits="userSpaceOnUse" x="-21" y="-120" width="443" height="443">
<path d="M421.629 -119.619H-20.8164V322.826H421.629V-119.619Z" fill="white"/>
</mask>
<g mask="url(#mask9_464_1980)">
<path d="M10.1527 137.962L9.80297 137.763L10.1528 137.962C22.9604 115.415 22.9604 87.7925 10.1528 65.2459L9.75939 65.4693L10.1527 65.2458L9.15061 63.4818C-18.2704 15.2096 16.3436 -44.7437 71.8591 -45.1324L73.8879 -45.1465C99.8178 -45.3281 123.739 -59.1392 136.861 -81.5043L137.888 -83.2541C165.982 -131.138 235.211 -131.138 263.304 -83.2541L264.331 -81.5043C277.455 -59.1393 301.374 -45.3281 327.304 -45.1465L329.335 -45.1324C384.85 -44.7437 419.464 15.2096 392.042 63.4818L391.04 65.2458C378.232 87.7925 378.232 115.415 391.04 137.962L392.042 139.725C419.464 187.998 384.85 247.95 329.335 248.34L327.304 248.353C301.374 248.535 277.455 262.347 264.331 284.711L263.304 286.461C235.211 334.345 165.982 334.345 137.888 286.461L136.861 284.711C123.739 262.347 99.8176 248.535 73.888 248.353L71.8589 248.34C16.3436 247.95 -18.2704 187.998 9.15062 139.725L10.1527 137.962Z" stroke="black" stroke-width="0.904797"/>
</g>
<defs>
<clipPath id="clip0_464_1980">
<rect width="53.383" height="53.383" fill="white" transform="translate(173.719 74.9121)"/>
</clipPath>
<clipPath id="clip1_464_1980">
<rect width="71.4789" height="71.4789" fill="white" transform="translate(164.672 65.8633)"/>
</clipPath>
</defs>
</svg>
