<svg width="105" height="103" viewBox="0 0 105 103" fill="none" xmlns="http://www.w3.org/2000/svg">
<mask id="mask0_323_592" style="mask-type:alpha" maskUnits="userSpaceOnUse" x="-2" y="0" width="80" height="105">
<path class="letter" d="M7 0.5V67C7.66667 76.8333 14.2 96.3 35 95.5C61 94.5 69.5 84.5 69.5 74C69.5 65.6 69.5 21.5 69.5 0.5" stroke="black" stroke-width="17"/>
</mask>
<g mask="url(#mask0_323_592)">
<path d="M0 65.559V1H13.5768V64.7278C13.5768 72.763 15.701 78.9511 19.9496 83.2919C24.2904 87.5405 30.4323 89.6647 38.3752 89.6647C46.2257 89.6647 52.2752 87.4943 56.5238 83.1534C60.7723 78.8125 62.8965 72.6706 62.8965 64.7278V1H76.6119V65.559C76.6119 73.2248 75.0417 79.8285 71.9015 85.37C68.8537 90.9116 64.4666 95.2063 58.7404 98.2541C53.0141 101.302 46.2257 102.826 38.3752 102.826C30.5247 102.826 23.6901 101.348 17.8715 98.3927C12.1452 95.3448 7.71198 91.0501 4.57177 85.5086C1.52392 79.8747 0 73.2248 0 65.559Z" fill="#DADADA"/>
</g>
<mask id="mask1_323_592" style="mask-type:alpha" maskUnits="userSpaceOnUse" x="90" y="1" width="17" height="102">
<path class="letter" d="M98.5 103L98.5 1" stroke="black" stroke-width="17"/>
</mask>
<g mask="url(#mask1_323_592)">
<path d="M104.727 102.964H91.7039V1H104.727V102.964Z" fill="#DADADA"/>
</g>
</svg>
